<svg xmlns="http://www.w3.org/2000/svg" xmlns:xlink="http://www.w3.org/1999/xlink" viewBox="0 0 217 383.58"><defs><style>.cls-1{opacity:0.1;}.cls-2{fill:url(#linear-gradient);}.cls-3{fill:#fff;}</style><linearGradient id="linear-gradient" y1="157.84" x2="217" y2="157.84" gradientUnits="userSpaceOnUse"><stop offset="0" stop-color="#00e2c1"/><stop offset="1" stop-color="#00aa8d"/></linearGradient></defs><title>Asset 7</title><g id="Layer_2" data-name="Layer 2"><g id="Layer_1-2" data-name="Layer 1"><path class="cls-1" d="M15.27,290c-8.59-5-8.64-13-.1-17.91s22.43-4.91,31,.06L201.79,362c8.59,5,8.64,13,.1,17.91s-22.43,4.91-31-.06Z"/><path class="cls-2" d="M206.53,297.09c6.47-3.69,10.47-11.64,10.47-23V136.18c0-22.66-16-50.27-35.76-61.67L60.7,4.91C50.83-.79,41.89-1.36,35.42,2.33L10.47,18.6C4,22.29,0,30.24,0,41.57V179.5c0,22.66,16,50.27,35.76,61.67L156.3,310.77c9.87,5.7,18.81,6.27,25.28,2.58Z"/><path class="cls-3" d="M121.6,213.05l-4.45-2.57v16.95L121.6,230c4,2.31,4.23-2.24,4.23-6.07S125.61,215.37,121.6,213.05Z"/><polygon class="cls-3" points="40.19 195.43 48.36 200.14 44.27 175.31 40.19 195.43"/><polygon class="cls-3" points="79.23 217.97 87.39 222.68 83.31 197.84 79.23 217.97"/><path class="cls-3" d="M156.3,90.77,35.76,21.18C16,9.78,0,18.9,0,41.57V179.5c0,22.66,16,50.27,35.76,61.67L156.3,310.77c19.75,11.4,35.76,2.27,35.76-20.39V152.45C192.06,129.79,176,102.18,156.3,90.77Zm-56.17-1.1a8,8,0,0,1,5-1.42,12.79,12.79,0,0,1,5.72,1.44c.05.57.07,1.13.07,1.67h0q0,6.09-3.87,9.13c-3.11,2.38-6.88,2.62-11-.12-.05-.52-.08-1-.08-1.59C96,94.89,97.5,91.57,100.13,89.67Zm-48.07,133L50.36,212.2l-12.17-7-1.71,8.47-11-6.34,13.58-52.79,10.39,6L63,229Zm39,22.54L89.4,234.74l-12.17-7-1.71,8.47-11-6.34L78.12,177l10.39,6,13.58,68.47Zm6.39-85.23a16.51,16.51,0,0,0-6.44-2.13,15.46,15.46,0,0,1-5.57-1.54q-3.23-1.71-6.44-7a88.28,88.28,0,0,1-5.13-10,93,93,0,0,1-5.42-15.49,65.61,65.61,0,0,1-2.28-16q0-8.17,3.08-12.3a8.77,8.77,0,0,1,6.45-3.76,14.81,14.81,0,0,1,8.72,2.21,36.57,36.57,0,0,1,6.74,5.69,40.89,40.89,0,0,0,5.35,4.89,26.55,26.55,0,0,0,5.93,1.3,20,20,0,0,1,8.06,3,37.15,37.15,0,0,1,13.41,15.84q-8,.94-7.91,11a30.69,30.69,0,0,0,4.91,15.76,37.64,37.64,0,0,0,4.9,6.52q-.59,1.62-1.25,3a22.19,22.19,0,0,1-3.81,5.66,16.76,16.76,0,0,1-4.9,4,6.59,6.59,0,0,1-6.3-.45,28.32,28.32,0,0,1-5.82-5A29.48,29.48,0,0,0,97.5,159.94Zm24,80.91-4.38-2.53v21.88l-10.54-6.08V193.5l14.92,8.61c11.43,6.6,14.84,16,14.84,27.81S133,247.46,121.53,240.86ZM167.1,289,142.76,275V214.37l10.54,6.08v49.73l13.8,8Z"/></g></g></svg>