<svg xmlns="http://www.w3.org/2000/svg" xmlns:xlink="http://www.w3.org/1999/xlink" viewBox="0 0 217 383.58"><defs><style>.cls-1{opacity:0.1;}.cls-2{fill:url(#linear-gradient);}.cls-3{fill:#fff;}.cls-4{fill:url(#linear-gradient-2);}</style><linearGradient id="linear-gradient" y1="157.84" x2="217" y2="157.84" gradientUnits="userSpaceOnUse"><stop offset="0" stop-color="#83858a"/><stop offset="1"/></linearGradient><linearGradient id="linear-gradient-2" x1="33.2" y1="169.68" x2="159.6" y2="169.68" xlink:href="#linear-gradient"/></defs><title>Asset 6</title><g id="Layer_2" data-name="Layer 2"><g id="Layer_1-2" data-name="Layer 1"><path class="cls-1" d="M15.27,290c-8.59-5-8.64-13-.1-17.91s22.43-4.91,31,.06L201.79,362c8.59,5,8.64,13,.1,17.91s-22.43,4.91-31-.06Z"/><path class="cls-2" d="M206.53,297.09c6.47-3.69,10.47-11.64,10.47-23V136.18c0-22.66-16-50.27-35.76-61.67L60.7,4.91C50.83-.79,41.89-1.36,35.42,2.33L10.47,18.6C4,22.29,0,30.24,0,41.57V179.5c0,22.66,16,50.27,35.76,61.67L156.3,310.77c9.87,5.7,18.81,6.27,25.28,2.58Z"/><path class="cls-3" d="M156.3,90.77,35.76,21.18C16,9.78,0,18.9,0,41.57V179.5c0,22.66,16,50.27,35.76,61.67L156.3,310.77c19.75,11.4,35.76,2.27,35.76-20.39V152.45C192.06,129.79,176,102.18,156.3,90.77Z"/><path class="cls-4" d="M75.41,184.35l-19.88-64v52.57L36.84,162.08V54.53L53.16,64l19.48,63.81V75.21L91.34,86V193.55Zm75.69,34.18c-4.34,3.38-10.14,4.87-20.67-1.21s-16.06-14.11-20.4-22.5c-7.5-14.6-7-33.79-7-48.29s-.53-34.29,7-40.23c4.34-3.38,9.87-5,20.4,1.06S146.75,121.62,151.1,130c7.5,14.6,7,33.79,7,48.29S158.6,212.6,151.1,218.54Zm-14.22-83.89a14.42,14.42,0,0,0-6.45-8c-3.42-2-5.13-1.15-6.19.66-2.24,3.69-2.5,17-2.5,30s.26,26.59,2.5,32.86a13.61,13.61,0,0,0,6.19,7.8c3.42,2,5.4,1.3,6.45-.5,2.24-3.69,2.5-17,2.5-30S139.12,140.93,136.88,134.65ZM52.69,224.06c-1.75.94-4.71.61-8.49-1.57a22.87,22.87,0,0,1-8.43-8.13c-1.92-3.3-2.57-6.83-2.57-11.41L41,207.43a9.24,9.24,0,0,0,.82,4.56,6.3,6.3,0,0,0,2.41,2.46c1.2.7,2,.76,2.46.29s.77-1.5.77-3.33c0-4.27-.6-5.37-3.39-8.3l-4.93-5.17c-3.94-4.16-5.58-7.5-5.58-14.47,0-4.15,1.15-6.94,3.5-7.9,1.86-.75,4.22-.39,7.17,1.31a21,21,0,0,1,7.66,7.25,22.77,22.77,0,0,1,3,12.1l-7.77-4.49a9.87,9.87,0,0,0-.66-4.4,5.23,5.23,0,0,0-2.24-2.43c-1.09-.63-1.81-.54-2.24-.1s-.66,1.32-.66,2.82c0,2.83.44,3.9,2.68,6.26L48.86,199c4.93,5.17,6.35,8.5,6.35,16.61C55.2,220.11,54.71,223,52.69,224.06Zm21.62,15.31V220.65l-6.46-3.73v18.72l-7.77-4.49V186.43l7.77,4.49v18l6.46,3.73v-18l7.77,4.49v44.72Zm32.63,14.88c-1.81,1.41-4.22,2-8.6-.5a21.24,21.24,0,0,1-8.48-9.36c-3.12-6.07-2.9-14-2.9-20.08s-.22-14.26,2.9-16.73c1.81-1.41,4.11-2.09,8.48.44a21.66,21.66,0,0,1,8.6,9.42c3.12,6.07,2.9,14,2.9,20.08S110.06,251.78,106.94,254.25ZM101,219.37a6,6,0,0,0-2.68-3.31c-1.42-.82-2.13-.48-2.57.27-.93,1.54-1,7.06-1,12.46s.11,11.06,1,13.67a5.67,5.67,0,0,0,2.57,3.24c1.42.82,2.24.54,2.68-.21.93-1.54,1-7.06,1-12.47S102,222,101,219.37Zm28.79,52.05-4.76-20.15-2.57-1.49v17.4l-7.77-4.49V218l11.11,6.42c8.48,4.9,10.84,11.35,10.84,19.89,0,4.77-.66,8.67-4.43,9.19l5.69,22.63Zm-4.05-39-3.28-1.9v11.24l3.28,1.9c3,1.71,3.12-1.28,3.12-3.85S128.72,234.1,125.77,232.4ZM153,248.14v36.68l-7.77-4.49V243.65l-6.57-3.79v-8l20.91,12.07v8Z"/></g></g></svg>