<svg xmlns="http://www.w3.org/2000/svg" xmlns:xlink="http://www.w3.org/1999/xlink" viewBox="0 0 252.74 384.92"><defs><style>.cls-1{fill:url(#linear-gradient);}.cls-2{opacity:0.1;}.cls-3{fill:#fff;}</style><linearGradient id="linear-gradient" x1="0.54" y1="154.4" x2="252.74" y2="154.4" gradientUnits="userSpaceOnUse"><stop offset="0" stop-color="#83858a"/><stop offset="1"/></linearGradient></defs><title>Asset 3</title><g id="Layer_2" data-name="Layer 2"><g id="Layer_1-2" data-name="Layer 1"><path class="cls-1" d="M56.76,7.48c20.77-11.84,49.47-10,81.18,8.28,63.4,36.61,114.8,125.26,114.8,198,0,36.19-12.72,61.63-33.31,73.55l-22.6,13.81c-20.8,12-49.63,10.29-81.49-8.1C51.94,256.44.54,167.78.54,95c0-36.38,12.85-61.89,33.62-73.74Z"/><path class="cls-2" d="M36.29,291.34c-8.59-5-8.64-13-.1-17.91s22.43-4.91,31,.06l155.6,89.83c8.59,5,8.64,13,.1,17.91s-22.43,4.91-31-.06Z"/><path class="cls-3" d="M108.81,95.17l-4.13-2.39v14.15l4.13,2.39c3.72,2.15,3.93-1.61,3.93-4.85S112.53,97.32,108.81,95.17Z"/><path class="cls-3" d="M134.6,178.76c-2.81-1.62-4.92-.69-4.92,3.74v52.38c0,4.43,2.11,7.8,4.92,9.42s4.92.69,4.92-3.74V188.17C139.52,183.74,137.41,180.38,134.6,178.76Z"/><path class="cls-3" d="M114.75,30.18C51.43-6.43,0,22.41,0,95.51c0,75.07,53.76,163.23,114.41,197.43C175,329,229.22,303.67,229.35,228.12,229.47,154.86,178,66.73,114.75,30.18ZM67.28,61.08l22.59,13V84.24l-12.81-7.4V89.57l11,6.36V106l-11-6.36v13.2l12.81,7.4V130.4l-22.59-13ZM108,227.84V244L67.7,220.71V205.4l21.42-30.75c1.76-2.48,3.16-7.31,3.16-13.62,0-4.43-2-7.86-4.8-9.49s-5-.76-5,3.68V161l-15.68-9.05v-5.1c0-8.33,2-12,5.74-13.88s9.36-.77,15,2.47a39.23,39.23,0,0,1,14.28,13.75,41,41,0,0,1,6.2,21.58c0,6.72-1.76,13.63-4.56,17.51L84.55,214.33Zm0-108.92L104.68,117v21.89l-9.78-5.65V77l14,8.07c10.68,6.16,13.64,14.27,13.64,25,0,6-.83,10.9-5.58,11.56l7.16,28.48-10.19-5.89Zm47.29,130c0,8.33-2,12-5.74,13.88s-9.25.84-14.86-2.4a42.33,42.33,0,0,1-14.86-14.76,36.86,36.86,0,0,1-5.74-20.5v-51c0-8.33,2-12,5.74-13.88s9.25-.84,14.86,2.4a42.33,42.33,0,0,1,14.86,14.76,36.86,36.86,0,0,1,5.74,20.5ZM151,162.3c-2.48,1.26-5.44.89-9.5-1.46-5.51-3.18-8.4-7.38-10.68-11.77-3.93-7.64-3.65-17.6-3.65-25.18s-.28-18,3.65-21.13c2.27-1.77,5.17-2.63,10.68.55a25.85,25.85,0,0,1,9.5,9.52,32,32,0,0,1,4.34,15.07l-9.78-5.65a15.9,15.9,0,0,0-.76-4.78,6.94,6.94,0,0,0-3.31-4c-1.79-1-2.69-.6-3.24.34-1.17,1.93-1.31,8.89-1.31,15.68s.14,13.91,1.31,17.19a7.13,7.13,0,0,0,3.24,4.08c1.79,1,2.82.76,3.37-.26a8.8,8.8,0,0,0,.76-3.91l9.78,5.65C155.22,157.45,153.57,161,151,162.3Z"/></g></g></svg>