<?xml version="1.0" encoding="UTF-8"?>
<svg width="164px" height="290px" viewBox="0 0 164 290" version="1.1" xmlns="http://www.w3.org/2000/svg" xmlns:xlink="http://www.w3.org/1999/xlink">
    <!-- Generator: Sketch 49.3 (51167) - http://www.bohemiancoding.com/sketch -->
    <title>Page 1</title>
    <desc>Created with Sketch.</desc>
    <defs>
        <linearGradient x1="0%" y1="55.8788717%" x2="100%" y2="55.8788717%" id="linearGradient-1">
            <stop stop-color="#181E26" offset="0%"></stop>
            <stop stop-color="#303030" offset="100%"></stop>
        </linearGradient>
        <polygon id="path-2" points="0 0.519748824 145.285659 0.519748824 145.285659 226.325961 0 226.325961"></polygon>
    </defs>
    <g id="Page-1" stroke="none" stroke-width="1" fill="none" fill-rule="evenodd">
        <g id="market-site" transform="translate(-1121.000000, -3898.000000)">
            <g id="Page-1" transform="translate(1121.000000, 3898.000000)">
                <path d="M11.9004919,219.312017 C5.39550506,215.563494 5.36219663,209.506327 11.8270619,205.781223 C18.2911701,202.056118 28.8060388,202.07576 35.3117826,205.823528 L153.099508,273.688268 C159.604495,277.436035 159.637803,283.493957 153.172938,287.219062 C146.70883,290.943411 136.193961,290.924525 129.688974,287.176757 L11.9004919,219.312017 Z" id="Fill-1" fill-opacity="0.2" fill="#000000"></path>
                <path d="M33.7310968,0 C31.144129,0.00226174889 28.7952258,0.603133037 26.766765,1.75662497 L7.91432258,14.0213353 C3.024553,16.8032864 0,22.7946592 0,31.3365309 L0,135.330991 C0,152.415488 12.0989677,173.232625 27.0237235,181.828779 L118.123834,234.297583 C125.586212,238.59566 132.34271,239.023884 137.233235,236.243441 L156.084922,223.977977 C160.975447,221.196026 164,215.205407 164,206.662781 L164,102.668321 C164,85.584578 151.901788,64.7674412 136.976276,56.1705337 L45.8754101,3.70172902 C41.5184516,1.19269558 37.4010691,0.00226174889 33.7560369,0 L33.7310968,0 Z" id="Fill-4" fill="url(#linearGradient-1)"></path>
                <g id="Group-16" transform="translate(0.000000, 12.000000)">
                    <path d="M91.9909689,148.926178 L88.6231347,146.988005 L88.6231347,159.767125 L91.9909689,161.705298 C95.022171,163.451161 95.1901088,160.015241 95.1901088,157.125328 C95.1901088,154.236168 95.022171,150.670534 91.9909689,148.926178" id="Fill-7" fill="#FFFFFF"></path>
                    <polygon id="Fill-9" fill="#FFFFFF" points="30.4046135 135.634235 36.5804891 139.188557 33.4925513 120.457663"></polygon>
                    <polygon id="Fill-11" fill="#FFFFFF" points="59.9352694 152.631331 66.1103886 156.185653 63.0224508 137.454759"></polygon>
                    <g id="Group-15">
                        <mask id="mask-3" fill="white">
                            <use xlink:href="#path-2"></use>
                        </mask>
                        <g id="Clip-14"></g>
                        <path d="M126.404758,206.238851 L107.991359,195.639988 L107.991359,149.915702 L115.96311,154.503968 L115.96311,192.008742 L126.404758,198.018586 L126.404758,206.238851 Z M91.9351409,169.893964 L88.623286,167.987466 L88.623286,184.492101 L80.6515347,179.903835 L80.6515347,134.178795 L91.9351409,140.674313 C100.5794,145.650214 103.161255,152.723413 103.161255,161.65032 C103.161255,170.639822 100.5794,174.869865 91.9351409,169.893964 Z M73.7532238,108.872443 C72.2387575,108.000642 70.6153585,107.462931 68.8784881,107.265343 C67.1385917,107.069263 65.7375969,106.682383 64.6664259,106.107719 C63.0362187,105.248739 61.4120632,103.493071 59.7909337,100.835436 C58.7560736,99.2072203 57.461742,96.6921206 55.9109648,93.2923997 C54.2474725,89.6573831 52.8805192,85.7652003 51.8085917,81.60831 C50.6610166,77.1248714 50.0853378,73.090908 50.0853378,69.5056654 C50.0853378,65.4000575 50.8614829,62.3057684 52.4145295,60.2318482 C53.6362394,58.5508415 55.2596383,57.6051339 57.2930477,57.3947252 C59.3257005,57.1843166 61.5217523,57.7454063 63.8872549,59.0621571 C65.1815865,59.806506 66.8791202,61.2416588 68.9889337,63.3555492 C71.0919389,65.4694395 72.4422497,66.7047419 73.034571,67.0456189 C73.4771098,67.3005226 74.9779596,67.6285791 77.5204777,68.0245093 C79.9260736,68.4189312 81.9557005,69.177609 83.6184363,70.2952635 C88.1247679,73.3050874 91.510001,77.2862601 93.7620321,82.2425525 C89.7315244,82.7169146 87.7382083,85.4816389 87.7775451,90.5239047 C87.813856,94.453795 89.0537212,98.4206389 91.4903326,102.406337 C92.5947886,104.240436 93.8278456,105.876948 95.1993378,107.324921 C94.9020425,108.140915 94.5881047,108.905626 94.2544984,109.621317 C93.4443119,111.294782 92.4850995,112.713343 91.3745917,113.886051 C89.8601254,115.484101 88.6210166,116.479582 87.6655865,116.879283 C86.1844052,117.58517 84.5973171,117.469785 82.897514,116.536898 C81.6780736,115.834782 80.2074829,114.591184 78.4940632,112.800071 C76.7768611,111.008958 75.1973378,109.702765 73.7532238,108.872443 Z M68.9170684,173.149642 L67.6257627,165.278549 L58.418685,159.978363 L57.1281358,166.364529 L48.8189959,161.581692 L59.0927057,121.770719 L66.951742,126.294127 L77.2254518,177.931725 L68.9170684,173.149642 Z M39.3872446,156.1533 L38.0959389,148.280699 L28.8888611,142.982021 L27.5983119,149.368187 L19.289172,144.58535 L29.5621254,104.774376 L37.4219181,109.297785 L47.6948715,160.935383 L39.3872446,156.1533 Z M75.7472964,55.8751073 C76.7397938,55.1428249 78.0023534,54.7861106 79.5327057,54.802702 C81.0600321,54.8298515 82.5049026,55.1910907 83.8635347,55.8924528 C83.9028715,56.3245824 83.919514,56.7438914 83.919514,57.1503797 C83.919514,60.2145027 82.9413896,62.5124063 80.9904363,64.0373033 C78.6362808,65.8306787 75.7896591,66.0116754 72.7017212,63.946805 C72.6623845,63.556908 72.6396902,63.1564528 72.6396902,62.7499645 C72.6396902,59.8087684 73.7592756,57.3049811 75.7472964,55.8751073 Z M118.236322,56.7084462 L27.0491098,4.2231804 C12.1102083,-4.37491595 -0.000226943005,2.50748272 -0.000226943005,19.5973399 L-0.000226943005,123.624426 C-0.000226943005,140.714283 12.1102083,161.538705 27.0491098,170.136802 L118.236322,222.622822 C133.175224,231.220918 145.285659,224.337011 145.285659,207.247908 L145.285659,103.220067 C145.285659,86.1309645 133.175224,65.3065425 118.236322,56.7084462 Z" id="Fill-13" fill="#FFFFFF" mask="url(#mask-3)"></path>
                    </g>
                </g>
            </g>
        </g>
    </g>
</svg>