<svg xmlns="http://www.w3.org/2000/svg" xmlns:xlink="http://www.w3.org/1999/xlink" viewBox="0 0 468.3 452.16"><defs><style>.cls-1,.cls-66{fill:none;}.cls-2{opacity:0.1;}.cls-3{fill:url(#linear-gradient);}.cls-4{fill:url(#linear-gradient-2);}.cls-5{fill:url(#linear-gradient-3);}.cls-6{fill:url(#linear-gradient-4);}.cls-7{fill:url(#linear-gradient-5);}.cls-8{fill:url(#linear-gradient-6);}.cls-9{fill:#a29fa0;}.cls-10{fill:url(#linear-gradient-7);}.cls-11{fill:url(#linear-gradient-8);}.cls-12{fill:url(#linear-gradient-9);}.cls-13{fill:url(#linear-gradient-10);}.cls-14{fill:url(#linear-gradient-11);}.cls-15{fill:url(#linear-gradient-12);}.cls-16{fill:url(#linear-gradient-13);}.cls-17{fill:url(#linear-gradient-14);}.cls-18{fill:url(#linear-gradient-15);}.cls-19{fill:url(#linear-gradient-16);}.cls-20{fill:url(#linear-gradient-17);}.cls-21{fill:url(#linear-gradient-18);}.cls-22{fill:url(#linear-gradient-19);}.cls-23{fill:url(#linear-gradient-20);}.cls-24{fill:url(#linear-gradient-21);}.cls-25{fill:url(#linear-gradient-22);}.cls-26{fill:url(#linear-gradient-23);}.cls-27{fill:url(#linear-gradient-24);}.cls-28{fill:url(#linear-gradient-25);}.cls-29{fill:url(#linear-gradient-26);}.cls-30{fill:url(#linear-gradient-27);}.cls-31{fill:url(#linear-gradient-28);}.cls-32{fill:url(#linear-gradient-29);}.cls-33{fill:url(#linear-gradient-30);}.cls-34{fill:url(#linear-gradient-31);}.cls-35{fill:url(#linear-gradient-32);}.cls-36{fill:url(#linear-gradient-33);}.cls-37{fill:url(#linear-gradient-34);}.cls-38{fill:url(#linear-gradient-35);}.cls-39{fill:url(#linear-gradient-36);}.cls-40{fill:url(#linear-gradient-37);}.cls-41{fill:url(#linear-gradient-38);}.cls-42{fill:url(#linear-gradient-39);}.cls-43{fill:url(#linear-gradient-40);}.cls-44{fill:url(#linear-gradient-41);}.cls-45{fill:#2b3646;}.cls-46{fill:url(#linear-gradient-42);}.cls-47{fill:url(#linear-gradient-43);}.cls-48{fill:url(#linear-gradient-44);}.cls-49{fill:#fff;}.cls-50{fill:url(#linear-gradient-45);}.cls-51{fill:url(#linear-gradient-46);}.cls-52{fill:url(#linear-gradient-47);}.cls-53{fill:url(#linear-gradient-48);}.cls-54{fill:url(#linear-gradient-49);}.cls-55{fill:url(#linear-gradient-50);}.cls-56{fill:url(#linear-gradient-51);}.cls-57{fill:url(#linear-gradient-52);}.cls-58{fill:url(#linear-gradient-53);}.cls-59{fill:url(#linear-gradient-54);}.cls-60{fill:url(#linear-gradient-55);}.cls-61{fill:url(#linear-gradient-56);}.cls-62{fill:url(#linear-gradient-57);}.cls-63{fill:url(#linear-gradient-58);}.cls-64{fill:url(#linear-gradient-59);}.cls-65{clip-path:url(#clip-path);}.cls-66{stroke:#fff;stroke-miterlimit:10;stroke-width:0.21px;}.cls-67{fill:url(#linear-gradient-60);}.cls-68{fill:url(#linear-gradient-61);}.cls-69{fill:#00ad8c;}.cls-70{fill:#00e2c1;}.cls-71{fill:url(#linear-gradient-62);}.cls-72{fill:url(#linear-gradient-63);}.cls-73{fill:#a5b3c4;}.cls-74{fill:#231f20;}.cls-75{clip-path:url(#clip-path-2);}.cls-76{fill:url(#linear-gradient-64);}.cls-77{fill:url(#linear-gradient-65);}.cls-78{fill:url(#linear-gradient-66);}.cls-79{fill:url(#linear-gradient-67);}.cls-80{fill:url(#linear-gradient-68);}.cls-81{fill:url(#linear-gradient-69);}.cls-82{fill:url(#linear-gradient-70);}.cls-83{fill:url(#linear-gradient-71);}.cls-84{fill:url(#linear-gradient-72);}.cls-85{fill:url(#linear-gradient-73);}.cls-86{fill:url(#linear-gradient-74);}.cls-87{fill:url(#linear-gradient-75);}.cls-88{fill:url(#linear-gradient-76);}.cls-89{fill:url(#linear-gradient-77);}.cls-90{fill:url(#linear-gradient-78);}.cls-91{fill:url(#linear-gradient-79);}.cls-92{fill:url(#linear-gradient-80);}.cls-93{fill:url(#linear-gradient-81);}.cls-94{fill:url(#linear-gradient-82);}.cls-95{fill:url(#linear-gradient-83);}.cls-96{fill:url(#linear-gradient-84);}.cls-97{fill:url(#linear-gradient-85);}.cls-98{fill:url(#linear-gradient-86);}.cls-99{fill:url(#linear-gradient-87);}.cls-100{fill:url(#linear-gradient-88);}.cls-101{fill:url(#linear-gradient-89);}.cls-102{fill:url(#linear-gradient-90);}.cls-103{fill:url(#linear-gradient-91);}.cls-104{fill:url(#linear-gradient-92);}.cls-105{fill:url(#linear-gradient-93);}.cls-106{fill:url(#linear-gradient-94);}.cls-107{fill:url(#linear-gradient-95);}.cls-108{fill:url(#linear-gradient-96);}.cls-109{fill:url(#linear-gradient-97);}.cls-110{fill:url(#linear-gradient-98);}.cls-111{fill:url(#linear-gradient-99);}.cls-112{fill:url(#linear-gradient-100);}.cls-113{fill:url(#linear-gradient-101);}.cls-114{fill:url(#linear-gradient-102);}.cls-115{fill:url(#linear-gradient-103);}.cls-116{clip-path:url(#clip-path-3);}.cls-117{fill:url(#linear-gradient-104);}.cls-118{fill:url(#linear-gradient-105);}.cls-119{fill:url(#linear-gradient-106);}.cls-120{fill:url(#linear-gradient-107);}.cls-121{fill:url(#linear-gradient-108);}.cls-122{fill:url(#linear-gradient-109);}.cls-123{fill:url(#linear-gradient-110);}</style><linearGradient id="linear-gradient" y1="191.98" x2="291.94" y2="191.98" gradientUnits="userSpaceOnUse"><stop offset="0" stop-color="#a9aeb7"/><stop offset="0.99" stop-color="#848c99"/></linearGradient><linearGradient id="linear-gradient-2" x1="0.01" y1="237.36" x2="291.94" y2="237.36" gradientUnits="userSpaceOnUse"><stop offset="0" stop-color="#4e5668"/><stop offset="1" stop-color="#363d4f"/></linearGradient><linearGradient id="linear-gradient-3" x1="16.86" y1="185.35" x2="275.08" y2="185.35" xlink:href="#linear-gradient"/><linearGradient id="linear-gradient-4" x1="16.86" y1="225.49" x2="275.08" y2="225.49" xlink:href="#linear-gradient-2"/><linearGradient id="linear-gradient-5" x1="128.31" y1="238.61" x2="168.41" y2="238.61" xlink:href="#linear-gradient-2"/><linearGradient id="linear-gradient-6" x1="128.31" y1="229.8" x2="168.41" y2="229.8" xlink:href="#linear-gradient"/><linearGradient id="linear-gradient-7" x1="134.47" y1="198.82" x2="162.25" y2="198.82" gradientUnits="userSpaceOnUse"><stop offset="0" stop-color="#fff"/><stop offset="0.99" stop-color="#d8d8d8"/></linearGradient><linearGradient id="linear-gradient-8" x1="150.86" y1="206.16" x2="152.86" y2="206.16" xlink:href="#linear-gradient"/><linearGradient id="linear-gradient-9" x1="156.86" y1="204.16" x2="158.86" y2="204.16" xlink:href="#linear-gradient"/><linearGradient id="linear-gradient-10" x1="143.86" y1="206.16" x2="145.86" y2="206.16" xlink:href="#linear-gradient"/><linearGradient id="linear-gradient-11" x1="137.86" y1="204.16" x2="139.86" y2="204.16" xlink:href="#linear-gradient"/><linearGradient id="linear-gradient-12" x1="172.06" y1="213.11" x2="212.16" y2="213.11" xlink:href="#linear-gradient-2"/><linearGradient id="linear-gradient-13" x1="172.06" y1="204.3" x2="212.16" y2="204.3" xlink:href="#linear-gradient"/><linearGradient id="linear-gradient-14" x1="178.22" y1="173.32" x2="206" y2="173.32" xlink:href="#linear-gradient-7"/><linearGradient id="linear-gradient-15" x1="194.61" y1="180.66" x2="196.61" y2="180.66" xlink:href="#linear-gradient"/><linearGradient id="linear-gradient-16" x1="200.61" y1="178.66" x2="202.61" y2="178.66" xlink:href="#linear-gradient"/><linearGradient id="linear-gradient-17" x1="187.61" y1="180.66" x2="189.61" y2="180.66" xlink:href="#linear-gradient"/><linearGradient id="linear-gradient-18" x1="181.61" y1="178.66" x2="183.61" y2="178.66" xlink:href="#linear-gradient"/><linearGradient id="linear-gradient-19" x1="216.06" y1="187.61" x2="256.16" y2="187.61" xlink:href="#linear-gradient-2"/><linearGradient id="linear-gradient-20" x1="216.06" y1="178.8" x2="256.16" y2="178.8" xlink:href="#linear-gradient"/><linearGradient id="linear-gradient-21" x1="222.22" y1="147.82" x2="250" y2="147.82" xlink:href="#linear-gradient-7"/><linearGradient id="linear-gradient-22" x1="238.61" y1="155.16" x2="240.61" y2="155.16" xlink:href="#linear-gradient"/><linearGradient id="linear-gradient-23" x1="244.61" y1="153.16" x2="246.61" y2="153.16" xlink:href="#linear-gradient"/><linearGradient id="linear-gradient-24" x1="231.61" y1="155.16" x2="233.61" y2="155.16" xlink:href="#linear-gradient"/><linearGradient id="linear-gradient-25" x1="225.61" y1="153.16" x2="227.61" y2="153.16" xlink:href="#linear-gradient"/><linearGradient id="linear-gradient-26" x1="85.81" y1="213.36" x2="125.91" y2="213.36" xlink:href="#linear-gradient-2"/><linearGradient id="linear-gradient-27" x1="85.81" y1="204.55" x2="125.91" y2="204.55" xlink:href="#linear-gradient"/><linearGradient id="linear-gradient-28" x1="91.97" y1="173.57" x2="119.75" y2="173.57" xlink:href="#linear-gradient-7"/><linearGradient id="linear-gradient-29" x1="108.36" y1="180.91" x2="110.36" y2="180.91" xlink:href="#linear-gradient"/><linearGradient id="linear-gradient-30" x1="114.36" y1="178.91" x2="116.36" y2="178.91" xlink:href="#linear-gradient"/><linearGradient id="linear-gradient-31" x1="101.36" y1="180.91" x2="103.36" y2="180.91" xlink:href="#linear-gradient"/><linearGradient id="linear-gradient-32" x1="95.36" y1="178.91" x2="97.36" y2="178.91" xlink:href="#linear-gradient"/><linearGradient id="linear-gradient-33" x1="41.81" y1="188.36" x2="81.91" y2="188.36" xlink:href="#linear-gradient-2"/><linearGradient id="linear-gradient-34" x1="41.81" y1="179.55" x2="81.91" y2="179.55" xlink:href="#linear-gradient"/><linearGradient id="linear-gradient-35" x1="47.97" y1="148.57" x2="75.75" y2="148.57" xlink:href="#linear-gradient-7"/><linearGradient id="linear-gradient-36" x1="64.36" y1="155.91" x2="66.36" y2="155.91" xlink:href="#linear-gradient"/><linearGradient id="linear-gradient-37" x1="70.36" y1="153.91" x2="72.36" y2="153.91" xlink:href="#linear-gradient"/><linearGradient id="linear-gradient-38" x1="57.36" y1="155.91" x2="59.36" y2="155.91" xlink:href="#linear-gradient"/><linearGradient id="linear-gradient-39" x1="51.36" y1="153.91" x2="53.36" y2="153.91" xlink:href="#linear-gradient"/><linearGradient id="linear-gradient-40" x1="133.31" y1="130.8" x2="291.22" y2="130.8" gradientUnits="userSpaceOnUse"><stop offset="0" stop-color="#9198a4"/><stop offset="0.99" stop-color="#5e6676"/></linearGradient><linearGradient id="linear-gradient-41" x1="12.36" y1="88.77" x2="212.27" y2="88.77" xlink:href="#linear-gradient"/><linearGradient id="linear-gradient-42" x1="91.32" y1="43.19" x2="291.22" y2="43.19" xlink:href="#linear-gradient-2"/><linearGradient id="linear-gradient-43" x1="149.85" y1="128" x2="274.69" y2="128" xlink:href="#linear-gradient-2"/><linearGradient id="linear-gradient-44" x1="149.85" y1="133.6" x2="274.69" y2="133.6" xlink:href="#linear-gradient"/><linearGradient id="linear-gradient-45" x1="1300.78" y1="759.1" x2="1317.35" y2="759.1" gradientTransform="matrix(0.87, 0.5, -1, 0.58, -19.38, -746.74)" gradientUnits="userSpaceOnUse"><stop offset="0" stop-color="#83858a"/><stop offset="1"/></linearGradient><linearGradient id="linear-gradient-46" x1="1296.51" y1="741.79" x2="1313.08" y2="741.79" xlink:href="#linear-gradient-45"/><linearGradient id="linear-gradient-47" x1="238.74" y1="244.1" x2="339.18" y2="244.1" xlink:href="#linear-gradient-40"/><linearGradient id="linear-gradient-48" x1="248.39" y1="244.1" x2="329.53" y2="244.1" gradientUnits="userSpaceOnUse"><stop offset="0" stop-color="#5b6273"/><stop offset="1" stop-color="#4b5161"/></linearGradient><linearGradient id="linear-gradient-49" x1="239.37" y1="159.46" x2="411.27" y2="159.46" xlink:href="#linear-gradient"/><linearGradient id="linear-gradient-50" x1="339.18" y1="252.28" x2="411.27" y2="252.28" xlink:href="#linear-gradient-2"/><linearGradient id="linear-gradient-51" x1="237.51" y1="250.38" x2="318.65" y2="250.38" xlink:href="#linear-gradient-40"/><linearGradient id="linear-gradient-52" x1="318.65" y1="270.66" x2="329.53" y2="270.66" xlink:href="#linear-gradient-2"/><linearGradient id="linear-gradient-53" x1="237.51" y1="194.37" x2="329.53" y2="194.37" xlink:href="#linear-gradient"/><linearGradient id="linear-gradient-54" x1="1176.33" y1="673.88" x2="1185.52" y2="673.88" gradientTransform="matrix(0.87, 0.5, -1, 0.58, -19.38, -746.74)" xlink:href="#linear-gradient"/><linearGradient id="linear-gradient-55" x1="1177.67" y1="683.31" x2="1205.94" y2="683.31" gradientTransform="matrix(0.87, 0.5, -1, 0.58, -19.38, -746.74)" xlink:href="#linear-gradient-2"/><linearGradient id="linear-gradient-56" x1="1231.65" y1="721.79" x2="1240.84" y2="721.79" gradientTransform="matrix(0.87, 0.5, -1, 0.58, -19.38, -746.74)" xlink:href="#linear-gradient"/><linearGradient id="linear-gradient-57" x1="1232.99" y1="731.22" x2="1261.27" y2="731.22" gradientTransform="matrix(0.87, 0.5, -1, 0.58, -19.38, -746.74)" xlink:href="#linear-gradient-2"/><linearGradient id="linear-gradient-58" x1="92.75" y1="713.51" x2="122.7" y2="730.8" gradientTransform="matrix(0.87, 0.5, 0, 1.15, 178.06, -637.29)" xlink:href="#linear-gradient"/><linearGradient id="linear-gradient-59" x1="260.41" y1="247.44" x2="295.45" y2="247.44" xlink:href="#linear-gradient-2"/><clipPath id="clip-path"><path class="cls-1" d="M255.88,241.51c0-4.91,1.73-8.35,4.53-9.94s6.67-1.35,10.95,1.12c8.55,4.94,15.48,16.89,15.48,26.7,0,4.88-1.72,8.32-4.5,9.92s-6.69,1.38-11-1.09C262.81,263.28,255.88,251.32,255.88,241.51Z"/></clipPath><linearGradient id="linear-gradient-60" x1="95.67" y1="722.21" x2="109.43" y2="730.16" gradientTransform="matrix(0.87, 0.5, 0, 1.15, 178.06, -637.29)" xlink:href="#linear-gradient-40"/><linearGradient id="linear-gradient-61" x1="261.85" y1="251.13" x2="277.94" y2="251.13" xlink:href="#linear-gradient-2"/><linearGradient id="linear-gradient-62" x1="1956.7" y1="326.07" x2="1965.27" y2="326.07" gradientTransform="matrix(-1, 0, 0, 1, 2386.84, 0)" xlink:href="#linear-gradient-45"/><linearGradient id="linear-gradient-63" x1="1934.93" y1="315.05" x2="1965.27" y2="315.05" gradientTransform="matrix(-1, 0, 0, 1, 2386.84, 0)" xlink:href="#linear-gradient-45"/><clipPath id="clip-path-2"><polygon class="cls-1" points="381.35 257.72 389.88 246.63 365.99 214.2 376.28 246.48 367.7 263.27 380.5 276.92 362.58 308.06 372.77 317.5 396.43 303.84 385.62 292.28 399.27 274.79 381.35 257.72"/></clipPath><linearGradient id="linear-gradient-64" x1="373.72" y1="294.62" x2="396.43" y2="294.62" gradientUnits="userSpaceOnUse"><stop offset="0" stop-color="#2e384d"/><stop offset="1" stop-color="#141c31"/></linearGradient><linearGradient id="linear-gradient-65" x1="360.87" y1="307.23" x2="396.43" y2="307.23" xlink:href="#linear-gradient-64"/><linearGradient id="linear-gradient-66" x1="373.72" y1="280.1" x2="399.27" y2="280.1" xlink:href="#linear-gradient-64"/><linearGradient id="linear-gradient-67" x1="369.46" y1="262.82" x2="399.27" y2="262.82" xlink:href="#linear-gradient-64"/><linearGradient id="linear-gradient-68" x1="369.46" y1="248.74" x2="389.89" y2="248.74" xlink:href="#linear-gradient-64"/><linearGradient id="linear-gradient-69" x1="354.1" y1="226.98" x2="389.89" y2="226.98" xlink:href="#linear-gradient-64"/><linearGradient id="linear-gradient-70" x1="1320.35" y1="719.67" x2="1336.93" y2="719.67" xlink:href="#linear-gradient-45"/><linearGradient id="linear-gradient-71" x1="1315.12" y1="716.84" x2="1331.69" y2="716.84" xlink:href="#linear-gradient-45"/><linearGradient id="linear-gradient-72" x1="1312.33" y1="711.87" x2="1328.91" y2="711.87" xlink:href="#linear-gradient-45"/><linearGradient id="linear-gradient-73" x1="1306.24" y1="708.3" x2="1322.82" y2="708.3" xlink:href="#linear-gradient-45"/><linearGradient id="linear-gradient-74" x1="1302.97" y1="703.77" x2="1319.54" y2="703.77" xlink:href="#linear-gradient-45"/><linearGradient id="linear-gradient-75" x1="1296.39" y1="700.62" x2="1312.96" y2="700.62" xlink:href="#linear-gradient-45"/><linearGradient id="linear-gradient-76" x1="1289.68" y1="699.06" x2="1306.25" y2="699.06" xlink:href="#linear-gradient-45"/><linearGradient id="linear-gradient-77" x1="1317.5" y1="732.09" x2="1334.07" y2="732.09" xlink:href="#linear-gradient-45"/><linearGradient id="linear-gradient-78" x1="1312.75" y1="728.83" x2="1329.32" y2="728.83" xlink:href="#linear-gradient-45"/><linearGradient id="linear-gradient-79" x1="1309.97" y1="723.87" x2="1326.54" y2="723.87" xlink:href="#linear-gradient-45"/><linearGradient id="linear-gradient-80" x1="1302.41" y1="721.58" x2="1318.98" y2="721.58" xlink:href="#linear-gradient-45"/><linearGradient id="linear-gradient-81" x1="1296.19" y1="719.59" x2="1312.76" y2="719.59" xlink:href="#linear-gradient-45"/><linearGradient id="linear-gradient-82" x1="1292.55" y1="713.89" x2="1309.13" y2="713.89" xlink:href="#linear-gradient-45"/><linearGradient id="linear-gradient-83" x1="1284.5" y1="712.02" x2="1301.07" y2="712.02" xlink:href="#linear-gradient-45"/><linearGradient id="linear-gradient-84" x1="1276.94" y1="709.73" x2="1293.51" y2="709.73" xlink:href="#linear-gradient-45"/><linearGradient id="linear-gradient-85" x1="1324.76" y1="749.02" x2="1341.33" y2="749.02" xlink:href="#linear-gradient-45"/><linearGradient id="linear-gradient-86" x1="1318.67" y1="745.45" x2="1335.24" y2="745.45" xlink:href="#linear-gradient-45"/><linearGradient id="linear-gradient-87" x1="1314.55" y1="740.18" x2="1331.12" y2="740.18" xlink:href="#linear-gradient-45"/><linearGradient id="linear-gradient-88" x1="1307.97" y1="737.03" x2="1324.54" y2="737.03" xlink:href="#linear-gradient-45"/><linearGradient id="linear-gradient-89" x1="1302.24" y1="734.62" x2="1318.81" y2="734.62" xlink:href="#linear-gradient-45"/><linearGradient id="linear-gradient-90" x1="1296.64" y1="730.62" x2="1313.21" y2="730.62" xlink:href="#linear-gradient-45"/><linearGradient id="linear-gradient-91" x1="1293.37" y1="726.09" x2="1309.94" y2="726.09" xlink:href="#linear-gradient-45"/><linearGradient id="linear-gradient-92" x1="1287.28" y1="722.52" x2="1303.85" y2="722.52" xlink:href="#linear-gradient-45"/><linearGradient id="linear-gradient-93" x1="1319.6" y1="764.55" x2="1336.17" y2="764.55" xlink:href="#linear-gradient-45"/><linearGradient id="linear-gradient-94" x1="1335.65" y1="762.07" x2="1352.23" y2="762.07" xlink:href="#linear-gradient-45"/><linearGradient id="linear-gradient-95" x1="1355.56" y1="775.05" x2="1372.13" y2="775.05" xlink:href="#linear-gradient-45"/><linearGradient id="linear-gradient-96" x1="1372.02" y1="755.27" x2="1388.59" y2="755.27" xlink:href="#linear-gradient-45"/><linearGradient id="linear-gradient-97" x1="1316.32" y1="760.01" x2="1332.9" y2="760.01" xlink:href="#linear-gradient-45"/><linearGradient id="linear-gradient-98" x1="1310.6" y1="757.6" x2="1327.17" y2="757.6" xlink:href="#linear-gradient-45"/><linearGradient id="linear-gradient-99" x1="1307.81" y1="752.64" x2="1324.39" y2="752.64" xlink:href="#linear-gradient-45"/><linearGradient id="linear-gradient-100" x1="1335.92" y1="738.26" x2="1352.49" y2="738.26" xlink:href="#linear-gradient-45"/><linearGradient id="linear-gradient-101" x1="1332.64" y1="733.72" x2="1349.22" y2="733.72" xlink:href="#linear-gradient-45"/><linearGradient id="linear-gradient-102" x1="1326.91" y1="731.31" x2="1343.49" y2="731.31" xlink:href="#linear-gradient-45"/><linearGradient id="linear-gradient-103" x1="1332.02" y1="756.37" x2="1348.59" y2="756.37" xlink:href="#linear-gradient-45"/><clipPath id="clip-path-3"><polygon class="cls-1" points="423.91 257.72 389.88 246.63 365.99 214.2 376.28 246.48 367.7 263.27 380.5 276.92 362.58 308.06 372.77 317.5 396.43 303.84 411.15 292.28 424.81 274.79 423.91 257.72"/></clipPath><linearGradient id="linear-gradient-104" x1="1272.12" y1="718.32" x2="1288.69" y2="718.32" xlink:href="#linear-gradient-45"/><linearGradient id="linear-gradient-105" x1="1265.34" y1="706.5" x2="1281.92" y2="706.5" xlink:href="#linear-gradient-45"/><linearGradient id="linear-gradient-106" x1="1231.76" y1="682.52" x2="1248.33" y2="682.52" xlink:href="#linear-gradient-45"/><linearGradient id="linear-gradient-107" x1="115.61" y1="310.17" x2="231.95" y2="310.17" gradientTransform="matrix(1, 0, 0, 1, 0, 0)" xlink:href="#linear-gradient-45"/><linearGradient id="linear-gradient-108" x1="134.67" y1="317.26" x2="200.36" y2="317.26" gradientTransform="matrix(1, 0, 0, 1, 0, 0)" xlink:href="#linear-gradient-45"/><linearGradient id="linear-gradient-109" x1="9.83" y1="331.13" x2="126.17" y2="331.13" gradientTransform="matrix(1, 0, 0, 1, 0, 0)" xlink:href="#linear-gradient-45"/><linearGradient id="linear-gradient-110" x1="27.63" y1="337.48" x2="95.4" y2="337.48" gradientTransform="matrix(1, 0, 0, 1, 0, 0)" xlink:href="#linear-gradient-45"/></defs><title>Asset 1</title><g id="Layer_2" data-name="Layer 2"><g id="Layer_1-2" data-name="Layer 1"><path class="cls-2" d="M139.38,304.73,2.63,225.79A4.62,4.62,0,0,1,0,222.19c-.11-1.79,1.15-3.71,3.72-5.19l133.61-77.14c4.51-2.6,11.32-2.88,15.22-.63l136.74,78.95a4.53,4.53,0,0,1,2.63,3.81c0,1.73-1.26,3.56-3.73,5L154.6,304.1C150.09,306.71,143.28,307,139.38,304.73Z"/><path class="cls-3" d="M139.38,274.73,2.63,195.79A4.62,4.62,0,0,1,0,192.19c-.11-1.79,1.15-3.71,3.72-5.19l133.61-77.14c4.51-2.6,11.32-2.88,15.22-.63l136.74,78.95a4.53,4.53,0,0,1,2.63,3.81c0,1.73-1.26,3.56-3.73,5L154.6,274.1C150.09,276.71,143.28,277,139.38,274.73Z"/><path class="cls-4" d="M291.94,198.46c0,1.73-1.26,3.56-3.73,5L154.6,280.58c-4.51,2.6-11.32,2.88-15.22.63L2.63,202.26A4.62,4.62,0,0,1,0,198.67v-6.48a4.62,4.62,0,0,0,2.63,3.6l136.74,78.95c3.9,2.25,10.72,2,15.22-.63L288.21,197c2.47-1.43,3.73-3.25,3.73-5Z"/><path class="cls-5" d="M140.14,258.55,19.19,188.72a4.08,4.08,0,0,1-2.32-3.18c-.1-1.58,1-3.28,3.29-4.59l118.18-68.23c4-2.3,10-2.55,13.47-.56L272.75,182a4,4,0,0,1,2.33,3.37c0,1.53-1.11,3.15-3.3,4.41L153.6,258C149.62,260.29,143.59,260.54,140.14,258.55Z"/><path class="cls-6" d="M275.08,191.08c0,1.53-1.11,3.15-3.3,4.41L153.6,263.72c-4,2.3-10,2.55-13.47.56L19.19,194.45a4.08,4.08,0,0,1-2.32-3.18v-5.73a4.08,4.08,0,0,0,2.32,3.18l120.95,69.83c3.45,2,9.48,1.74,13.47-.56l118.18-68.23c2.18-1.26,3.3-2.88,3.3-4.41Z"/><path class="cls-7" d="M128.31,229.85c.05,2.93,2,5.86,5.92,8.11,7.85,4.53,20.55,4.56,28.35.05,3.9-2.25,5.84-5.21,5.83-8.17v6c0,3-1.93,5.92-5.83,8.17-7.8,4.51-20.5,4.48-28.35-.05-3.89-2.25-5.86-5.18-5.92-8.11Z"/><path class="cls-8" d="M134.14,221.59c7.8-4.51,20.5-4.48,28.35.05,3.93,2.27,5.9,5.23,5.92,8.2s-1.93,5.92-5.83,8.17c-7.8,4.51-20.5,4.48-28.35-.05-3.89-2.25-5.86-5.18-5.92-8.11S130.2,223.87,134.14,221.59Z"/><path class="cls-9" d="M138.51,154.11c5.41-3.12,14.2-3.11,19.64,0,2.72,1.57,4.09,3.62,4.1,5.68s-1.33,4.1-4,5.66c-5.41,3.12-14.2,3.11-19.64,0-2.69-1.56-4.06-3.59-4.1-5.62S135.78,155.69,138.51,154.11Z"/><path class="cls-10" d="M134.47,159.83c0,2,1.4,4.06,4.1,5.62,5.44,3.14,14.23,3.16,19.64,0,2.7-1.56,4-3.61,4-5.66v70c0,2.05-1.33,4.1-4,5.66-5.41,3.12-14.2,3.11-19.64,0-2.69-1.56-4.06-3.59-4.1-5.62Z"/><path class="cls-11" d="M151.86,234a1,1,0,0,1-1-1V179.29a1,1,0,0,1,2,0V233A1,1,0,0,1,151.86,234Z"/><path class="cls-12" d="M157.86,232a1,1,0,0,1-1-1V177.29a1,1,0,0,1,2,0V231A1,1,0,0,1,157.86,232Z"/><path class="cls-13" d="M144.86,234a1,1,0,0,1-1-1V179.29a1,1,0,0,1,2,0V233A1,1,0,0,1,144.86,234Z"/><path class="cls-14" d="M138.86,232a1,1,0,0,1-1-1V177.29a1,1,0,0,1,2,0V231A1,1,0,0,1,138.86,232Z"/><path class="cls-15" d="M172.06,204.35c.05,2.93,2,5.86,5.92,8.11,7.85,4.53,20.55,4.56,28.35.05,3.9-2.25,5.84-5.21,5.83-8.17v6c0,3-1.93,5.92-5.83,8.17-7.8,4.51-20.5,4.48-28.35-.05-3.89-2.25-5.86-5.18-5.92-8.11Z"/><path class="cls-16" d="M177.89,196.09c7.8-4.51,20.5-4.48,28.35.05,3.93,2.27,5.9,5.23,5.92,8.2s-1.93,5.92-5.83,8.17c-7.8,4.51-20.5,4.48-28.35-.05-3.89-2.25-5.86-5.18-5.92-8.11S173.95,198.37,177.89,196.09Z"/><path class="cls-9" d="M182.26,128.61c5.41-3.12,14.2-3.11,19.64,0,2.72,1.57,4.09,3.62,4.1,5.68s-1.33,4.1-4,5.66c-5.41,3.12-14.2,3.11-19.64,0-2.69-1.56-4.06-3.59-4.1-5.62S179.53,130.19,182.26,128.61Z"/><path class="cls-17" d="M178.22,134.33c0,2,1.4,4.06,4.1,5.62,5.44,3.14,14.23,3.16,19.64,0,2.7-1.56,4-3.61,4-5.66v70c0,2.05-1.33,4.1-4,5.66-5.41,3.12-14.2,3.11-19.64,0-2.69-1.56-4.06-3.59-4.1-5.62Z"/><path class="cls-18" d="M195.61,208.54a1,1,0,0,1-1-1V153.79a1,1,0,0,1,2,0v53.75A1,1,0,0,1,195.61,208.54Z"/><path class="cls-19" d="M201.61,206.54a1,1,0,0,1-1-1V151.79a1,1,0,0,1,2,0v53.75A1,1,0,0,1,201.61,206.54Z"/><path class="cls-20" d="M188.61,208.54a1,1,0,0,1-1-1V153.79a1,1,0,0,1,2,0v53.75A1,1,0,0,1,188.61,208.54Z"/><path class="cls-21" d="M182.61,206.54a1,1,0,0,1-1-1V151.79a1,1,0,0,1,2,0v53.75A1,1,0,0,1,182.61,206.54Z"/><path class="cls-22" d="M216.06,178.85c.05,2.93,2,5.86,5.92,8.11,7.85,4.53,20.55,4.56,28.35.05,3.9-2.25,5.84-5.21,5.83-8.17v6c0,3-1.93,5.92-5.83,8.17-7.8,4.51-20.5,4.48-28.35-.05-3.89-2.25-5.86-5.18-5.92-8.11Z"/><path class="cls-23" d="M221.89,170.59c7.8-4.51,20.5-4.48,28.35.05,3.93,2.27,5.9,5.23,5.92,8.2s-1.93,5.92-5.83,8.17c-7.8,4.51-20.5,4.48-28.35-.05-3.89-2.25-5.86-5.18-5.92-8.11S217.95,172.87,221.89,170.59Z"/><path class="cls-9" d="M226.26,103.11c5.41-3.12,14.2-3.11,19.64,0,2.72,1.57,4.09,3.62,4.1,5.68s-1.33,4.1-4,5.66c-5.41,3.12-14.2,3.11-19.64,0-2.69-1.56-4.06-3.59-4.1-5.62S223.53,104.69,226.26,103.11Z"/><path class="cls-24" d="M222.22,108.83c0,2,1.4,4.06,4.1,5.62,5.44,3.14,14.23,3.16,19.64,0,2.7-1.56,4-3.61,4-5.66v70c0,2.05-1.33,4.1-4,5.66-5.41,3.12-14.2,3.11-19.64,0-2.69-1.56-4.06-3.59-4.1-5.62Z"/><path class="cls-25" d="M239.61,183a1,1,0,0,1-1-1V128.29a1,1,0,0,1,2,0V182A1,1,0,0,1,239.61,183Z"/><path class="cls-26" d="M245.61,181a1,1,0,0,1-1-1V126.29a1,1,0,0,1,2,0V180A1,1,0,0,1,245.61,181Z"/><path class="cls-27" d="M232.61,183a1,1,0,0,1-1-1V128.29a1,1,0,0,1,2,0V182A1,1,0,0,1,232.61,183Z"/><path class="cls-28" d="M226.61,181a1,1,0,0,1-1-1V126.29a1,1,0,0,1,2,0V180A1,1,0,0,1,226.61,181Z"/><path class="cls-29" d="M85.81,204.6c.05,2.93,2,5.86,5.92,8.11,7.85,4.53,20.55,4.56,28.35.05,3.9-2.25,5.84-5.21,5.83-8.17v6c0,3-1.93,5.92-5.83,8.17-7.8,4.51-20.5,4.48-28.35-.05-3.89-2.25-5.86-5.18-5.92-8.11Z"/><path class="cls-30" d="M91.64,196.34c7.8-4.51,20.5-4.48,28.35.05,3.93,2.27,5.9,5.23,5.92,8.2s-1.93,5.92-5.83,8.17c-7.8,4.51-20.5,4.48-28.35-.05-3.89-2.25-5.86-5.18-5.92-8.11S87.7,198.62,91.64,196.34Z"/><path class="cls-9" d="M96,128.86c5.41-3.12,14.2-3.11,19.64,0,2.72,1.57,4.09,3.62,4.1,5.68s-1.33,4.1-4,5.66c-5.41,3.12-14.2,3.11-19.64,0-2.69-1.56-4.06-3.59-4.1-5.62S93.28,130.44,96,128.86Z"/><path class="cls-31" d="M92,134.58c0,2,1.4,4.06,4.1,5.62,5.44,3.14,14.23,3.16,19.64,0,2.7-1.56,4-3.61,4-5.66v70c0,2.05-1.33,4.1-4,5.66-5.41,3.12-14.2,3.11-19.64,0-2.69-1.56-4.06-3.59-4.1-5.62Z"/><path class="cls-32" d="M109.36,208.79a1,1,0,0,1-1-1V154a1,1,0,0,1,2,0v53.75A1,1,0,0,1,109.36,208.79Z"/><path class="cls-33" d="M115.36,206.79a1,1,0,0,1-1-1V152a1,1,0,0,1,2,0v53.75A1,1,0,0,1,115.36,206.79Z"/><path class="cls-34" d="M102.36,208.79a1,1,0,0,1-1-1V154a1,1,0,0,1,2,0v53.75A1,1,0,0,1,102.36,208.79Z"/><path class="cls-35" d="M96.36,206.79a1,1,0,0,1-1-1V152a1,1,0,0,1,2,0v53.75A1,1,0,0,1,96.36,206.79Z"/><path class="cls-36" d="M41.81,179.6c.05,2.93,2,5.86,5.92,8.11,7.85,4.53,20.55,4.56,28.35.05,3.9-2.25,5.84-5.21,5.83-8.17v6c0,3-1.93,5.92-5.83,8.17-7.8,4.51-20.5,4.48-28.35-.05-3.89-2.25-5.86-5.18-5.92-8.11Z"/><path class="cls-37" d="M47.64,171.34c7.8-4.51,20.5-4.48,28.35.05,3.93,2.27,5.9,5.23,5.92,8.2s-1.93,5.92-5.83,8.17c-7.8,4.51-20.5,4.48-28.35-.05-3.89-2.25-5.86-5.18-5.92-8.11S43.7,173.62,47.64,171.34Z"/><path class="cls-9" d="M52,103.86c5.41-3.12,14.2-3.11,19.64,0,2.72,1.57,4.09,3.62,4.1,5.68s-1.33,4.1-4,5.66c-5.41,3.12-14.2,3.11-19.64,0-2.69-1.56-4.06-3.59-4.1-5.62S49.28,105.44,52,103.86Z"/><path class="cls-38" d="M48,109.58c0,2,1.4,4.06,4.1,5.62,5.44,3.14,14.23,3.16,19.64,0,2.7-1.56,4-3.61,4-5.66v70c0,2.05-1.33,4.1-4,5.66-5.41,3.12-14.2,3.11-19.64,0-2.69-1.56-4.06-3.59-4.1-5.62Z"/><path class="cls-39" d="M65.36,183.79a1,1,0,0,1-1-1V129a1,1,0,0,1,2,0v53.75A1,1,0,0,1,65.36,183.79Z"/><path class="cls-40" d="M71.36,181.79a1,1,0,0,1-1-1V127a1,1,0,0,1,2,0v53.75A1,1,0,0,1,71.36,181.79Z"/><path class="cls-41" d="M58.36,183.79a1,1,0,0,1-1-1V129a1,1,0,0,1,2,0v53.75A1,1,0,0,1,58.36,183.79Z"/><path class="cls-42" d="M52.36,181.79a1,1,0,0,1-1-1V127a1,1,0,0,1,2,0v53.75A1,1,0,0,1,52.36,181.79Z"/><polygon class="cls-43" points="133.31 177.54 212.27 69.83 291.22 86.37 291.22 100.61 133.31 191.78 133.31 177.54"/><polygon class="cls-44" points="12.36 107.71 91.32 0 212.27 69.83 133.31 177.54 12.36 107.71"/><polygon class="cls-45" points="12.36 121.95 12.36 107.71 133.31 177.54 133.31 191.78 12.36 121.95"/><polygon class="cls-46" points="170.27 16.54 291.22 86.37 212.27 69.83 91.32 0 170.27 16.54"/><polygon class="cls-47" points="149.85 170.57 212.27 85.42 274.69 98.5 149.85 170.57"/><polygon class="cls-48" points="158.74 158.44 149.85 170.57 274.69 98.5 265.79 96.63 158.74 158.44"/><path class="cls-49" d="M212.54,119.12a17.24,17.24,0,0,1-4.73,1.87,6.22,6.22,0,0,1-3.36-.24l2.54-5.92q1.81,1.51,5.55-.45v-3.1a28.15,28.15,0,0,1-3.81,1.16,3.55,3.55,0,0,1-2.64-.35q-1.12-.67-1.12-3a10.36,10.36,0,0,1,2-5.77,19.08,19.08,0,0,1,5.58-5.29V95.47l1.81-1V97a12.56,12.56,0,0,1,4.6-1.7,6.47,6.47,0,0,1,3.29.6l-2.73,5.61a3.19,3.19,0,0,0-2.23-.71,7.45,7.45,0,0,0-2.93.94V105a23.63,23.63,0,0,1,3.79-1.13,3.64,3.64,0,0,1,2.69.42q1.13.71,1.13,3.08a9.57,9.57,0,0,1-2.13,5.7,19.72,19.72,0,0,1-5.48,5v2.59l-1.81,1Zm0-16.23a6.45,6.45,0,0,0-1.3,1.28,2,2,0,0,0-.46,1.15.49.49,0,0,0,.43.55,3.31,3.31,0,0,0,1.33-.19ZM216.2,111q0-1-1.84-.38v2.66Q216.2,112,216.2,111Z"/><path class="cls-2" d="M362,331.35a14.91,14.91,0,0,1,13.49,0c1.87,1.08,2.81,2.49,2.82,3.9s-.92,2.82-2.77,3.89a14.91,14.91,0,0,1-13.49,0c-1.87-1.08-2.81-2.49-2.82-3.9S360.19,332.42,362,331.35Z"/><path class="cls-2" d="M426.94,311.4,405.18,324l41.35,23.87,21.77-12.57Z"/><path class="cls-2" d="M348.43,344.33a14.91,14.91,0,0,1,13.49,0c1.87,1.08,2.81,2.49,2.82,3.9s-.92,2.82-2.77,3.89a14.91,14.91,0,0,1-13.49,0c-1.87-1.08-2.81-2.49-2.82-3.9S346.57,345.4,348.43,344.33Z"/><path class="cls-2" d="M389.5,368l21.77,12.57,41.35-23.87-21.77-12.57Z"/><path class="cls-49" d="M348.43,339.4a14.91,14.91,0,0,1,13.49,0c1.87,1.08,2.81,2.49,2.82,3.9s-.92,2.82-2.77,3.89a14.91,14.91,0,0,1-13.49,0c-1.87-1.08-2.81-2.49-2.82-3.9S346.57,340.47,348.43,339.4Z"/><path class="cls-50" d="M345.65,346.52c0,1.41.95,2.82,2.82,3.9a14.91,14.91,0,0,0,13.49,0c1.86-1.07,2.78-2.48,2.77-3.89v-3.23c0,1.41-.92,2.82-2.77,3.89a14.91,14.91,0,0,1-13.49,0c-1.87-1.08-2.81-2.49-2.82-3.9Z"/><path d="M351.58,344.43a3.12,3.12,0,0,1-1-1,1.25,1.25,0,0,1-.14-1l1.62-.07a.76.76,0,0,0,0,.7,1.76,1.76,0,0,0,.59.7l1.34-.77a6,6,0,0,1-.77-.77.91.91,0,0,1-.23-.69c0-.24.23-.46.6-.68a3.19,3.19,0,0,1,1.73-.37,5.17,5.17,0,0,1,2.08.54l.79-.46.86.5-.79.46a2.57,2.57,0,0,1,.9.88,1.45,1.45,0,0,1,.13.92l-1.6.05a.9.9,0,0,0,0-.68,1.32,1.32,0,0,0-.51-.59l-1.38.8a5.4,5.4,0,0,1,.74.76.93.93,0,0,1,.21.7c0,.24-.24.47-.61.69a2.94,2.94,0,0,1-1.7.34,5.36,5.36,0,0,1-2-.55l-.79.46-.86-.5Zm3.12,0c.15-.09.22-.19.19-.3a1,1,0,0,0-.28-.41l-1.13.65A1.35,1.35,0,0,0,354.7,344.39Zm1.59-2.68a2,2,0,0,0-.72-.17,1.07,1.07,0,0,0-.58.13c-.15.08-.2.18-.17.3a1.07,1.07,0,0,0,.29.42Z"/><path class="cls-49" d="M362,327.27a14.91,14.91,0,0,1,13.49,0c1.87,1.08,2.81,2.49,2.82,3.9s-.92,2.82-2.77,3.89a14.91,14.91,0,0,1-13.49,0c-1.87-1.08-2.81-2.49-2.82-3.9S360.19,328.34,362,327.27Z"/><path class="cls-51" d="M359.27,334.39c0,1.41.95,2.82,2.82,3.9a14.91,14.91,0,0,0,13.49,0c1.86-1.07,2.78-2.48,2.77-3.89v-3.23c0,1.41-.92,2.82-2.77,3.89a14.91,14.91,0,0,1-13.49,0c-1.87-1.08-2.81-2.49-2.82-3.9Z"/><path d="M365.19,332.3a3.12,3.12,0,0,1-1-1,1.25,1.25,0,0,1-.14-1l1.62-.07a.76.76,0,0,0,0,.7,1.76,1.76,0,0,0,.59.7l1.34-.77a6,6,0,0,1-.77-.77.91.91,0,0,1-.23-.69c0-.24.23-.46.6-.68a3.19,3.19,0,0,1,1.73-.37A5.17,5.17,0,0,1,371,329l.79-.46.86.5-.79.46a2.57,2.57,0,0,1,.9.88,1.45,1.45,0,0,1,.13.92l-1.6.05a.9.9,0,0,0,0-.68,1.32,1.32,0,0,0-.51-.59l-1.38.8a5.4,5.4,0,0,1,.74.76.93.93,0,0,1,.21.7c0,.24-.24.47-.61.69a2.94,2.94,0,0,1-1.7.34,5.36,5.36,0,0,1-2-.55l-.79.46-.86-.5Zm3.12,0c.15-.09.22-.19.19-.3a1,1,0,0,0-.28-.41l-1.13.65A1.35,1.35,0,0,0,368.32,332.26Zm1.59-2.68a2,2,0,0,0-.72-.17,1.07,1.07,0,0,0-.58.13c-.15.08-.2.18-.17.3a1.07,1.07,0,0,0,.29.42Z"/><polygon class="cls-2" points="411.27 324.2 339.18 365.82 239.37 308.19 311.46 266.57 411.27 324.2"/><polygon class="cls-52" points="339.18 337.1 238.74 279.11 238.74 151.09 339.18 209.08 339.18 337.1"/><polygon class="cls-53" points="248.39 273.54 248.39 167.81 329.53 214.65 329.53 320.39 248.39 273.54"/><polygon class="cls-54" points="411.27 167.46 339.18 209.08 239.37 151.45 311.46 109.83 411.27 167.46"/><polygon class="cls-55" points="411.27 295.48 339.18 337.1 339.18 209.08 411.27 167.46 411.27 295.48"/><polygon class="cls-56" points="237.51 279.82 237.51 174.09 318.65 220.94 318.65 326.67 237.51 279.82"/><polygon class="cls-57" points="329.53 320.39 318.65 326.67 318.65 220.94 329.53 214.65 329.53 320.39"/><polygon class="cls-58" points="248.39 167.81 237.51 174.09 318.65 220.94 329.53 214.65 248.39 167.81"/><path class="cls-59" d="M325.47,230.49a8.77,8.77,0,0,1,7.94,0,2.81,2.81,0,0,1,1.66,2.29,2.76,2.76,0,0,1-1.63,2.29,8.77,8.77,0,0,1-7.94,0,2.81,2.81,0,0,1-1.66-2.29A2.76,2.76,0,0,1,325.47,230.49Z"/><path class="cls-60" d="M323.83,253.2a2.81,2.81,0,0,0,1.66,2.29,8.77,8.77,0,0,0,7.94,0,2.76,2.76,0,0,0,1.63-2.29V232.8a2.76,2.76,0,0,1-1.63,2.29,8.77,8.77,0,0,1-7.94,0,2.81,2.81,0,0,1-1.66-2.29Z"/><path class="cls-61" d="M325.47,285.81a8.77,8.77,0,0,1,7.94,0,2.81,2.81,0,0,1,1.66,2.29,2.76,2.76,0,0,1-1.63,2.29,8.77,8.77,0,0,1-7.94,0,2.81,2.81,0,0,1-1.66-2.29A2.76,2.76,0,0,1,325.47,285.81Z"/><path class="cls-62" d="M323.83,308.52a2.81,2.81,0,0,0,1.66,2.29,8.77,8.77,0,0,0,7.94,0,2.76,2.76,0,0,0,1.63-2.29V288.12a2.76,2.76,0,0,1-1.63,2.29,8.77,8.77,0,0,1-7.94,0,2.81,2.81,0,0,1-1.66-2.29Z"/><path class="cls-63" d="M255.88,241.51c0-4.91,1.73-8.35,4.53-9.94s6.67-1.35,10.95,1.12c8.55,4.94,15.48,16.89,15.48,26.7,0,4.88-1.72,8.32-4.5,9.92s-6.69,1.38-11-1.09C262.81,263.28,255.88,251.32,255.88,241.51Z"/><path class="cls-64" d="M291,264.33c2.78-1.61,4.5-5,4.5-9.92,0-9.81-6.93-21.77-15.48-26.7-4.27-2.47-8.14-2.71-10.95-1.12l-8.61,5c2.8-1.6,6.67-1.35,10.95,1.12,8.55,4.94,15.48,16.89,15.48,26.7,0,4.88-1.72,8.32-4.5,9.92Z"/><g class="cls-65"><line class="cls-66" x1="270.75" y1="223.21" x2="270.75" y2="279.33"/><line class="cls-66" x1="295.19" y1="265.38" x2="246.3" y2="237.16"/><line class="cls-66" x1="288.03" y1="241.41" x2="253.46" y2="261.13"/><line class="cls-66" x1="288.03" y1="281.09" x2="253.46" y2="221.45"/><line class="cls-66" x1="280.25" y1="230.91" x2="261.24" y2="271.63"/><line class="cls-66" x1="293.27" y1="275.18" x2="248.22" y2="227.36"/><line class="cls-66" x1="293.39" y1="253.78" x2="248.1" y2="248.76"/><line class="cls-66" x1="279.95" y1="282.58" x2="261.54" y2="219.96"/></g><path class="cls-67" d="M259.76,248.4c0-2.25.8-3.83,2.08-4.57s3.06-.62,5,.51A15.67,15.67,0,0,1,274,256.61c0,2.24-.79,3.82-2.07,4.56s-3.07.64-5-.5A15.67,15.67,0,0,1,259.76,248.4Z"/><path class="cls-68" d="M275.88,258.89c1.28-.74,2.07-2.32,2.07-4.56a15.67,15.67,0,0,0-7.11-12.27c-2-1.13-3.74-1.25-5-.51l-4,2.28c1.29-.73,3.06-.62,5,.51A15.67,15.67,0,0,1,274,256.61c0,2.24-.79,3.82-2.07,4.56Z"/><path class="cls-69" d="M468.3,329.31l-41.35-23.87L405.18,318v.86l41.35,23.87,21.77-12.57Z"/><polygon class="cls-49" points="446.51 339.3 463.84 329.3 426.96 308 409.63 318.01 446.51 339.3"/><path class="cls-70" d="M426.94,305.43,405.18,318l41.35,23.87,21.77-12.57Zm-4,4.92a15.89,15.89,0,0,0,8.15,0l28.71,16.57a3.47,3.47,0,0,0,0,4.71l-9.2,5.31a15.89,15.89,0,0,0-8.15,0l-28.71-16.57a3.47,3.47,0,0,0,0-4.71Z"/><path class="cls-70" d="M443.59,327.61c3.76-2.17,3.74-5.7,0-7.89a15.1,15.1,0,0,0-13.67,0c-3.76,2.17-3.74,5.7,0,7.89A15.1,15.1,0,0,0,443.59,327.61Z"/><path class="cls-69" d="M468.3,327.59l-41.35-23.87-21.77,12.57v.86L446.53,341l21.77-12.57Z"/><polygon class="cls-49" points="446.51 337.58 463.84 327.58 426.96 306.28 409.63 316.29 446.51 337.58"/><path class="cls-70" d="M426.94,303.71l-21.77,12.57,41.35,23.87,21.77-12.57Zm-4,4.92a15.89,15.89,0,0,0,8.15,0l28.71,16.57a3.47,3.47,0,0,0,0,4.71l-9.2,5.31a15.89,15.89,0,0,0-8.15,0l-28.71-16.57a3.47,3.47,0,0,0,0-4.71Z"/><path class="cls-70" d="M443.59,325.89c3.76-2.17,3.74-5.7,0-7.89a15.1,15.1,0,0,0-13.67,0c-3.76,2.17-3.74,5.7,0,7.89A15.1,15.1,0,0,0,443.59,325.89Z"/><path class="cls-69" d="M468.3,325.87,426.94,302l-21.77,12.57v.86l41.35,23.87,21.77-12.57Z"/><polygon class="cls-49" points="446.51 335.86 463.84 325.86 426.96 304.56 409.63 314.57 446.51 335.86"/><path class="cls-70" d="M426.94,302l-21.77,12.57,41.35,23.87,21.77-12.57Zm-4,4.92a15.89,15.89,0,0,0,8.15,0l28.71,16.57a3.47,3.47,0,0,0,0,4.71l-9.2,5.31a15.89,15.89,0,0,0-8.15,0l-28.71-16.57a3.47,3.47,0,0,0,0-4.71Z"/><path class="cls-70" d="M443.59,324.17c3.76-2.17,3.74-5.7,0-7.89a15.1,15.1,0,0,0-13.67,0c-3.76,2.17-3.74,5.7,0,7.89A15.1,15.1,0,0,0,443.59,324.17Z"/><path class="cls-69" d="M468.3,324.14l-41.35-23.87-21.77,12.57v.86l41.35,23.87L468.3,325Z"/><polygon class="cls-49" points="446.51 334.14 463.84 324.14 426.96 302.84 409.63 312.85 446.51 334.14"/><path class="cls-70" d="M426.94,300.27l-21.77,12.57,41.35,23.87,21.77-12.57Zm-4,4.92a15.89,15.89,0,0,0,8.15,0l28.71,16.57a3.47,3.47,0,0,0,0,4.71l-9.2,5.31a15.89,15.89,0,0,0-8.15,0l-28.71-16.57a3.47,3.47,0,0,0,0-4.71Z"/><path class="cls-70" d="M443.59,322.45c3.76-2.17,3.74-5.7,0-7.89a15.1,15.1,0,0,0-13.67,0c-3.76,2.17-3.74,5.7,0,7.89A15.1,15.1,0,0,0,443.59,322.45Z"/><path class="cls-69" d="M468.3,322.42l-41.35-23.87-21.77,12.57V312l41.35,23.87,21.77-12.57Z"/><polygon class="cls-49" points="446.51 332.42 463.84 322.42 426.96 301.12 409.63 311.13 446.51 332.42"/><path class="cls-70" d="M426.94,298.55l-21.77,12.57L446.53,335l21.77-12.57Zm-4,4.92a15.89,15.89,0,0,0,8.15,0l28.71,16.57a3.47,3.47,0,0,0,0,4.71l-9.2,5.31a15.89,15.89,0,0,0-8.15,0l-28.71-16.57a3.47,3.47,0,0,0,0-4.71Z"/><path class="cls-70" d="M443.59,320.73c3.76-2.17,3.74-5.7,0-7.89a15.1,15.1,0,0,0-13.67,0c-3.76,2.17-3.74,5.7,0,7.89A15.1,15.1,0,0,0,443.59,320.73Z"/><path class="cls-69" d="M468.3,320.7l-41.35-23.87L405.18,309.4v.86l41.35,23.87,21.77-12.57Z"/><polygon class="cls-49" points="446.51 330.7 463.84 320.7 426.96 299.4 409.63 309.41 446.51 330.7"/><path class="cls-70" d="M426.94,296.83,405.18,309.4l41.35,23.87L468.3,320.7Zm-4,4.92a15.89,15.89,0,0,0,8.15,0l28.71,16.57a3.47,3.47,0,0,0,0,4.71l-9.2,5.31a15.89,15.89,0,0,0-8.15,0l-28.71-16.57a3.47,3.47,0,0,0,0-4.71Z"/><path class="cls-70" d="M443.59,319c3.76-2.17,3.74-5.7,0-7.89a15.1,15.1,0,0,0-13.67,0c-3.76,2.17-3.74,5.7,0,7.89A15.1,15.1,0,0,0,443.59,319Z"/><path class="cls-71" d="M421.57,328.32v-9.46l8.57,4.95v9.46Z"/><path class="cls-72" d="M443.33,306.29l-21.77,12.57,8.57,4.95,21.77-12.57Z"/><path class="cls-73" d="M428.27,332.19v-9.46l1.87,1.08v9.46Z"/><path class="cls-73" d="M421.57,328.32v-9.46l1.87,1.08v9.46Z"/><path class="cls-73" d="M450,310.16l-21.77,12.57,1.87,1.08,21.77-12.57Z"/><path class="cls-73" d="M443.33,306.29l-21.77,12.57,1.87,1.08,21.77-12.57Z"/><path class="cls-69" d="M389.5,364.55l21.77,12.57,41.35-23.87v-.86l-21.77-12.57L389.5,363.69Z"/><polygon class="cls-49" points="411.29 373.69 393.96 363.69 430.84 342.39 448.17 352.39 411.29 373.69"/><path class="cls-70" d="M389.5,363.69l21.77,12.57,41.35-23.87-21.77-12.57ZM444.11,350a3.47,3.47,0,0,0,0,4.71l-28.71,16.57a15.89,15.89,0,0,0-8.15,0L398,366a3.47,3.47,0,0,0,0-4.71l28.71-16.57a15.89,15.89,0,0,0,8.15,0Z"/><path class="cls-70" d="M414.21,362c-3.76-2.17-3.74-5.7,0-7.89a15.1,15.1,0,0,1,13.67,0c3.76,2.17,3.74,5.7,0,7.89A15.1,15.1,0,0,1,414.21,362Z"/><polygon class="cls-74" points="381.35 257.72 389.88 246.63 365.99 214.2 376.28 246.48 367.7 263.27 380.5 276.92 362.58 308.06 372.77 317.5 396.43 303.84 385.62 292.28 399.27 274.79 381.35 257.72"/><path class="cls-2" d="M404.81,331.35a14.91,14.91,0,0,1,13.49,0c1.87,1.08,2.81,2.49,2.82,3.9s-.92,2.82-2.77,3.89a14.91,14.91,0,0,1-13.49,0c-1.87-1.08-2.81-2.49-2.82-3.9S403,332.42,404.81,331.35Z"/><path class="cls-2" d="M390.36,336.53a14.91,14.91,0,0,1,13.49,0c1.87,1.08,2.81,2.49,2.82,3.9s-.92,2.82-2.77,3.89a14.91,14.91,0,0,1-13.49,0c-1.87-1.08-2.81-2.49-2.82-3.9S388.5,337.6,390.36,336.53Z"/><g class="cls-75"><polygon class="cls-76" points="373.72 285.41 385.62 292.28 396.43 303.84 384.53 296.97 373.72 285.41"/><polygon class="cls-77" points="360.87 310.63 372.77 317.5 396.43 303.84 384.53 296.97 360.87 310.63"/><polygon class="cls-78" points="373.72 285.41 385.62 292.28 399.27 274.79 387.38 267.92 373.72 285.41"/><polygon class="cls-79" points="369.46 250.85 381.35 257.72 399.27 274.79 387.38 267.92 369.46 250.85"/><polygon class="cls-80" points="369.46 250.85 381.35 257.72 389.88 246.63 377.99 239.76 369.46 250.85"/><polygon class="cls-81" points="354.1 207.34 365.99 214.2 389.88 246.63 377.99 239.76 354.1 207.34"/></g><path class="cls-49" d="M404.81,326.42a14.91,14.91,0,0,1,13.49,0c1.87,1.08,2.81,2.49,2.82,3.9s-.92,2.82-2.77,3.89a14.91,14.91,0,0,1-13.49,0c-1.87-1.08-2.81-2.49-2.82-3.9S403,327.49,404.81,326.42Z"/><path class="cls-82" d="M402,333.54c0,1.41.95,2.82,2.82,3.9a14.91,14.91,0,0,0,13.49,0c1.86-1.07,2.78-2.48,2.77-3.89v-3.23c0,1.41-.92,2.82-2.77,3.89a14.91,14.91,0,0,1-13.49,0c-1.87-1.08-2.81-2.49-2.82-3.9Z"/><path d="M408,331.45a3.12,3.12,0,0,1-1-1,1.25,1.25,0,0,1-.14-1l1.62-.07a.76.76,0,0,0,0,.7,1.76,1.76,0,0,0,.59.7l1.34-.77a6,6,0,0,1-.77-.77.91.91,0,0,1-.23-.69c0-.24.23-.46.6-.68a3.19,3.19,0,0,1,1.73-.37,5.17,5.17,0,0,1,2.08.54l.79-.46.86.5-.79.46a2.57,2.57,0,0,1,.9.88,1.45,1.45,0,0,1,.13.92l-1.6.05a.9.9,0,0,0,0-.68,1.32,1.32,0,0,0-.51-.59l-1.38.8a5.4,5.4,0,0,1,.74.76.93.93,0,0,1,.21.7c0,.24-.24.47-.61.69a2.94,2.94,0,0,1-1.7.34,5.36,5.36,0,0,1-2-.55l-.79.46-.86-.5Zm3.12,0c.15-.09.22-.19.19-.3a1,1,0,0,0-.28-.41l-1.13.65A1.35,1.35,0,0,0,411.09,331.41Zm1.59-2.68a2,2,0,0,0-.72-.17,1.07,1.07,0,0,0-.58.13c-.15.08-.2.18-.17.3a1.07,1.07,0,0,0,.29.42Z"/><path class="cls-49" d="M403.11,322.16a14.91,14.91,0,0,1,13.49,0c1.87,1.08,2.81,2.49,2.82,3.9s-.92,2.82-2.77,3.89a14.91,14.91,0,0,1-13.49,0c-1.87-1.08-2.81-2.49-2.82-3.9S401.25,323.23,403.11,322.16Z"/><path class="cls-83" d="M400.34,329.28c0,1.41.95,2.82,2.82,3.9a14.91,14.91,0,0,0,13.49,0c1.86-1.07,2.78-2.48,2.77-3.89v-3.23c0,1.41-.92,2.82-2.77,3.89a14.91,14.91,0,0,1-13.49,0c-1.87-1.08-2.81-2.49-2.82-3.9Z"/><path d="M406.26,327.2a3.12,3.12,0,0,1-1-1,1.25,1.25,0,0,1-.14-1l1.62-.07a.76.76,0,0,0,0,.7,1.76,1.76,0,0,0,.59.7l1.34-.77a6,6,0,0,1-.77-.77.91.91,0,0,1-.23-.69c0-.24.23-.46.6-.68a3.19,3.19,0,0,1,1.73-.37,5.17,5.17,0,0,1,2.08.54l.79-.46.86.5-.79.46a2.57,2.57,0,0,1,.9.88,1.45,1.45,0,0,1,.13.92l-1.6.05a.9.9,0,0,0,0-.68,1.32,1.32,0,0,0-.51-.59l-1.38.8a5.4,5.4,0,0,1,.74.76.93.93,0,0,1,.21.7c0,.24-.24.47-.61.69a2.94,2.94,0,0,1-1.7.34,5.36,5.36,0,0,1-2-.55l-.79.46-.86-.5Zm3.12,0c.15-.09.22-.19.19-.3a1,1,0,0,0-.28-.41l-1.13.65A1.35,1.35,0,0,0,409.38,327.15Zm1.59-2.68a2,2,0,0,0-.72-.17,1.07,1.07,0,0,0-.58.13c-.15.08-.2.18-.17.3a1.07,1.07,0,0,0,.29.42Z"/><path class="cls-49" d="M405.66,317.9a14.91,14.91,0,0,1,13.49,0c1.87,1.08,2.81,2.49,2.82,3.9s-.92,2.82-2.77,3.89a14.91,14.91,0,0,1-13.49,0c-1.87-1.08-2.81-2.49-2.82-3.9S403.81,319,405.66,317.9Z"/><path class="cls-84" d="M402.89,325c0,1.41.95,2.82,2.82,3.9a14.91,14.91,0,0,0,13.49,0c1.86-1.07,2.78-2.48,2.77-3.89v-3.23c0,1.41-.92,2.82-2.77,3.89a14.91,14.91,0,0,1-13.49,0c-1.87-1.08-2.81-2.49-2.82-3.9Z"/><path d="M408.81,322.94a3.12,3.12,0,0,1-1-1,1.25,1.25,0,0,1-.14-1l1.62-.07a.76.76,0,0,0,0,.7,1.76,1.76,0,0,0,.59.7l1.34-.77a6,6,0,0,1-.77-.77.91.91,0,0,1-.23-.69c0-.24.23-.46.6-.68a3.19,3.19,0,0,1,1.73-.37,5.17,5.17,0,0,1,2.08.54l.79-.46.86.5-.79.46a2.57,2.57,0,0,1,.9.88,1.45,1.45,0,0,1,.13.92l-1.6.05a.9.9,0,0,0,0-.68,1.32,1.32,0,0,0-.51-.59l-1.38.8a5.4,5.4,0,0,1,.74.76.93.93,0,0,1,.21.7c0,.24-.24.47-.61.69a2.94,2.94,0,0,1-1.7.34,5.36,5.36,0,0,1-2-.55l-.79.46-.86-.5Zm3.12,0c.15-.09.22-.19.19-.3a1,1,0,0,0-.28-.41l-1.13.65A1.35,1.35,0,0,0,411.94,322.9Zm1.59-2.68a2,2,0,0,0-.72-.17,1.07,1.07,0,0,0-.58.13c-.15.08-.2.18-.17.3a1.07,1.07,0,0,0,.29.42Z"/><path class="cls-49" d="M404,312.8a14.91,14.91,0,0,1,13.49,0c1.87,1.08,2.81,2.49,2.82,3.9s-.92,2.82-2.77,3.89a14.91,14.91,0,0,1-13.49,0c-1.87-1.08-2.81-2.49-2.82-3.9S402.1,313.87,404,312.8Z"/><path class="cls-85" d="M401.19,319.92c0,1.41.95,2.82,2.82,3.9a14.91,14.91,0,0,0,13.49,0c1.86-1.07,2.78-2.48,2.77-3.89v-3.23c0,1.41-.92,2.82-2.77,3.89a14.91,14.91,0,0,1-13.49,0c-1.87-1.08-2.81-2.49-2.82-3.9Z"/><path d="M407.11,317.83a3.12,3.12,0,0,1-1-1,1.25,1.25,0,0,1-.14-1l1.62-.07a.76.76,0,0,0,0,.7,1.76,1.76,0,0,0,.59.7l1.34-.77a6,6,0,0,1-.77-.77.91.91,0,0,1-.23-.69c0-.24.23-.46.6-.68a3.19,3.19,0,0,1,1.73-.37,5.17,5.17,0,0,1,2.08.54l.79-.46.86.5-.79.46a2.57,2.57,0,0,1,.9.88,1.45,1.45,0,0,1,.13.92l-1.6.05a.9.9,0,0,0,0-.68,1.32,1.32,0,0,0-.51-.59l-1.38.8a5.4,5.4,0,0,1,.74.76.93.93,0,0,1,.21.7c0,.24-.24.47-.61.69a2.94,2.94,0,0,1-1.7.34,5.36,5.36,0,0,1-2-.55l-.79.46-.86-.5Zm3.12,0c.15-.09.22-.19.19-.3a1,1,0,0,0-.28-.41l-1.13.65A1.35,1.35,0,0,0,410.23,317.79Zm1.59-2.68a2,2,0,0,0-.72-.17,1.07,1.07,0,0,0-.58.13c-.15.08-.2.18-.17.3a1.07,1.07,0,0,0,.29.42Z"/><path class="cls-49" d="M405.66,308.54a14.91,14.91,0,0,1,13.49,0c1.87,1.08,2.81,2.49,2.82,3.9s-.92,2.82-2.77,3.89a14.91,14.91,0,0,1-13.49,0c-1.87-1.08-2.81-2.49-2.82-3.9S403.81,309.61,405.66,308.54Z"/><path class="cls-86" d="M402.89,315.67c0,1.41.95,2.82,2.82,3.9a14.91,14.91,0,0,0,13.49,0c1.86-1.07,2.78-2.48,2.77-3.89v-3.23c0,1.41-.92,2.82-2.77,3.89a14.91,14.91,0,0,1-13.49,0c-1.87-1.08-2.81-2.49-2.82-3.9Z"/><path d="M408.81,313.58a3.12,3.12,0,0,1-1-1,1.25,1.25,0,0,1-.14-1l1.62-.07a.76.76,0,0,0,0,.7,1.76,1.76,0,0,0,.59.7l1.34-.77a6,6,0,0,1-.77-.77.91.91,0,0,1-.23-.69c0-.24.23-.46.6-.68a3.19,3.19,0,0,1,1.73-.37,5.17,5.17,0,0,1,2.08.54l.79-.46.86.5-.79.46a2.57,2.57,0,0,1,.9.88,1.45,1.45,0,0,1,.13.92l-1.6.05a.9.9,0,0,0,0-.68,1.32,1.32,0,0,0-.51-.59l-1.38.8a5.4,5.4,0,0,1,.74.76.93.93,0,0,1,.21.7c0,.24-.24.47-.61.69a2.94,2.94,0,0,1-1.7.34,5.36,5.36,0,0,1-2-.55l-.79.46L408,314Zm3.12,0c.15-.09.22-.19.19-.3a1,1,0,0,0-.28-.41l-1.13.65A1.35,1.35,0,0,0,411.94,313.53Zm1.59-2.68a2,2,0,0,0-.72-.17,1.07,1.07,0,0,0-.58.13c-.15.08-.2.18-.17.3a1.07,1.07,0,0,0,.29.42Z"/><path class="cls-49" d="M403.11,303.44a14.91,14.91,0,0,1,13.49,0c1.87,1.08,2.81,2.49,2.82,3.9s-.92,2.82-2.77,3.89a14.91,14.91,0,0,1-13.49,0c-1.87-1.08-2.81-2.49-2.82-3.9S401.25,304.51,403.11,303.44Z"/><path class="cls-87" d="M400.34,310.56c0,1.41.95,2.82,2.82,3.9a14.91,14.91,0,0,0,13.49,0c1.86-1.07,2.78-2.48,2.77-3.89v-3.23c0,1.41-.92,2.82-2.77,3.89a14.91,14.91,0,0,1-13.49,0c-1.87-1.08-2.81-2.49-2.82-3.9Z"/><path d="M406.26,308.47a3.12,3.12,0,0,1-1-1,1.25,1.25,0,0,1-.14-1l1.62-.07a.76.76,0,0,0,0,.7,1.76,1.76,0,0,0,.59.7l1.34-.77a6,6,0,0,1-.77-.77.91.91,0,0,1-.23-.69c0-.24.23-.46.6-.68a3.19,3.19,0,0,1,1.73-.37,5.17,5.17,0,0,1,2.08.54l.79-.46.86.5-.79.46a2.57,2.57,0,0,1,.9.88,1.45,1.45,0,0,1,.13.92l-1.6.05a.9.9,0,0,0,0-.68,1.32,1.32,0,0,0-.51-.59l-1.38.8a5.4,5.4,0,0,1,.74.76.93.93,0,0,1,.21.7c0,.24-.24.47-.61.69a2.94,2.94,0,0,1-1.7.34,5.36,5.36,0,0,1-2-.55l-.79.46-.86-.5Zm3.12,0c.15-.09.22-.19.19-.3a1,1,0,0,0-.28-.41l-1.13.65A1.35,1.35,0,0,0,409.38,308.43Zm1.59-2.68a2,2,0,0,0-.72-.17,1.07,1.07,0,0,0-.58.13c-.15.08-.2.18-.17.3a1.07,1.07,0,0,0,.29.42Z"/><path class="cls-49" d="M398.85,299.18a14.91,14.91,0,0,1,13.49,0c1.87,1.08,2.81,2.49,2.82,3.9s-.92,2.82-2.77,3.89a14.91,14.91,0,0,1-13.49,0c-1.87-1.08-2.81-2.49-2.82-3.9S397,300.25,398.85,299.18Z"/><path class="cls-88" d="M396.08,306.3c0,1.41.95,2.82,2.82,3.9a14.91,14.91,0,0,0,13.49,0c1.86-1.07,2.78-2.48,2.77-3.89V303.1c0,1.41-.92,2.82-2.77,3.89a14.91,14.91,0,0,1-13.49,0c-1.87-1.08-2.81-2.49-2.82-3.9Z"/><path d="M402,304.22a3.12,3.12,0,0,1-1-1,1.25,1.25,0,0,1-.14-1l1.62-.07a.76.76,0,0,0,0,.7,1.76,1.76,0,0,0,.59.7l1.34-.77a6,6,0,0,1-.77-.77.91.91,0,0,1-.23-.69c0-.24.23-.46.6-.68a3.19,3.19,0,0,1,1.73-.37,5.17,5.17,0,0,1,2.08.54l.79-.46.86.5-.79.46a2.57,2.57,0,0,1,.9.88,1.45,1.45,0,0,1,.13.92l-1.6.05a.9.9,0,0,0,0-.68,1.32,1.32,0,0,0-.51-.59l-1.38.8a5.4,5.4,0,0,1,.74.76.93.93,0,0,1,.21.7c0,.24-.24.47-.61.69a2.94,2.94,0,0,1-1.7.34,5.36,5.36,0,0,1-2-.55l-.79.46-.86-.5Zm3.12,0c.15-.09.22-.19.19-.3a1,1,0,0,0-.28-.41l-1.13.65A1.35,1.35,0,0,0,405.13,304.17Zm1.59-2.68a2,2,0,0,0-.72-.17,1.07,1.07,0,0,0-.58.13c-.15.08-.2.18-.17.3a1.07,1.07,0,0,0,.29.42Z"/><path class="cls-49" d="M389.92,332.16a14.91,14.91,0,0,1,13.49,0c1.87,1.08,2.81,2.49,2.82,3.9s-.92,2.82-2.77,3.89a14.91,14.91,0,0,1-13.49,0c-1.87-1.08-2.81-2.49-2.82-3.9S388.06,333.23,389.92,332.16Z"/><path class="cls-89" d="M387.14,339.28c0,1.41.95,2.82,2.82,3.9a14.91,14.91,0,0,0,13.49,0c1.86-1.07,2.78-2.48,2.77-3.89v-3.23c0,1.41-.92,2.82-2.77,3.89a14.91,14.91,0,0,1-13.49,0c-1.87-1.08-2.81-2.49-2.82-3.9Z"/><path d="M393.07,337.2a3.12,3.12,0,0,1-1-1,1.25,1.25,0,0,1-.14-1l1.62-.07a.76.76,0,0,0,0,.7,1.76,1.76,0,0,0,.59.7l1.34-.77a6,6,0,0,1-.77-.77.91.91,0,0,1-.23-.69c0-.24.23-.46.6-.68a3.19,3.19,0,0,1,1.73-.37,5.17,5.17,0,0,1,2.08.54l.79-.46.86.5-.79.46a2.57,2.57,0,0,1,.9.88,1.45,1.45,0,0,1,.13.92l-1.6.05a.9.9,0,0,0,0-.68,1.32,1.32,0,0,0-.51-.59l-1.38.8a5.4,5.4,0,0,1,.74.76.93.93,0,0,1,.21.7c0,.24-.24.47-.61.69a2.94,2.94,0,0,1-1.7.34,5.36,5.36,0,0,1-2-.55l-.79.46-.86-.5Zm3.12,0c.15-.09.22-.19.19-.3a1,1,0,0,0-.28-.41l-1.13.65A1.35,1.35,0,0,0,396.19,337.15Zm1.59-2.68a2,2,0,0,0-.72-.17,1.07,1.07,0,0,0-.58.13c-.15.08-.2.18-.17.3a1.07,1.07,0,0,0,.29.42Z"/><path class="cls-49" d="M389.07,327.91a14.91,14.91,0,0,1,13.49,0c1.87,1.08,2.81,2.49,2.82,3.9s-.92,2.82-2.77,3.89a14.91,14.91,0,0,1-13.49,0c-1.87-1.08-2.81-2.49-2.82-3.9S387.21,329,389.07,327.91Z"/><path class="cls-90" d="M386.29,335c0,1.41.95,2.82,2.82,3.9a14.91,14.91,0,0,0,13.49,0c1.86-1.07,2.78-2.48,2.77-3.89v-3.23c0,1.41-.92,2.82-2.77,3.89a14.91,14.91,0,0,1-13.49,0c-1.87-1.08-2.81-2.49-2.82-3.9Z"/><path d="M392.22,332.94a3.12,3.12,0,0,1-1-1,1.25,1.25,0,0,1-.14-1l1.62-.07a.76.76,0,0,0,0,.7,1.76,1.76,0,0,0,.59.7l1.34-.77a6,6,0,0,1-.77-.77.91.91,0,0,1-.23-.69c0-.24.23-.46.6-.68a3.19,3.19,0,0,1,1.73-.37,5.17,5.17,0,0,1,2.08.54l.79-.46.86.5-.79.46a2.57,2.57,0,0,1,.9.88,1.45,1.45,0,0,1,.13.92l-1.6.05a.9.9,0,0,0,0-.68,1.32,1.32,0,0,0-.51-.59l-1.38.8a5.4,5.4,0,0,1,.74.76.93.93,0,0,1,.21.7c0,.24-.24.47-.61.69a2.94,2.94,0,0,1-1.7.34,5.36,5.36,0,0,1-2-.55l-.79.46-.86-.5Zm3.12,0c.15-.09.22-.19.19-.3a1,1,0,0,0-.28-.41l-1.13.65A1.35,1.35,0,0,0,395.34,332.9Zm1.59-2.68a2,2,0,0,0-.72-.17,1.07,1.07,0,0,0-.58.13c-.15.08-.2.18-.17.3a1.07,1.07,0,0,0,.29.42Z"/><path class="cls-49" d="M391.62,323.65a14.91,14.91,0,0,1,13.49,0c1.87,1.08,2.81,2.49,2.82,3.9s-.92,2.82-2.77,3.89a14.91,14.91,0,0,1-13.49,0c-1.87-1.08-2.81-2.49-2.82-3.9S389.76,324.72,391.62,323.65Z"/><path class="cls-91" d="M388.85,330.77c0,1.41.95,2.82,2.82,3.9a14.91,14.91,0,0,0,13.49,0c1.86-1.07,2.78-2.48,2.77-3.89v-3.23c0,1.41-.92,2.82-2.77,3.89a14.91,14.91,0,0,1-13.49,0c-1.87-1.08-2.81-2.49-2.82-3.9Z"/><path d="M394.77,328.69a3.12,3.12,0,0,1-1-1,1.25,1.25,0,0,1-.14-1l1.62-.07a.76.76,0,0,0,0,.7,1.76,1.76,0,0,0,.59.7l1.34-.77a6,6,0,0,1-.77-.77.91.91,0,0,1-.23-.69c0-.24.23-.46.6-.68a3.19,3.19,0,0,1,1.73-.37,5.17,5.17,0,0,1,2.08.54l.79-.46.86.5-.79.46a2.57,2.57,0,0,1,.9.88,1.45,1.45,0,0,1,.13.92l-1.6.05a.9.9,0,0,0,0-.68,1.32,1.32,0,0,0-.51-.59l-1.38.8a5.4,5.4,0,0,1,.74.76.93.93,0,0,1,.21.7c0,.24-.24.47-.61.69a2.94,2.94,0,0,1-1.7.34,5.36,5.36,0,0,1-2-.55l-.79.46-.86-.5Zm3.12,0c.15-.09.22-.19.19-.3a1,1,0,0,0-.28-.41l-1.13.65A1.35,1.35,0,0,0,397.89,328.64Zm1.59-2.68a2,2,0,0,0-.72-.17,1.07,1.07,0,0,0-.58.13c-.15.08-.2.18-.17.3a1.07,1.07,0,0,0,.29.42Z"/><path class="cls-49" d="M387.36,318.54a14.91,14.91,0,0,1,13.49,0c1.87,1.08,2.81,2.49,2.82,3.9s-.92,2.82-2.77,3.89a14.91,14.91,0,0,1-13.49,0c-1.87-1.08-2.81-2.49-2.82-3.9S385.51,319.62,387.36,318.54Z"/><path class="cls-92" d="M384.59,325.67c0,1.41.95,2.82,2.82,3.9a14.91,14.91,0,0,0,13.49,0c1.86-1.07,2.78-2.48,2.77-3.89v-3.23c0,1.41-.92,2.82-2.77,3.89a14.91,14.91,0,0,1-13.49,0c-1.87-1.08-2.81-2.49-2.82-3.9Z"/><path d="M390.52,323.58a3.12,3.12,0,0,1-1-1,1.25,1.25,0,0,1-.14-1l1.62-.07a.76.76,0,0,0,0,.7,1.76,1.76,0,0,0,.59.7l1.34-.77a6,6,0,0,1-.77-.77.91.91,0,0,1-.23-.69c0-.24.23-.46.6-.68a3.19,3.19,0,0,1,1.73-.37,5.17,5.17,0,0,1,2.08.54l.79-.46.86.5-.79.46a2.57,2.57,0,0,1,.9.88,1.45,1.45,0,0,1,.13.92l-1.6.05a.9.9,0,0,0,0-.68,1.32,1.32,0,0,0-.51-.59l-1.38.8a5.4,5.4,0,0,1,.74.76.93.93,0,0,1,.21.7c0,.24-.24.47-.61.69a2.94,2.94,0,0,1-1.7.34,5.36,5.36,0,0,1-2-.55l-.79.46-.86-.5Zm3.12,0c.15-.09.22-.19.19-.3a1,1,0,0,0-.28-.41l-1.13.65A1.35,1.35,0,0,0,393.64,323.53Zm1.59-2.68a2,2,0,0,0-.72-.17,1.07,1.07,0,0,0-.58.13c-.15.08-.2.18-.17.3a1.07,1.07,0,0,0,.29.42Z"/><path class="cls-49" d="M384,314.29a14.91,14.91,0,0,1,13.49,0c1.87,1.08,2.81,2.49,2.82,3.9s-.92,2.82-2.77,3.89a14.91,14.91,0,0,1-13.49,0c-1.87-1.08-2.81-2.49-2.82-3.9S382.1,315.36,384,314.29Z"/><path class="cls-93" d="M381.19,321.41c0,1.41.95,2.82,2.82,3.9a14.91,14.91,0,0,0,13.49,0c1.86-1.07,2.78-2.48,2.77-3.89v-3.23c0,1.41-.92,2.82-2.77,3.89a14.91,14.91,0,0,1-13.49,0c-1.87-1.08-2.81-2.49-2.82-3.9Z"/><path d="M387.11,319.32a3.12,3.12,0,0,1-1-1,1.25,1.25,0,0,1-.14-1l1.62-.07a.76.76,0,0,0,0,.7,1.76,1.76,0,0,0,.59.7l1.34-.77a6,6,0,0,1-.77-.77.91.91,0,0,1-.23-.69c0-.24.23-.46.6-.68a3.19,3.19,0,0,1,1.73-.37,5.17,5.17,0,0,1,2.08.54l.79-.46.86.5-.79.46a2.57,2.57,0,0,1,.9.88,1.45,1.45,0,0,1,.13.92l-1.6.05a.9.9,0,0,0,0-.68,1.32,1.32,0,0,0-.51-.59l-1.38.8a5.4,5.4,0,0,1,.74.76.93.93,0,0,1,.21.7c0,.24-.24.47-.61.69a2.94,2.94,0,0,1-1.7.34,5.36,5.36,0,0,1-2-.55l-.79.46-.86-.5Zm3.12,0c.15-.09.22-.19.19-.3a1,1,0,0,0-.28-.41l-1.13.65A1.35,1.35,0,0,0,390.23,319.28Zm1.59-2.68a2,2,0,0,0-.72-.17,1.07,1.07,0,0,0-.58.13c-.15.08-.2.18-.17.3a1.07,1.07,0,0,0,.29.42Z"/><path class="cls-49" d="M386.51,309.18a14.91,14.91,0,0,1,13.49,0c1.87,1.08,2.81,2.49,2.82,3.9s-.92,2.82-2.77,3.89a14.91,14.91,0,0,1-13.49,0c-1.87-1.08-2.81-2.49-2.82-3.9S384.66,310.25,386.51,309.18Z"/><path class="cls-94" d="M383.74,316.3c0,1.41.95,2.82,2.82,3.9a14.91,14.91,0,0,0,13.49,0c1.86-1.07,2.78-2.48,2.77-3.89V313.1c0,1.41-.92,2.82-2.77,3.89a14.91,14.91,0,0,1-13.49,0c-1.87-1.08-2.81-2.49-2.82-3.9Z"/><path d="M389.66,314.22a3.12,3.12,0,0,1-1-1,1.25,1.25,0,0,1-.14-1l1.62-.07a.76.76,0,0,0,0,.7,1.76,1.76,0,0,0,.59.7l1.34-.77a6,6,0,0,1-.77-.77.91.91,0,0,1-.23-.69c0-.24.23-.46.6-.68a3.19,3.19,0,0,1,1.73-.37,5.17,5.17,0,0,1,2.08.54l.79-.46.86.5-.79.46a2.57,2.57,0,0,1,.9.88,1.45,1.45,0,0,1,.13.92l-1.6.05a.9.9,0,0,0,0-.68,1.32,1.32,0,0,0-.51-.59l-1.38.8a5.4,5.4,0,0,1,.74.76.93.93,0,0,1,.21.7c0,.24-.24.47-.61.69a2.94,2.94,0,0,1-1.7.34,5.36,5.36,0,0,1-2-.55l-.79.46-.86-.5Zm3.12,0c.15-.09.22-.19.19-.3a1,1,0,0,0-.28-.41l-1.13.65A1.35,1.35,0,0,0,392.79,314.17Zm1.59-2.68a2,2,0,0,0-.72-.17,1.07,1.07,0,0,0-.58.13c-.15.08-.2.18-.17.3a1.07,1.07,0,0,0,.29.42Z"/><path class="cls-49" d="M381.41,304.07a14.91,14.91,0,0,1,13.49,0c1.87,1.08,2.81,2.49,2.82,3.9s-.92,2.82-2.77,3.89a14.91,14.91,0,0,1-13.49,0c-1.87-1.08-2.81-2.49-2.82-3.9S379.55,305.15,381.41,304.07Z"/><path class="cls-95" d="M378.63,311.2c0,1.41.95,2.82,2.82,3.9a14.91,14.91,0,0,0,13.49,0c1.86-1.07,2.78-2.48,2.77-3.89V308c0,1.41-.92,2.82-2.77,3.89a14.91,14.91,0,0,1-13.49,0c-1.87-1.08-2.81-2.49-2.82-3.9Z"/><path d="M384.56,309.11a3.12,3.12,0,0,1-1-1,1.25,1.25,0,0,1-.14-1l1.62-.07a.76.76,0,0,0,0,.7,1.76,1.76,0,0,0,.59.7l1.34-.77a6,6,0,0,1-.77-.77.91.91,0,0,1-.23-.69c0-.24.23-.46.6-.68a3.19,3.19,0,0,1,1.73-.37,5.17,5.17,0,0,1,2.08.54l.79-.46.86.5-.79.46a2.57,2.57,0,0,1,.9.88,1.45,1.45,0,0,1,.13.92l-1.6.05a.9.9,0,0,0,0-.68,1.32,1.32,0,0,0-.51-.59l-1.38.8a5.4,5.4,0,0,1,.74.76.93.93,0,0,1,.21.7c0,.24-.24.47-.61.69a2.94,2.94,0,0,1-1.7.34,5.36,5.36,0,0,1-2-.55l-.79.46-.86-.5Zm3.12,0c.15-.09.22-.19.19-.3a1,1,0,0,0-.28-.41l-1.13.65A1.35,1.35,0,0,0,387.68,309.07Zm1.59-2.68a2,2,0,0,0-.72-.17,1.07,1.07,0,0,0-.58.13c-.15.08-.2.18-.17.3a1.07,1.07,0,0,0,.29.42Z"/><path class="cls-49" d="M377.15,299a14.91,14.91,0,0,1,13.49,0c1.87,1.08,2.81,2.49,2.82,3.9s-.92,2.82-2.77,3.89a14.91,14.91,0,0,1-13.49,0c-1.87-1.08-2.81-2.49-2.82-3.9S375.29,300,377.15,299Z"/><path class="cls-96" d="M374.38,306.09c0,1.41.95,2.82,2.82,3.9a14.91,14.91,0,0,0,13.49,0c1.86-1.07,2.78-2.48,2.77-3.89v-3.23c0,1.41-.92,2.82-2.77,3.89a14.91,14.91,0,0,1-13.49,0c-1.87-1.08-2.81-2.49-2.82-3.9Z"/><path d="M380.3,304a3.12,3.12,0,0,1-1-1,1.25,1.25,0,0,1-.14-1l1.62-.07a.76.76,0,0,0,0,.7,1.76,1.76,0,0,0,.59.7l1.34-.77a6,6,0,0,1-.77-.77.91.91,0,0,1-.23-.69c0-.24.23-.46.6-.68a3.19,3.19,0,0,1,1.73-.37,5.17,5.17,0,0,1,2.08.54l.79-.46.86.5-.79.46a2.57,2.57,0,0,1,.9.88,1.45,1.45,0,0,1,.13.92l-1.6.05a.9.9,0,0,0,0-.68,1.32,1.32,0,0,0-.51-.59l-1.38.8a5.4,5.4,0,0,1,.74.76.93.93,0,0,1,.21.7c0,.24-.24.47-.61.69a2.94,2.94,0,0,1-1.7.34,5.36,5.36,0,0,1-2-.55l-.79.46-.86-.5Zm3.12,0c.15-.09.22-.19.19-.3a1,1,0,0,0-.28-.41l-1.13.65A1.35,1.35,0,0,0,383.42,304Zm1.59-2.68a2,2,0,0,0-.72-.17,1.07,1.07,0,0,0-.58.13c-.15.08-.2.18-.17.3a1.07,1.07,0,0,0,.29.42Z"/><path class="cls-49" d="M379.28,345.57a14.91,14.91,0,0,1,13.49,0c1.87,1.08,2.81,2.49,2.82,3.9s-.92,2.82-2.77,3.89a14.91,14.91,0,0,1-13.49,0c-1.87-1.08-2.81-2.49-2.82-3.9S377.42,346.64,379.28,345.57Z"/><path class="cls-97" d="M376.51,352.69c0,1.41.95,2.82,2.82,3.9a14.91,14.91,0,0,0,13.49,0c1.86-1.07,2.78-2.48,2.77-3.89v-3.23c0,1.41-.92,2.82-2.77,3.89a14.91,14.91,0,0,1-13.49,0c-1.87-1.08-2.81-2.49-2.82-3.9Z"/><path d="M382.43,350.6a3.12,3.12,0,0,1-1-1,1.25,1.25,0,0,1-.14-1l1.62-.07a.76.76,0,0,0,0,.7,1.76,1.76,0,0,0,.59.7l1.34-.77a6,6,0,0,1-.77-.77.91.91,0,0,1-.23-.69c0-.24.23-.46.6-.68a3.19,3.19,0,0,1,1.73-.37,5.17,5.17,0,0,1,2.08.54l.79-.46.86.5-.79.46a2.57,2.57,0,0,1,.9.88,1.45,1.45,0,0,1,.13.92l-1.6.05a.9.9,0,0,0,0-.68,1.32,1.32,0,0,0-.51-.59l-1.38.8a5.4,5.4,0,0,1,.74.76.93.93,0,0,1,.21.7c0,.24-.24.47-.61.69a2.94,2.94,0,0,1-1.7.34,5.36,5.36,0,0,1-2-.55l-.79.46-.86-.5Zm3.12,0c.15-.09.22-.19.19-.3a1,1,0,0,0-.28-.41l-1.13.65A1.35,1.35,0,0,0,385.55,350.56Zm1.59-2.68a2,2,0,0,0-.72-.17,1.07,1.07,0,0,0-.58.13c-.15.08-.2.18-.17.3a1.07,1.07,0,0,0,.29.42Z"/><path class="cls-49" d="M377.58,340.46a14.91,14.91,0,0,1,13.49,0c1.87,1.08,2.81,2.49,2.82,3.9s-.92,2.82-2.77,3.89a14.91,14.91,0,0,1-13.49,0c-1.87-1.08-2.81-2.49-2.82-3.9S375.72,341.53,377.58,340.46Z"/><path class="cls-98" d="M374.8,347.58c0,1.41.95,2.82,2.82,3.9a14.91,14.91,0,0,0,13.49,0c1.86-1.07,2.78-2.48,2.77-3.89v-3.23c0,1.41-.92,2.82-2.77,3.89a14.91,14.91,0,0,1-13.49,0c-1.87-1.08-2.81-2.49-2.82-3.9Z"/><path d="M380.73,345.5a3.12,3.12,0,0,1-1-1,1.25,1.25,0,0,1-.14-1l1.62-.07a.76.76,0,0,0,0,.7,1.76,1.76,0,0,0,.59.7l1.34-.77a6,6,0,0,1-.77-.77.91.91,0,0,1-.23-.69c0-.24.23-.46.6-.68a3.19,3.19,0,0,1,1.73-.37,5.17,5.17,0,0,1,2.08.54l.79-.46.86.5-.79.46a2.57,2.57,0,0,1,.9.88,1.45,1.45,0,0,1,.13.92l-1.6.05a.9.9,0,0,0,0-.68,1.32,1.32,0,0,0-.51-.59l-1.38.8a5.4,5.4,0,0,1,.74.76.93.93,0,0,1,.21.7c0,.24-.24.47-.61.69a2.94,2.94,0,0,1-1.7.34,5.36,5.36,0,0,1-2-.55l-.79.46-.86-.5Zm3.12,0c.15-.09.22-.19.19-.3a1,1,0,0,0-.28-.41l-1.13.65A1.35,1.35,0,0,0,383.85,345.45Zm1.59-2.68a2,2,0,0,0-.72-.17,1.07,1.07,0,0,0-.58.13c-.15.08-.2.18-.17.3a1.07,1.07,0,0,0,.29.42Z"/><path class="cls-49" d="M379.28,335.35a14.91,14.91,0,0,1,13.49,0c1.87,1.08,2.81,2.49,2.82,3.9s-.92,2.82-2.77,3.89a14.91,14.91,0,0,1-13.49,0c-1.87-1.08-2.81-2.49-2.82-3.9S377.42,336.42,379.28,335.35Z"/><path class="cls-99" d="M376.51,342.48c0,1.41.95,2.82,2.82,3.9a14.91,14.91,0,0,0,13.49,0c1.86-1.07,2.78-2.48,2.77-3.89v-3.23c0,1.41-.92,2.82-2.77,3.89a14.91,14.91,0,0,1-13.49,0c-1.87-1.08-2.81-2.49-2.82-3.9Z"/><path d="M382.43,340.39a3.12,3.12,0,0,1-1-1,1.25,1.25,0,0,1-.14-1l1.62-.07a.76.76,0,0,0,0,.7,1.76,1.76,0,0,0,.59.7l1.34-.77a6,6,0,0,1-.77-.77.91.91,0,0,1-.23-.69c0-.24.23-.46.6-.68a3.19,3.19,0,0,1,1.73-.37,5.17,5.17,0,0,1,2.08.54l.79-.46.86.5-.79.46a2.57,2.57,0,0,1,.9.88,1.45,1.45,0,0,1,.13.92l-1.6.05a.9.9,0,0,0,0-.68,1.32,1.32,0,0,0-.51-.59l-1.38.8a5.4,5.4,0,0,1,.74.76.93.93,0,0,1,.21.7c0,.24-.24.47-.61.69a2.94,2.94,0,0,1-1.7.34,5.36,5.36,0,0,1-2-.55l-.79.46-.86-.5Zm3.12,0c.15-.09.22-.19.19-.3a1,1,0,0,0-.28-.41l-1.13.65A1.35,1.35,0,0,0,385.55,340.34Zm1.59-2.68a2,2,0,0,0-.72-.17,1.07,1.07,0,0,0-.58.13c-.15.08-.2.18-.17.3a1.07,1.07,0,0,0,.29.42Z"/><path class="cls-49" d="M376.72,330.25a14.91,14.91,0,0,1,13.49,0c1.87,1.08,2.81,2.49,2.82,3.9s-.92,2.82-2.77,3.89a14.91,14.91,0,0,1-13.49,0c-1.87-1.08-2.81-2.49-2.82-3.9S374.87,331.32,376.72,330.25Z"/><path class="cls-100" d="M374,337.37c0,1.41.95,2.82,2.82,3.9a14.91,14.91,0,0,0,13.49,0c1.86-1.07,2.78-2.48,2.77-3.89v-3.23c0,1.41-.92,2.82-2.77,3.89a14.91,14.91,0,0,1-13.49,0c-1.87-1.08-2.81-2.49-2.82-3.9Z"/><path d="M379.88,335.28a3.12,3.12,0,0,1-1-1,1.25,1.25,0,0,1-.14-1l1.62-.07a.76.76,0,0,0,0,.7,1.76,1.76,0,0,0,.59.7l1.34-.77a6,6,0,0,1-.77-.77.91.91,0,0,1-.23-.69c0-.24.23-.46.6-.68a3.19,3.19,0,0,1,1.73-.37,5.17,5.17,0,0,1,2.08.54l.79-.46.86.5-.79.46a2.57,2.57,0,0,1,.9.88,1.45,1.45,0,0,1,.13.92l-1.6.05a.9.9,0,0,0,0-.68,1.32,1.32,0,0,0-.51-.59l-1.38.8a5.4,5.4,0,0,1,.74.76.93.93,0,0,1,.21.7c0,.24-.24.47-.61.69a2.94,2.94,0,0,1-1.7.34,5.36,5.36,0,0,1-2-.55l-.79.46-.86-.5Zm3.12,0c.15-.09.22-.19.19-.3a1,1,0,0,0-.28-.41l-1.13.65A1.35,1.35,0,0,0,383,335.24Zm1.59-2.68a2,2,0,0,0-.72-.17,1.07,1.07,0,0,0-.58.13c-.15.08-.2.18-.17.3a1.07,1.07,0,0,0,.29.42Z"/><path class="cls-49" d="M374.17,326a14.91,14.91,0,0,1,13.49,0c1.87,1.08,2.81,2.49,2.82,3.9s-.92,2.82-2.77,3.89a14.91,14.91,0,0,1-13.49,0c-1.87-1.08-2.81-2.49-2.82-3.9S372.31,327.06,374.17,326Z"/><path class="cls-101" d="M371.4,333.11c0,1.41.95,2.82,2.82,3.9a14.91,14.91,0,0,0,13.49,0c1.86-1.07,2.78-2.48,2.77-3.89v-3.23c0,1.41-.92,2.82-2.77,3.89a14.91,14.91,0,0,1-13.49,0c-1.87-1.08-2.81-2.49-2.82-3.9Z"/><path d="M377.32,331a3.12,3.12,0,0,1-1-1,1.25,1.25,0,0,1-.14-1l1.62-.07a.76.76,0,0,0,0,.7,1.76,1.76,0,0,0,.59.7l1.34-.77a6,6,0,0,1-.77-.77.91.91,0,0,1-.23-.69c0-.24.23-.46.6-.68a3.19,3.19,0,0,1,1.73-.37,5.17,5.17,0,0,1,2.08.54l.79-.46.86.5-.79.46a2.57,2.57,0,0,1,.9.88,1.45,1.45,0,0,1,.13.92l-1.6.05a.9.9,0,0,0,0-.68,1.32,1.32,0,0,0-.51-.59l-1.38.8a5.4,5.4,0,0,1,.74.76.93.93,0,0,1,.21.7c0,.24-.24.47-.61.69a2.94,2.94,0,0,1-1.7.34,5.36,5.36,0,0,1-2-.55l-.79.46-.86-.5Zm3.12,0c.15-.09.22-.19.19-.3a1,1,0,0,0-.28-.41l-1.13.65A1.35,1.35,0,0,0,380.45,331Zm1.59-2.68a2,2,0,0,0-.72-.17,1.07,1.07,0,0,0-.58.13c-.15.08-.2.18-.17.3a1.07,1.07,0,0,0,.29.42Z"/><path class="cls-49" d="M373.32,320.88a14.91,14.91,0,0,1,13.49,0c1.87,1.08,2.81,2.49,2.82,3.9s-.92,2.82-2.77,3.89a14.91,14.91,0,0,1-13.49,0c-1.87-1.08-2.81-2.49-2.82-3.9S371.46,322,373.32,320.88Z"/><path class="cls-102" d="M370.55,328c0,1.41.95,2.82,2.82,3.9a14.91,14.91,0,0,0,13.49,0c1.86-1.07,2.78-2.48,2.77-3.89v-3.23c0,1.41-.92,2.82-2.77,3.89a14.91,14.91,0,0,1-13.49,0c-1.87-1.08-2.81-2.49-2.82-3.9Z"/><path d="M376.47,325.92a3.12,3.12,0,0,1-1-1,1.25,1.25,0,0,1-.14-1l1.62-.07a.76.76,0,0,0,0,.7,1.76,1.76,0,0,0,.59.7l1.34-.77a6,6,0,0,1-.77-.77.91.91,0,0,1-.23-.69c0-.24.23-.46.6-.68a3.19,3.19,0,0,1,1.73-.37,5.17,5.17,0,0,1,2.08.54l.79-.46.86.5-.79.46a2.57,2.57,0,0,1,.9.88,1.45,1.45,0,0,1,.13.92l-1.6.05a.9.9,0,0,0,0-.68,1.32,1.32,0,0,0-.51-.59l-1.38.8a5.4,5.4,0,0,1,.74.76.93.93,0,0,1,.21.7c0,.24-.24.47-.61.69a2.94,2.94,0,0,1-1.7.34,5.36,5.36,0,0,1-2-.55l-.79.46-.86-.5Zm3.12,0c.15-.09.22-.19.19-.3a1,1,0,0,0-.28-.41l-1.13.65A1.35,1.35,0,0,0,379.59,325.88Zm1.59-2.68a2,2,0,0,0-.72-.17,1.07,1.07,0,0,0-.58.13c-.15.08-.2.18-.17.3a1.07,1.07,0,0,0,.29.42Z"/><path class="cls-49" d="M375,316.63a14.91,14.91,0,0,1,13.49,0c1.87,1.08,2.81,2.49,2.82,3.9s-.92,2.82-2.77,3.89a14.91,14.91,0,0,1-13.49,0c-1.87-1.08-2.81-2.49-2.82-3.9S373.17,317.7,375,316.63Z"/><path class="cls-103" d="M372.25,323.75c0,1.41.95,2.82,2.82,3.9a14.91,14.91,0,0,0,13.49,0c1.86-1.07,2.78-2.48,2.77-3.89v-3.23c0,1.41-.92,2.82-2.77,3.89a14.91,14.91,0,0,1-13.49,0c-1.87-1.08-2.81-2.49-2.82-3.9Z"/><path d="M378.17,321.66a3.12,3.12,0,0,1-1-1,1.25,1.25,0,0,1-.14-1l1.62-.07a.76.76,0,0,0,0,.7,1.76,1.76,0,0,0,.59.7l1.34-.77a6,6,0,0,1-.77-.77.91.91,0,0,1-.23-.69c0-.24.23-.46.6-.68a3.19,3.19,0,0,1,1.73-.37,5.17,5.17,0,0,1,2.08.54l.79-.46.86.5-.79.46a2.57,2.57,0,0,1,.9.88,1.45,1.45,0,0,1,.13.92l-1.6.05a.9.9,0,0,0,0-.68,1.32,1.32,0,0,0-.51-.59l-1.38.8a5.4,5.4,0,0,1,.74.76.93.93,0,0,1,.21.7c0,.24-.24.47-.61.69a2.94,2.94,0,0,1-1.7.34,5.36,5.36,0,0,1-2-.55l-.79.46-.86-.5Zm3.12,0c.15-.09.22-.19.19-.3a1,1,0,0,0-.28-.41l-1.13.65A1.35,1.35,0,0,0,381.3,321.62Zm1.59-2.68a2,2,0,0,0-.72-.17,1.07,1.07,0,0,0-.58.13c-.15.08-.2.18-.17.3a1.07,1.07,0,0,0,.29.42Z"/><path class="cls-2" d="M359.28,356.89a14.91,14.91,0,0,1,13.49,0c1.87,1.08,2.81,2.49,2.82,3.9s-.92,2.82-2.77,3.89a14.91,14.91,0,0,1-13.49,0c-1.87-1.08-2.81-2.49-2.82-3.9S357.42,358,359.28,356.89Z"/><path class="cls-2" d="M399.7,349.86a14.91,14.91,0,0,1,13.49,0c1.87,1.08,2.81,2.49,2.82,3.9s-.92,2.82-2.77,3.89a14.91,14.91,0,0,1-13.49,0c-1.87-1.08-2.81-2.49-2.82-3.9S397.85,350.94,399.7,349.86Z"/><path class="cls-49" d="M373.32,311.52a14.91,14.91,0,0,1,13.49,0c1.87,1.08,2.81,2.49,2.82,3.9s-.92,2.82-2.77,3.89a14.91,14.91,0,0,1-13.49,0c-1.87-1.08-2.81-2.49-2.82-3.9S371.46,312.59,373.32,311.52Z"/><path class="cls-104" d="M370.55,318.64c0,1.41.95,2.82,2.82,3.9a14.91,14.91,0,0,0,13.49,0c1.86-1.07,2.78-2.48,2.77-3.89v-3.23c0,1.41-.92,2.82-2.77,3.89a14.91,14.91,0,0,1-13.49,0c-1.87-1.08-2.81-2.49-2.82-3.9Z"/><path d="M376.47,316.56a3.12,3.12,0,0,1-1-1,1.25,1.25,0,0,1-.14-1l1.62-.07a.76.76,0,0,0,0,.7,1.76,1.76,0,0,0,.59.7l1.34-.77a6,6,0,0,1-.77-.77.91.91,0,0,1-.23-.69c0-.24.23-.46.6-.68a3.19,3.19,0,0,1,1.73-.37,5.17,5.17,0,0,1,2.08.54l.79-.46.86.5-.79.46a2.57,2.57,0,0,1,.9.88,1.45,1.45,0,0,1,.13.92l-1.6.05a.9.9,0,0,0,0-.68,1.32,1.32,0,0,0-.51-.59l-1.38.8a5.4,5.4,0,0,1,.74.76.93.93,0,0,1,.21.7c0,.24-.24.47-.61.69a2.94,2.94,0,0,1-1.7.34,5.36,5.36,0,0,1-2-.55l-.79.46-.86-.5Zm3.12,0c.15-.09.22-.19.19-.3a1,1,0,0,0-.28-.41l-1.13.65A1.35,1.35,0,0,0,379.59,316.51Zm1.59-2.68a2,2,0,0,0-.72-.17,1.07,1.07,0,0,0-.58.13c-.15.08-.2.18-.17.3a1.07,1.07,0,0,0,.29.42Z"/><path class="cls-49" d="M359.28,351.95a14.91,14.91,0,0,1,13.49,0c1.87,1.08,2.81,2.49,2.82,3.9s-.92,2.82-2.77,3.89a14.91,14.91,0,0,1-13.49,0c-1.87-1.08-2.81-2.49-2.82-3.9S357.42,353,359.28,351.95Z"/><path class="cls-105" d="M356.5,359.07c0,1.41.95,2.82,2.82,3.9a14.91,14.91,0,0,0,13.49,0c1.86-1.07,2.78-2.48,2.77-3.89v-3.23c0,1.41-.92,2.82-2.77,3.89a14.91,14.91,0,0,1-13.49,0c-1.87-1.08-2.81-2.49-2.82-3.9Z"/><path d="M362.43,357a3.12,3.12,0,0,1-1-1,1.25,1.25,0,0,1-.14-1l1.62-.07a.76.76,0,0,0,0,.7,1.76,1.76,0,0,0,.59.7l1.34-.77a6,6,0,0,1-.77-.77.91.91,0,0,1-.23-.69c0-.24.23-.46.6-.68a3.19,3.19,0,0,1,1.73-.37,5.17,5.17,0,0,1,2.08.54l.79-.46.86.5-.79.46a2.57,2.57,0,0,1,.9.88,1.45,1.45,0,0,1,.13.92l-1.6.05a.9.9,0,0,0,0-.68,1.32,1.32,0,0,0-.51-.59l-1.38.8a5.4,5.4,0,0,1,.74.76.93.93,0,0,1,.21.7c0,.24-.24.47-.61.69a2.94,2.94,0,0,1-1.7.34,5.36,5.36,0,0,1-2-.55l-.79.46-.86-.5Zm3.12,0c.15-.09.22-.19.19-.3a1,1,0,0,0-.28-.41l-1.13.65A1.35,1.35,0,0,0,365.55,356.94Zm1.59-2.68a2,2,0,0,0-.72-.17,1.07,1.07,0,0,0-.58.13c-.15.08-.2.18-.17.3a1.07,1.07,0,0,0,.29.42Z"/><path class="cls-2" d="M375.66,363.48a14.91,14.91,0,0,1,13.49,0c1.87,1.08,2.81,2.49,2.82,3.9s-.92,2.82-2.77,3.89a14.91,14.91,0,0,1-13.49,0c-1.87-1.08-2.81-2.49-2.82-3.9S373.8,364.55,375.66,363.48Z"/><path class="cls-2" d="M414,378.59a14.91,14.91,0,0,1,13.49,0c1.87,1.08,2.81,2.49,2.82,3.9s-.92,2.82-2.77,3.89a14.91,14.91,0,0,1-13.49,0c-1.87-1.08-2.81-2.49-2.82-3.9S412.1,379.66,414,378.59Z"/><path class="cls-2" d="M379.92,381.78a14.91,14.91,0,0,1,13.49,0c1.87,1.08,2.81,2.49,2.82,3.9s-.92,2.82-2.77,3.89a14.91,14.91,0,0,1-13.49,0c-1.87-1.08-2.81-2.49-2.82-3.9S378.06,382.85,379.92,381.78Z"/><path class="cls-49" d="M375.66,358.55a14.91,14.91,0,0,1,13.49,0c1.87,1.08,2.81,2.49,2.82,3.9s-.92,2.82-2.77,3.89a14.91,14.91,0,0,1-13.49,0c-1.87-1.08-2.81-2.49-2.82-3.9S373.8,359.62,375.66,358.55Z"/><path class="cls-106" d="M372.89,365.67c0,1.41.95,2.82,2.82,3.9a14.91,14.91,0,0,0,13.49,0c1.86-1.07,2.78-2.48,2.77-3.89v-3.23c0,1.41-.92,2.82-2.77,3.89a14.91,14.91,0,0,1-13.49,0c-1.87-1.08-2.81-2.49-2.82-3.9Z"/><path d="M378.81,363.58a3.12,3.12,0,0,1-1-1,1.25,1.25,0,0,1-.14-1l1.62-.07a.76.76,0,0,0,0,.7,1.76,1.76,0,0,0,.59.7l1.34-.77a6,6,0,0,1-.77-.77.91.91,0,0,1-.23-.69c0-.24.23-.46.6-.68a3.19,3.19,0,0,1,1.73-.37,5.17,5.17,0,0,1,2.08.54l.79-.46.86.5-.79.46a2.57,2.57,0,0,1,.9.88,1.45,1.45,0,0,1,.13.92l-1.6.05a.9.9,0,0,0,0-.68,1.32,1.32,0,0,0-.51-.59l-1.38.8a5.4,5.4,0,0,1,.74.76.93.93,0,0,1,.21.7c0,.24-.24.47-.61.69a2.94,2.94,0,0,1-1.7.34,5.36,5.36,0,0,1-2-.55l-.79.46L378,364Zm3.12,0c.15-.09.22-.19.19-.3a1,1,0,0,0-.28-.41l-1.13.65A1.35,1.35,0,0,0,381.94,363.54Zm1.59-2.68a2,2,0,0,0-.72-.17,1.07,1.07,0,0,0-.58.13c-.15.08-.2.18-.17.3a1.07,1.07,0,0,0,.29.42Z"/><path class="cls-49" d="M379.92,376a14.91,14.91,0,0,1,13.49,0c1.87,1.08,2.81,2.49,2.82,3.9s-.92,2.82-2.77,3.89a14.91,14.91,0,0,1-13.49,0c-1.87-1.08-2.81-2.49-2.82-3.9S378.06,377.06,379.92,376Z"/><path class="cls-107" d="M377.14,383.12c0,1.41.95,2.82,2.82,3.9a14.91,14.91,0,0,0,13.49,0c1.86-1.07,2.78-2.48,2.77-3.89v-3.23c0,1.41-.92,2.82-2.77,3.89a14.91,14.91,0,0,1-13.49,0c-1.87-1.08-2.81-2.49-2.82-3.9Z"/><path d="M383.07,381a3.12,3.12,0,0,1-1-1,1.25,1.25,0,0,1-.14-1l1.62-.07a.76.76,0,0,0,0,.7,1.76,1.76,0,0,0,.59.7l1.34-.77a6,6,0,0,1-.77-.77.91.91,0,0,1-.23-.69c0-.24.23-.46.6-.68a3.19,3.19,0,0,1,1.73-.37,5.17,5.17,0,0,1,2.08.54l.79-.46.86.5-.79.46a2.57,2.57,0,0,1,.9.88,1.45,1.45,0,0,1,.13.92l-1.6.05a.9.9,0,0,0,0-.68,1.32,1.32,0,0,0-.51-.59l-1.38.8a5.4,5.4,0,0,1,.74.76.93.93,0,0,1,.21.7c0,.24-.24.47-.61.69a2.94,2.94,0,0,1-1.7.34,5.36,5.36,0,0,1-2-.55l-.79.46-.86-.5Zm3.12,0c.15-.09.22-.19.19-.3a1,1,0,0,0-.28-.41l-1.13.65A1.35,1.35,0,0,0,386.19,381Zm1.59-2.68a2,2,0,0,0-.72-.17,1.07,1.07,0,0,0-.58.13c-.15.08-.2.18-.17.3a1.07,1.07,0,0,0,.29.42Z"/><path class="cls-49" d="M414,372.8a14.91,14.91,0,0,1,13.49,0c1.87,1.08,2.81,2.49,2.82,3.9s-.92,2.82-2.77,3.89a14.91,14.91,0,0,1-13.49,0c-1.87-1.08-2.81-2.49-2.82-3.9S412.1,373.87,414,372.8Z"/><path class="cls-108" d="M411.19,379.92c0,1.41.95,2.82,2.82,3.9a14.91,14.91,0,0,0,13.49,0c1.86-1.07,2.78-2.48,2.77-3.89v-3.23c0,1.41-.92,2.82-2.77,3.89a14.91,14.91,0,0,1-13.49,0c-1.87-1.08-2.81-2.49-2.82-3.9Z"/><path d="M417.11,377.84a3.12,3.12,0,0,1-1-1,1.25,1.25,0,0,1-.14-1l1.62-.07a.76.76,0,0,0,0,.7,1.76,1.76,0,0,0,.59.7l1.34-.77a6,6,0,0,1-.77-.77.91.91,0,0,1-.23-.69c0-.24.23-.46.6-.68a3.19,3.19,0,0,1,1.73-.37,5.17,5.17,0,0,1,2.08.54l.79-.46.86.5-.79.46a2.57,2.57,0,0,1,.9.88,1.45,1.45,0,0,1,.13.92l-1.6.05a.9.9,0,0,0,0-.68,1.32,1.32,0,0,0-.51-.59l-1.38.8a5.4,5.4,0,0,1,.74.76.93.93,0,0,1,.21.7c0,.24-.24.47-.61.69a2.94,2.94,0,0,1-1.7.34,5.36,5.36,0,0,1-2-.55l-.79.46-.86-.5Zm3.12,0c.15-.09.22-.19.19-.3a1,1,0,0,0-.28-.41l-1.13.65A1.35,1.35,0,0,0,420.24,377.79Zm1.59-2.68a2,2,0,0,0-.72-.17,1.07,1.07,0,0,0-.58.13c-.15.08-.2.18-.17.3a1.07,1.07,0,0,0,.29.42Z"/><path class="cls-49" d="M361,347.69a14.91,14.91,0,0,1,13.49,0c1.87,1.08,2.81,2.49,2.82,3.9s-.92,2.82-2.77,3.89a14.91,14.91,0,0,1-13.49,0c-1.87-1.08-2.81-2.49-2.82-3.9S359.12,348.77,361,347.69Z"/><path class="cls-109" d="M358.21,354.82c0,1.41.95,2.82,2.82,3.9a14.91,14.91,0,0,0,13.49,0c1.86-1.07,2.78-2.48,2.77-3.89v-3.23c0,1.41-.92,2.82-2.77,3.89a14.91,14.91,0,0,1-13.49,0c-1.87-1.08-2.81-2.49-2.82-3.9Z"/><path d="M364.13,352.73a3.12,3.12,0,0,1-1-1,1.25,1.25,0,0,1-.14-1l1.62-.07a.76.76,0,0,0,0,.7,1.76,1.76,0,0,0,.59.7l1.34-.77a6,6,0,0,1-.77-.77.91.91,0,0,1-.23-.69c0-.24.23-.46.6-.68a3.19,3.19,0,0,1,1.73-.37,5.17,5.17,0,0,1,2.08.54l.79-.46.86.5-.79.46a2.57,2.57,0,0,1,.9.88,1.45,1.45,0,0,1,.13.92l-1.6.05a.9.9,0,0,0,0-.68,1.32,1.32,0,0,0-.51-.59l-1.38.8a5.4,5.4,0,0,1,.74.76.93.93,0,0,1,.21.7c0,.24-.24.47-.61.69a2.94,2.94,0,0,1-1.7.34,5.36,5.36,0,0,1-2-.55l-.79.46-.86-.5Zm3.12,0c.15-.09.22-.19.19-.3a1,1,0,0,0-.28-.41l-1.13.65A1.35,1.35,0,0,0,367.25,352.69Zm1.59-2.68a2,2,0,0,0-.72-.17,1.07,1.07,0,0,0-.58.13c-.15.08-.2.18-.17.3a1.07,1.07,0,0,0,.29.42Z"/><path class="cls-49" d="M358.43,343.44a14.91,14.91,0,0,1,13.49,0c1.87,1.08,2.81,2.49,2.82,3.9s-.92,2.82-2.77,3.89a14.91,14.91,0,0,1-13.49,0c-1.87-1.08-2.81-2.49-2.82-3.9S356.57,344.51,358.43,343.44Z"/><path class="cls-110" d="M355.65,350.56c0,1.41.95,2.82,2.82,3.9a14.91,14.91,0,0,0,13.49,0c1.86-1.07,2.78-2.48,2.77-3.89v-3.23c0,1.41-.92,2.82-2.77,3.89a14.91,14.91,0,0,1-13.49,0c-1.87-1.08-2.81-2.49-2.82-3.9Z"/><path d="M361.58,348.47a3.12,3.12,0,0,1-1-1,1.25,1.25,0,0,1-.14-1l1.62-.07a.76.76,0,0,0,0,.7,1.76,1.76,0,0,0,.59.7l1.34-.77a6,6,0,0,1-.77-.77.91.91,0,0,1-.23-.69c0-.24.23-.46.6-.68a3.19,3.19,0,0,1,1.73-.37,5.17,5.17,0,0,1,2.08.54l.79-.46.86.5-.79.46a2.57,2.57,0,0,1,.9.88,1.45,1.45,0,0,1,.13.92l-1.6.05a.9.9,0,0,0,0-.68,1.32,1.32,0,0,0-.51-.59l-1.38.8a5.4,5.4,0,0,1,.74.76.93.93,0,0,1,.21.7c0,.24-.24.47-.61.69a2.94,2.94,0,0,1-1.7.34,5.36,5.36,0,0,1-2-.55l-.79.46-.86-.5Zm3.12,0c.15-.09.22-.19.19-.3a1,1,0,0,0-.28-.41l-1.13.65A1.35,1.35,0,0,0,364.7,348.43Zm1.59-2.68a2,2,0,0,0-.72-.17,1.07,1.07,0,0,0-.58.13c-.15.08-.2.18-.17.3a1.07,1.07,0,0,0,.29.42Z"/><path class="cls-49" d="M361,339.18a14.91,14.91,0,0,1,13.49,0c1.87,1.08,2.81,2.49,2.82,3.9s-.92,2.82-2.77,3.89A14.91,14.91,0,0,1,361,347c-1.87-1.08-2.81-2.49-2.82-3.9S359.12,340.25,361,339.18Z"/><path class="cls-111" d="M358.21,346.31c0,1.41.95,2.82,2.82,3.9a14.91,14.91,0,0,0,13.49,0c1.86-1.07,2.78-2.48,2.77-3.89v-3.23c0,1.41-.92,2.82-2.77,3.89A14.91,14.91,0,0,1,361,347c-1.87-1.08-2.81-2.49-2.82-3.9Z"/><path d="M364.13,344.22a3.12,3.12,0,0,1-1-1,1.25,1.25,0,0,1-.14-1l1.62-.07a.76.76,0,0,0,0,.7,1.76,1.76,0,0,0,.59.7l1.34-.77a6,6,0,0,1-.77-.77.91.91,0,0,1-.23-.69c0-.24.23-.46.6-.68a3.19,3.19,0,0,1,1.73-.37,5.17,5.17,0,0,1,2.08.54l.79-.46.86.5-.79.46a2.57,2.57,0,0,1,.9.88,1.45,1.45,0,0,1,.13.92l-1.6.05a.9.9,0,0,0,0-.68,1.32,1.32,0,0,0-.51-.59l-1.38.8a5.4,5.4,0,0,1,.74.76.93.93,0,0,1,.21.7c0,.24-.24.47-.61.69a2.94,2.94,0,0,1-1.7.34,5.36,5.36,0,0,1-2-.55l-.79.46-.86-.5Zm3.12,0c.15-.09.22-.19.19-.3a1,1,0,0,0-.28-.41l-1.13.65A1.35,1.35,0,0,0,367.25,344.17Zm1.59-2.68a2,2,0,0,0-.72-.17,1.07,1.07,0,0,0-.58.13c-.15.08-.2.18-.17.3a1.07,1.07,0,0,0,.29.42Z"/><path class="cls-49" d="M399.7,344.93a14.91,14.91,0,0,1,13.49,0c1.87,1.08,2.81,2.49,2.82,3.9s-.92,2.82-2.77,3.89a14.91,14.91,0,0,1-13.49,0c-1.87-1.08-2.81-2.49-2.82-3.9S397.85,346,399.7,344.93Z"/><path class="cls-112" d="M396.93,352.05c0,1.41.95,2.82,2.82,3.9a14.91,14.91,0,0,0,13.49,0c1.86-1.07,2.78-2.48,2.77-3.89v-3.23c0,1.41-.92,2.82-2.77,3.89a14.91,14.91,0,0,1-13.49,0c-1.87-1.08-2.81-2.49-2.82-3.9Z"/><path d="M402.86,350a3.12,3.12,0,0,1-1-1,1.25,1.25,0,0,1-.14-1l1.62-.07a.76.76,0,0,0,0,.7,1.76,1.76,0,0,0,.59.7l1.34-.77a6,6,0,0,1-.77-.77.91.91,0,0,1-.23-.69c0-.24.23-.46.6-.68a3.19,3.19,0,0,1,1.73-.37,5.17,5.17,0,0,1,2.08.54l.79-.46.86.5-.79.46a2.57,2.57,0,0,1,.9.88,1.45,1.45,0,0,1,.13.92l-1.6.05a.9.9,0,0,0,0-.68,1.32,1.32,0,0,0-.51-.59l-1.38.8a5.4,5.4,0,0,1,.74.76.93.93,0,0,1,.21.7c0,.24-.24.47-.61.69a2.94,2.94,0,0,1-1.7.34,5.36,5.36,0,0,1-2-.55l-.79.46-.86-.5Zm3.12,0c.15-.09.22-.19.19-.3a1,1,0,0,0-.28-.41l-1.13.65A1.35,1.35,0,0,0,406,349.92Zm1.59-2.68a2,2,0,0,0-.72-.17,1.07,1.07,0,0,0-.58.13c-.15.08-.2.18-.17.3a1.07,1.07,0,0,0,.29.42Z"/><path class="cls-49" d="M401.41,340.67a14.91,14.91,0,0,1,13.49,0c1.87,1.08,2.81,2.49,2.82,3.9s-.92,2.82-2.77,3.89a14.91,14.91,0,0,1-13.49,0c-1.87-1.08-2.81-2.49-2.82-3.9S399.55,341.74,401.41,340.67Z"/><path class="cls-113" d="M398.63,347.8c0,1.41.95,2.82,2.82,3.9a14.91,14.91,0,0,0,13.49,0c1.86-1.07,2.78-2.48,2.77-3.89V344.6c0,1.41-.92,2.82-2.77,3.89a14.91,14.91,0,0,1-13.49,0c-1.87-1.08-2.81-2.49-2.82-3.9Z"/><path d="M404.56,345.71a3.12,3.12,0,0,1-1-1,1.25,1.25,0,0,1-.14-1l1.62-.07a.76.76,0,0,0,0,.7,1.76,1.76,0,0,0,.59.7l1.34-.77a6,6,0,0,1-.77-.77.91.91,0,0,1-.23-.69c0-.24.23-.46.6-.68a3.19,3.19,0,0,1,1.73-.37,5.17,5.17,0,0,1,2.08.54l.79-.46.86.5-.79.46a2.57,2.57,0,0,1,.9.88,1.45,1.45,0,0,1,.13.92l-1.6.05a.9.9,0,0,0,0-.68,1.32,1.32,0,0,0-.51-.59l-1.38.8a5.4,5.4,0,0,1,.74.76.93.93,0,0,1,.21.7c0,.24-.24.47-.61.69a2.94,2.94,0,0,1-1.7.34,5.36,5.36,0,0,1-2-.55l-.79.46-.86-.5Zm3.12,0c.15-.09.22-.19.19-.3a1,1,0,0,0-.28-.41l-1.13.65A1.35,1.35,0,0,0,407.68,345.66Zm1.59-2.68a2,2,0,0,0-.72-.17,1.07,1.07,0,0,0-.58.13c-.15.08-.2.18-.17.3a1.07,1.07,0,0,0,.29.42Z"/><path class="cls-49" d="M398.85,336.42a14.91,14.91,0,0,1,13.49,0c1.87,1.08,2.81,2.49,2.82,3.9s-.92,2.82-2.77,3.89a14.91,14.91,0,0,1-13.49,0c-1.87-1.08-2.81-2.49-2.82-3.9S397,337.49,398.85,336.42Z"/><path class="cls-114" d="M396.08,343.54c0,1.41.95,2.82,2.82,3.9a14.91,14.91,0,0,0,13.49,0c1.86-1.07,2.78-2.48,2.77-3.89v-3.23c0,1.41-.92,2.82-2.77,3.89a14.91,14.91,0,0,1-13.49,0c-1.87-1.08-2.81-2.49-2.82-3.9Z"/><path d="M402,341.45a3.12,3.12,0,0,1-1-1,1.25,1.25,0,0,1-.14-1l1.62-.07a.76.76,0,0,0,0,.7,1.76,1.76,0,0,0,.59.7l1.34-.77a6,6,0,0,1-.77-.77.91.91,0,0,1-.23-.69c0-.24.23-.46.6-.68a3.19,3.19,0,0,1,1.73-.37,5.17,5.17,0,0,1,2.08.54l.79-.46.86.5-.79.46a2.57,2.57,0,0,1,.9.88,1.45,1.45,0,0,1,.13.92l-1.6.05a.9.9,0,0,0,0-.68,1.32,1.32,0,0,0-.51-.59l-1.38.8a5.4,5.4,0,0,1,.74.76.93.93,0,0,1,.21.7c0,.24-.24.47-.61.69a2.94,2.94,0,0,1-1.7.34,5.36,5.36,0,0,1-2-.55l-.79.46-.86-.5Zm3.12,0c.15-.09.22-.19.19-.3a1,1,0,0,0-.28-.41l-1.13.65A1.35,1.35,0,0,0,405.13,341.41Zm1.59-2.68a2,2,0,0,0-.72-.17,1.07,1.07,0,0,0-.58.13c-.15.08-.2.18-.17.3a1.07,1.07,0,0,0,.29.42Z"/><path class="cls-49" d="M378.21,353.44a14.91,14.91,0,0,1,13.49,0c1.87,1.08,2.81,2.49,2.82,3.9s-.92,2.82-2.77,3.89a14.91,14.91,0,0,1-13.49,0c-1.87-1.08-2.81-2.49-2.82-3.9S376.36,354.51,378.21,353.44Z"/><path class="cls-115" d="M375.44,360.56c0,1.41.95,2.82,2.82,3.9a14.91,14.91,0,0,0,13.49,0c1.86-1.07,2.78-2.48,2.77-3.89v-3.23c0,1.41-.92,2.82-2.77,3.89a14.91,14.91,0,0,1-13.49,0c-1.87-1.08-2.81-2.49-2.82-3.9Z"/><path d="M381.37,358.48a3.12,3.12,0,0,1-1-1,1.25,1.25,0,0,1-.14-1l1.62-.07a.76.76,0,0,0,0,.7,1.76,1.76,0,0,0,.59.7l1.34-.77a6,6,0,0,1-.77-.77.91.91,0,0,1-.23-.69c0-.24.23-.46.6-.68a3.19,3.19,0,0,1,1.73-.37,5.17,5.17,0,0,1,2.08.54l.79-.46.86.5-.79.46a2.57,2.57,0,0,1,.9.88,1.45,1.45,0,0,1,.13.92l-1.6.05a.9.9,0,0,0,0-.68,1.32,1.32,0,0,0-.51-.59l-1.38.8a5.4,5.4,0,0,1,.74.76.93.93,0,0,1,.21.7c0,.24-.24.47-.61.69a2.94,2.94,0,0,1-1.7.34,5.36,5.36,0,0,1-2-.55l-.79.46-.86-.5Zm3.12,0c.15-.09.22-.19.19-.3a1,1,0,0,0-.28-.41l-1.13.65A1.35,1.35,0,0,0,384.49,358.43Zm1.59-2.68a2,2,0,0,0-.72-.17,1.07,1.07,0,0,0-.58.13c-.15.08-.2.18-.17.3a1.07,1.07,0,0,0,.29.42Z"/><g class="cls-116"><path class="cls-49" d="M364.38,301.52a14.91,14.91,0,0,1,13.49,0c1.87,1.08,2.81,2.49,2.82,3.9s-.92,2.82-2.77,3.89a14.91,14.91,0,0,1-13.49,0c-1.87-1.08-2.81-2.49-2.82-3.9S362.53,302.59,364.38,301.52Z"/><path class="cls-117" d="M361.61,308.64c0,1.41.95,2.82,2.82,3.9a14.91,14.91,0,0,0,13.49,0c1.86-1.07,2.78-2.48,2.77-3.89v-3.23c0,1.41-.92,2.82-2.77,3.89a14.91,14.91,0,0,1-13.49,0c-1.87-1.08-2.81-2.49-2.82-3.9Z"/><path d="M367.54,306.56a3.12,3.12,0,0,1-1-1,1.25,1.25,0,0,1-.14-1l1.62-.07a.76.76,0,0,0,0,.7,1.76,1.76,0,0,0,.59.7l1.34-.77a6,6,0,0,1-.77-.77.91.91,0,0,1-.23-.69c0-.24.23-.46.6-.68a3.19,3.19,0,0,1,1.73-.37,5.17,5.17,0,0,1,2.08.54l.79-.46.86.5-.79.46a2.57,2.57,0,0,1,.9.88,1.45,1.45,0,0,1,.13.92l-1.6.05a.9.9,0,0,0,0-.68,1.32,1.32,0,0,0-.51-.59l-1.38.8a5.4,5.4,0,0,1,.74.76.93.93,0,0,1,.21.7c0,.24-.24.47-.61.69a2.94,2.94,0,0,1-1.7.34,5.36,5.36,0,0,1-2-.55l-.79.46-.86-.5Zm3.12,0c.15-.09.22-.19.19-.3a1,1,0,0,0-.28-.41l-1.13.65A1.35,1.35,0,0,0,370.66,306.51Zm1.59-2.68a2,2,0,0,0-.72-.17,1.07,1.07,0,0,0-.58.13c-.15.08-.2.18-.17.3a1.07,1.07,0,0,0,.29.42Z"/><path class="cls-49" d="M370.34,291.31a14.91,14.91,0,0,1,13.49,0c1.87,1.08,2.81,2.49,2.82,3.9s-.92,2.82-2.77,3.89a14.91,14.91,0,0,1-13.49,0c-1.87-1.08-2.81-2.49-2.82-3.9S368.48,292.38,370.34,291.31Z"/><path class="cls-118" d="M367.57,298.43c0,1.41.95,2.82,2.82,3.9a14.91,14.91,0,0,0,13.49,0c1.86-1.07,2.78-2.48,2.77-3.89v-3.23c0,1.41-.92,2.82-2.77,3.89a14.91,14.91,0,0,1-13.49,0c-1.87-1.08-2.81-2.49-2.82-3.9Z"/><path d="M373.49,296.34a3.12,3.12,0,0,1-1-1,1.25,1.25,0,0,1-.14-1l1.62-.07a.76.76,0,0,0,0,.7,1.76,1.76,0,0,0,.59.7l1.34-.77a6,6,0,0,1-.77-.77.91.91,0,0,1-.23-.69c0-.24.23-.46.6-.68a3.19,3.19,0,0,1,1.73-.37,5.17,5.17,0,0,1,2.08.54l.79-.46.86.5-.79.46a2.57,2.57,0,0,1,.9.88,1.45,1.45,0,0,1,.13.92l-1.6.05a.9.9,0,0,0,0-.68,1.32,1.32,0,0,0-.51-.59l-1.38.8a5.4,5.4,0,0,1,.74.76.93.93,0,0,1,.21.7c0,.24-.24.47-.61.69a2.94,2.94,0,0,1-1.7.34,5.36,5.36,0,0,1-2-.55l-.79.46-.86-.5Zm3.12,0c.15-.09.22-.19.19-.3a1,1,0,0,0-.28-.41l-1.13.65A1.35,1.35,0,0,0,376.62,296.3Zm1.59-2.68a2,2,0,0,0-.72-.17,1.07,1.07,0,0,0-.58.13c-.15.08-.2.18-.17.3a1.07,1.07,0,0,0,.29.42Z"/><path class="cls-49" d="M365.23,260.67a14.91,14.91,0,0,1,13.49,0c1.87,1.08,2.81,2.49,2.82,3.9s-.92,2.82-2.77,3.89a14.91,14.91,0,0,1-13.49,0c-1.87-1.08-2.81-2.49-2.82-3.9S363.38,261.74,365.23,260.67Z"/><path class="cls-119" d="M362.46,267.79c0,1.41.95,2.82,2.82,3.9a14.91,14.91,0,0,0,13.49,0c1.86-1.07,2.78-2.48,2.77-3.89v-3.23c0,1.41-.92,2.82-2.77,3.89a14.91,14.91,0,0,1-13.49,0c-1.87-1.08-2.81-2.49-2.82-3.9Z"/><path d="M368.39,265.7a3.12,3.12,0,0,1-1-1,1.25,1.25,0,0,1-.14-1l1.62-.07a.76.76,0,0,0,0,.7,1.76,1.76,0,0,0,.59.7l1.34-.77a6,6,0,0,1-.77-.77.91.91,0,0,1-.23-.69c0-.24.23-.46.6-.68a3.19,3.19,0,0,1,1.73-.37,5.17,5.17,0,0,1,2.08.54l.79-.46.86.5-.79.46a2.57,2.57,0,0,1,.9.88,1.45,1.45,0,0,1,.13.92l-1.6.05a.9.9,0,0,0,0-.68,1.32,1.32,0,0,0-.51-.59l-1.38.8a5.4,5.4,0,0,1,.74.76.93.93,0,0,1,.21.7c0,.24-.24.47-.61.69a2.94,2.94,0,0,1-1.7.34,5.36,5.36,0,0,1-2-.55l-.79.46-.86-.5Zm3.12,0c.15-.09.22-.19.19-.3a1,1,0,0,0-.28-.41l-1.13.65A1.35,1.35,0,0,0,371.51,265.66ZM373.1,263a2,2,0,0,0-.72-.17,1.07,1.07,0,0,0-.58.13c-.15.08-.2.18-.17.3a1.07,1.07,0,0,0,.29.42Z"/><path class="cls-69" d="M415,268.69l-47.73-1.27-13.14,21.43.41.76,47.73,1.27,13.14-21.43Z"/><polygon class="cls-49" points="400.61 287.87 411.07 270.81 368.5 269.68 358.04 286.74 400.61 287.87"/><path class="cls-70" d="M367.26,267.43l-13.14,21.43,47.73,1.27L415,268.69ZM366,273.68a15.89,15.89,0,0,0,7.17-3.87l33.14.88a3.47,3.47,0,0,0,2.27,4.12l-5.56,9.06a15.89,15.89,0,0,0-7.17,3.87l-33.14-.88a3.47,3.47,0,0,0-2.27-4.12Z"/><path class="cls-70" d="M392.47,279c2.27-3.7.57-6.8-3.8-6.91a15.1,15.1,0,0,0-12,6.49c-2.27,3.7-.57,6.8,3.8,6.91A15.1,15.1,0,0,0,392.47,279Z"/></g><path class="cls-2" d="M123.79,381c-4.61-2.66-4.63-7-.05-9.6s12-2.63,16.63,0l83.42,48.16c4.61,2.66,4.63,7,.05,9.6s-12,2.63-16.63,0Z"/><path class="cls-120" d="M226.34,384.83c3.47-2,5.62-6.24,5.62-12.31v-74c0-12.15-8.58-27-19.17-33.07l-64.63-37.31c-5.29-3.06-10.09-3.36-13.56-1.38l-13.37,8.72c-3.47,2-5.61,6.24-5.61,12.31v74c0,12.15,8.58,27,19.17,33.07l64.63,37.31c5.29,3.06,10.09,3.36,13.56,1.38Z"/><path class="cls-49" d="M199.41,274.21,134.78,236.9c-10.59-6.11-19.17-1.22-19.17,10.93v74c0,12.15,8.58,27,19.17,33.07l64.63,37.31c10.59,6.11,19.17,1.22,19.17-10.93v-74C218.58,295.13,210,280.33,199.41,274.21Z"/><path class="cls-121" d="M156,324.38,145.38,290v28.18l-10-5.79V254.78l8.75,5.05L154.56,294V265.87l10,5.79v57.66Zm40.58,18.33c-2.33,1.81-5.43,2.61-11.08-.65S176.93,334.5,174.6,330c-4-7.83-3.74-18.11-3.74-25.89s-.28-18.39,3.74-21.57c2.33-1.81,5.29-2.69,10.94.57a27.92,27.92,0,0,1,11.08,12.15c4,7.83,3.74,18.11,3.74,25.89S200.64,339.53,196.62,342.71Zm-7.62-45a7.73,7.73,0,0,0-3.46-4.26c-1.84-1.06-2.75-.62-3.32.35-1.2,2-1.34,9.11-1.34,16.07s.14,14.25,1.34,17.62a7.3,7.3,0,0,0,3.32,4.18c1.84,1.06,2.89.7,3.46-.27,1.2-2,1.34-9.11,1.34-16.07S190.2,301.1,189,297.74ZM142.3,346.29v-10l-3.46-2v10l-4.17-2.41v-24l4.17,2.41v9.63l3.46,2v-9.63l4.17,2.41v24Zm7.4,4.27v-24l9.63,5.56v4.31l-5.46-3.15v5.42l4.7,2.71v4.31l-4.7-2.71v5.62l5.46,3.15v4.31Zm22.66,10.76c-.94.7-2.23,1-4.58-.32l-5.9-3.41v-24l5.9,3.41a11.64,11.64,0,0,1,4.58,5c1.67,3.19,1.56,7.43,1.56,10.56S174,360.06,172.36,361.32Zm-3.11-18.1a3.62,3.62,0,0,0-1.56-1.94l-1.64-.95v15.36l1.64.95c.76.44,1.29.31,1.56-.15.5-.82.5-3.72.5-6.38S169.74,344.62,169.24,343.22ZM182,369.49a11.39,11.39,0,0,1-4.55-5c-1.67-3.26-1.56-7.53-1.56-10.77s-.12-7.65,1.56-9c1-.75,2.2-1.12,4.55.24a11.54,11.54,0,0,1,4.14,4.17,13.85,13.85,0,0,1,1.79,6.39l-4.17-2.41c0-1-.18-2.93-1.76-3.85-.76-.44-1.14-.26-1.38.15-.5.82-.56,3.79-.56,6.68s.06,5.93.56,7.33a3,3,0,0,0,1.38,1.74c1.38.8,1.76-.47,1.76-1.78v-2.49l-1.73-1V356l5.9,3.41v6.1C187.94,370.32,185.59,371.55,182,369.49Zm8.6,4.7v-24l9.63,5.56v4.31l-5.46-3.15v5.42l4.7,2.71v4.31l-4.7-2.71v5.62l5.46,3.15v4.31Z"/><path class="cls-2" d="M18,402c-4.61-2.66-4.63-7-.05-9.6s12-2.63,16.63,0L118,440.58c4.61,2.66,4.63,7,.05,9.6s-12,2.63-16.63,0Z"/><path class="cls-122" d="M120.56,405.79c3.47-2,5.62-6.24,5.62-12.31v-74c0-12.15-8.58-27-19.17-33.07L42.37,249.14c-5.29-3.06-10.09-3.36-13.56-1.38l-13.37,8.72c-3.47,2-5.61,6.24-5.61,12.31v74c0,12.15,8.58,27,19.17,33.07l64.63,37.31c5.29,3.06,10.09,3.36,13.56,1.38Z"/><path class="cls-49" d="M93.63,295.17,29,257.86c-10.59-6.11-19.17-1.22-19.17,10.93v74c0,12.15,8.58,27,19.17,33.07l64.63,37.31c10.59,6.11,19.17,1.22,19.17-10.93v-74C112.8,316.09,104.22,301.29,93.63,295.17Z"/><path class="cls-123" d="M50.26,345.35,39.6,311v28.18l-10-5.79V275.74l8.75,5.05L48.78,315V286.83l10,5.79v57.66Zm40.58,18.33c-2.33,1.81-5.43,2.61-11.08-.65S71.15,355.46,68.82,351c-4-7.83-3.74-18.11-3.74-25.89s-.28-18.39,3.74-21.57c2.33-1.81,5.29-2.69,10.94.57a27.92,27.92,0,0,1,11.08,12.15c4,7.83,3.74,18.11,3.74,25.89S94.86,360.49,90.84,363.67Zm-7.62-45a7.73,7.73,0,0,0-3.46-4.26c-1.84-1.06-2.75-.62-3.32.35-1.2,2-1.34,9.11-1.34,16.07s.14,14.25,1.34,17.62a7.3,7.3,0,0,0,3.32,4.18c1.83,1.06,2.89.7,3.46-.27,1.2-2,1.34-9.11,1.34-16.07S84.42,322.06,83.22,318.7ZM38.08,366.63c-.94.5-2.52.33-4.55-.84A12.26,12.26,0,0,1,29,361.43a11.55,11.55,0,0,1-1.38-6.12l4.17,2.41a5,5,0,0,0,.44,2.44,3.38,3.38,0,0,0,1.29,1.32c.65.37,1.06.41,1.32.16s.41-.81.41-1.78c0-2.29-.32-2.88-1.82-4.45l-2.64-2.77c-2.11-2.23-3-4-3-7.76,0-2.22.62-3.72,1.88-4.24,1-.4,2.26-.21,3.84.7a11.25,11.25,0,0,1,4.11,3.89,12.21,12.21,0,0,1,1.61,6.49l-4.17-2.41a5.29,5.29,0,0,0-.35-2.36,2.8,2.8,0,0,0-1.2-1.3c-.59-.34-1-.29-1.2-.05s-.35.71-.35,1.51a3.91,3.91,0,0,0,1.44,3.36L36,353.19c2.64,2.77,3.4,4.56,3.4,8.9C39.43,364.52,39.16,366,38.08,366.63Zm11.59,8.21v-10l-3.46-2v10L42,370.44v-24l4.17,2.41v9.63l3.46,2v-9.63l4.17,2.41v24Zm17.49,8c-1,.75-2.26,1.09-4.61-.27a11.39,11.39,0,0,1-4.55-5c-1.67-3.26-1.56-7.53-1.56-10.77s-.12-7.65,1.56-9c1-.75,2.2-1.12,4.55.24a11.61,11.61,0,0,1,4.61,5.05c1.67,3.26,1.56,7.53,1.56,10.77S68.84,381.5,67.16,382.82ZM64,364.12a3.21,3.21,0,0,0-1.44-1.77c-.76-.44-1.14-.26-1.38.15-.5.82-.56,3.79-.56,6.68s.06,5.93.56,7.33a3,3,0,0,0,1.38,1.74c.76.44,1.2.29,1.44-.11.5-.82.56-3.79.56-6.68S64.49,365.52,64,364.12ZM79.43,392l-2.55-10.8-1.38-.8v9.33l-4.17-2.41v-24l6,3.44c4.55,2.63,5.81,6.08,5.81,10.66,0,2.56-.35,4.65-2.38,4.93l3.05,12.13ZM77.26,371.1l-1.76-1v6l1.76,1c1.58.91,1.67-.68,1.67-2.07S78.84,372,77.26,371.1Zm14.62,8.44v19.67l-4.17-2.41V377.14l-3.52-2v-4.31l11.21,6.47v4.31Z"/></g></g></svg>