<svg xmlns="http://www.w3.org/2000/svg" xmlns:xlink="http://www.w3.org/1999/xlink" viewBox="0 0 223.63 288.51"><defs><style>.cls-1{fill:none;}.cls-2{isolation:isolate;}.cls-3,.cls-32{opacity:0.1;}.cls-4,.cls-6{fill:#181e26;}.cls-5{fill:url(#linear-gradient);}.cls-6{font-size:18.48px;font-family:RobotoCondensed-Regular, Roboto Condensed;}.cls-7{letter-spacing:-0.01em;}.cls-8{letter-spacing:-0.01em;}.cls-9{letter-spacing:-0.02em;}.cls-10{fill:url(#linear-gradient-2);}.cls-11{fill:url(#linear-gradient-3);}.cls-12{fill:url(#linear-gradient-4);}.cls-13{fill:url(#linear-gradient-5);}.cls-14{fill:url(#linear-gradient-6);}.cls-15{fill:url(#linear-gradient-7);}.cls-16{clip-path:url(#clip-path);}.cls-17,.cls-36{fill:#fff;}.cls-17{mix-blend-mode:soft-light;}.cls-18{fill:url(#linear-gradient-8);}.cls-19{fill:url(#linear-gradient-9);}.cls-20{fill:url(#linear-gradient-10);}.cls-21{fill:url(#linear-gradient-11);}.cls-22{fill:url(#linear-gradient-12);}.cls-23{fill:url(#linear-gradient-13);}.cls-24{clip-path:url(#clip-path-2);}.cls-25{fill:url(#linear-gradient-14);}.cls-26{fill:url(#linear-gradient-15);}.cls-27{fill:url(#linear-gradient-16);}.cls-28{fill:url(#linear-gradient-17);}.cls-29{fill:url(#linear-gradient-18);}.cls-30{fill:url(#linear-gradient-19);}.cls-31{clip-path:url(#clip-path-3);}.cls-32,.cls-33{fill:#0e2032;}.cls-34{fill:#ededed;}.cls-35{fill:#d8d8d8;}.cls-37{fill:url(#linear-gradient-20);}.cls-38{fill:url(#linear-gradient-21);}</style><linearGradient id="linear-gradient" x1="119.83" y1="26.28" x2="119.83" y2="181.57" gradientUnits="userSpaceOnUse"><stop offset="0" stop-color="#fff"/><stop offset="0.99" stop-color="#d8d8d8"/></linearGradient><linearGradient id="linear-gradient-2" x1="49.63" y1="239.6" x2="89.99" y2="239.6" gradientUnits="userSpaceOnUse"><stop offset="0" stop-color="#9198a4"/><stop offset="0.99" stop-color="#5e6676"/></linearGradient><linearGradient id="linear-gradient-3" x1="84.13" y1="224.61" x2="168.7" y2="224.61" gradientUnits="userSpaceOnUse"><stop offset="0" stop-color="#4e5668"/><stop offset="1" stop-color="#363d4f"/></linearGradient><linearGradient id="linear-gradient-4" x1="89.42" y1="237.43" x2="168.83" y2="237.43" gradientUnits="userSpaceOnUse"><stop offset="0" stop-color="#3b4458"/><stop offset="0.99" stop-color="#192136"/></linearGradient><linearGradient id="linear-gradient-5" x1="59.8" y1="201.16" x2="158.42" y2="201.16" gradientUnits="userSpaceOnUse"><stop offset="0" stop-color="#a9aeb7"/><stop offset="0.99" stop-color="#848c99"/></linearGradient><linearGradient id="linear-gradient-6" x1="56.42" y1="195.2" x2="138.63" y2="195.2" gradientUnits="userSpaceOnUse"><stop offset="0" stop-color="#bec2c9"/><stop offset="0.99" stop-color="#979ea9"/></linearGradient><linearGradient id="linear-gradient-7" x1="79.58" y1="209.9" x2="162.97" y2="209.9" gradientUnits="userSpaceOnUse"><stop offset="0" stop-color="#b7bbc3"/><stop offset="0.99" stop-color="#848c99"/></linearGradient><clipPath id="clip-path"><polygon class="cls-1" points="158.42 184.12 79.58 229.63 59.8 218.21 138.63 172.69 158.42 184.12"/></clipPath><linearGradient id="linear-gradient-8" x1="96.14" y1="266.62" x2="136.5" y2="266.62" xlink:href="#linear-gradient-2"/><linearGradient id="linear-gradient-9" x1="130.64" y1="251.64" x2="215.21" y2="251.64" xlink:href="#linear-gradient-3"/><linearGradient id="linear-gradient-10" x1="135.93" y1="264.46" x2="215.34" y2="264.46" xlink:href="#linear-gradient-4"/><linearGradient id="linear-gradient-11" x1="106.31" y1="228.19" x2="204.93" y2="228.19" xlink:href="#linear-gradient-5"/><linearGradient id="linear-gradient-12" x1="102.93" y1="222.22" x2="185.15" y2="222.22" xlink:href="#linear-gradient-6"/><linearGradient id="linear-gradient-13" x1="126.09" y1="236.93" x2="209.48" y2="236.93" xlink:href="#linear-gradient-7"/><clipPath id="clip-path-2"><polygon class="cls-1" points="204.93 211.14 126.09 256.66 106.31 245.24 185.15 199.72 204.93 211.14"/></clipPath><linearGradient id="linear-gradient-14" x1="72.01" y1="225.65" x2="112.37" y2="225.65" xlink:href="#linear-gradient-2"/><linearGradient id="linear-gradient-15" x1="106.51" y1="210.67" x2="191.08" y2="210.67" xlink:href="#linear-gradient-3"/><linearGradient id="linear-gradient-16" x1="111.8" y1="223.48" x2="191.21" y2="223.48" xlink:href="#linear-gradient-4"/><linearGradient id="linear-gradient-17" x1="82.18" y1="187.22" x2="180.8" y2="187.22" xlink:href="#linear-gradient-5"/><linearGradient id="linear-gradient-18" x1="78.8" y1="181.25" x2="161.02" y2="181.25" xlink:href="#linear-gradient-6"/><linearGradient id="linear-gradient-19" x1="101.96" y1="195.96" x2="185.35" y2="195.96" xlink:href="#linear-gradient-7"/><clipPath id="clip-path-3"><polygon class="cls-1" points="180.8 170.17 101.96 215.69 82.18 204.26 161.02 158.75 180.8 170.17"/></clipPath><linearGradient id="linear-gradient-20" x1="30.22" y1="115.96" x2="66.2" y2="115.96" gradientUnits="userSpaceOnUse"><stop offset="0" stop-color="#83858a"/><stop offset="1"/></linearGradient><linearGradient id="linear-gradient-21" x1="0.16" y1="218.82" x2="64.79" y2="218.82" xlink:href="#linear-gradient-20"/></defs><title>Asset 2</title><g class="cls-2"><g id="Layer_2" data-name="Layer 2"><g id="Layer_1-2" data-name="Layer 1"><polygon class="cls-3" points="155.57 229.89 59.74 174.56 71.47 167.79 167.3 223.12 155.57 229.89"/><path class="cls-4" d="M85.29.6c1.49.9,2.4,2.77,2.4,5.41l98.15,56.67c0-2.64-.92-4.51-2.4-5.41Z"/><path class="cls-5" d="M70.69,136.68V15.83c0-5.39,3.81-12,8.5-14.66,2.39-1.38,4.55-1.5,6.1-.56l98.15,56.67c-1.54-.93-3.7-.82-6.1.56-4.69,2.71-8.5,9.28-8.5,14.66V193.35c0,5.39-3.81,12-8.5,14.66-2.33,1.34-4.44,1.49-6,.63L56.22,152c1.54.85,3.65.71,6-.63C66.88,148.64,70.69,142.07,70.69,136.68Z"/><path class="cls-4" d="M56.22,152c-1.56-.87-2.53-2.77-2.53-5.48l98.15,56.67c0,2.71,1,4.61,2.53,5.48Z"/><polygon class="cls-4" points="84.55 67.32 151.12 105.75 151.12 104.14 84.55 65.71 84.55 67.32"/><polygon class="cls-4" points="84.55 80.65 151.12 119.08 151.12 117.47 84.55 79.03 84.55 80.65"/><polygon class="cls-4" points="84.55 93.97 151.12 132.41 151.12 130.79 84.55 92.36 84.55 93.97"/><polygon class="cls-4" points="84.55 107.3 151.12 145.73 151.12 144.12 84.55 105.68 84.55 107.3"/><polygon class="cls-4" points="84.55 120.62 136.44 150.59 136.44 148.97 84.55 119.01 84.55 120.62"/><text class="cls-6" transform="matrix(0.88, 0.51, 0, 1, 83.48, 48.6)">CO<tspan class="cls-7" x="21.58" y="0">N</tspan><tspan x="32.76" y="0">TR</tspan><tspan class="cls-8" x="52.18" y="0">A</tspan><tspan class="cls-7" x="62.73" y="0">C</tspan><tspan class="cls-9" x="72.95" y="0">T</tspan></text><path class="cls-10" d="M89.86,259.05c.54,2.2-.62,3.07-2.59,1.94L52.1,240.69a5.23,5.23,0,0,1-2.23-6l5-14.68a3.27,3.27,0,0,1,4.9-1.84l19.78,11.42a11.1,11.1,0,0,1,4.55,6.06Z"/><polygon class="cls-11" points="168.7 213.53 89.86 259.05 84.13 235.69 162.97 190.18 168.7 213.53"/><path class="cls-12" d="M89.42,261.33c.53-.32.72-1.11.44-2.28l78.84-45.52c.29,1.16.1,2-.44,2.28Z"/><polygon class="cls-13" points="158.42 184.12 79.58 229.63 59.8 218.21 138.63 172.69 158.42 184.12"/><path class="cls-14" d="M56.42,218.12a3.32,3.32,0,0,1,3.37.09l78.84-45.52a3.32,3.32,0,0,0-3.37-.09Z"/><path class="cls-15" d="M163,190.18a11.1,11.1,0,0,0-4.55-6.06L79.58,229.63a11.1,11.1,0,0,1,4.55,6.06Z"/><g class="cls-16"><path class="cls-17" d="M54,196.08H177.11v20.21H54Zm0-3.77H177.11v-4.22H54Z"/></g><path class="cls-18" d="M136.37,286.08c.54,2.2-.62,3.07-2.59,1.94l-35.17-20.3a5.23,5.23,0,0,1-2.23-6l5-14.68a3.27,3.27,0,0,1,4.9-1.84l19.78,11.42a11.1,11.1,0,0,1,4.55,6.06Z"/><polygon class="cls-19" points="215.21 240.56 136.37 286.08 130.64 262.72 209.48 217.2 215.21 240.56"/><path class="cls-20" d="M135.93,288.35c.53-.32.72-1.11.44-2.28l78.84-45.52c.29,1.16.1,2-.44,2.28Z"/><polygon class="cls-21" points="204.93 211.14 126.09 256.66 106.31 245.24 185.15 199.72 204.93 211.14"/><path class="cls-22" d="M102.93,245.15a3.32,3.32,0,0,1,3.37.09l78.84-45.52a3.32,3.32,0,0,0-3.37-.09Z"/><path class="cls-23" d="M209.48,217.2a11.1,11.1,0,0,0-4.55-6.06l-78.84,45.52a11.1,11.1,0,0,1,4.55,6.06Z"/><g class="cls-24"><path class="cls-17" d="M100.51,223.11H223.63v20.21H100.51Zm0-3.77H223.63v-4.22H100.51Z"/></g><path class="cls-25" d="M112.24,245.1c.54,2.2-.62,3.07-2.59,1.94l-35.17-20.3a5.23,5.23,0,0,1-2.23-6l5-14.68a3.27,3.27,0,0,1,4.9-1.84L102,215.69a11.1,11.1,0,0,1,4.55,6.06Z"/><polygon class="cls-26" points="191.08 199.59 112.24 245.1 106.51 221.75 185.35 176.23 191.08 199.59"/><path class="cls-27" d="M111.8,247.38c.53-.32.72-1.11.44-2.28l78.84-45.52c.29,1.16.1,2-.44,2.28Z"/><polygon class="cls-28" points="180.8 170.17 101.96 215.69 82.18 204.26 161.02 158.75 180.8 170.17"/><path class="cls-29" d="M78.8,204.17a3.32,3.32,0,0,1,3.37.09L161,158.75a3.32,3.32,0,0,0-3.37-.09Z"/><path class="cls-30" d="M185.35,176.23a11.1,11.1,0,0,0-4.55-6.06L102,215.69a11.1,11.1,0,0,1,4.55,6.06Z"/><g class="cls-31"><path class="cls-17" d="M76.38,182.13H199.5v20.21H76.38Zm0-3.77H199.5v-4.22H76.38Z"/></g><polygon class="cls-32" points="15.62 170.15 31.17 161.18 79.83 189.27 64.28 198.24 15.62 170.15"/><path class="cls-33" d="M42.65,157.58v7.06l-5.41-3.12v-7.06a11.73,11.73,0,0,1-2.7-6.9c0-3.42,2.42-4.81,5.41-3.08a11.92,11.92,0,0,1,5.41,9.32C45.36,156.08,44.26,157.43,42.65,157.58Z"/><path class="cls-34" d="M15.62,118v43.42l48.65,28.09V146.11Zm27,39.56v7.06l-5.41-3.12v-7.06a11.73,11.73,0,0,1-2.7-6.9c0-3.42,2.42-4.81,5.41-3.08a11.92,11.92,0,0,1,5.41,9.32C45.36,156.08,44.26,157.43,42.65,157.58Z"/><polygon class="cls-35" points="79.83 180.56 79.83 137.13 64.28 146.11 64.28 189.53 79.83 180.56"/><polygon class="cls-36" points="15.62 118.02 31.17 109.04 79.83 137.13 64.28 146.11 15.62 118.02"/><path class="cls-33" d="M59.06,134.4a8.39,8.39,0,0,1,7.59,0c2.1,1.21,2.11,3.18,0,4.38a8.39,8.39,0,0,1-7.59,0C57,137.57,57,135.61,59.06,134.4Z"/><path class="cls-33" d="M29.68,117.31a8.39,8.39,0,0,1,7.59,0c2.1,1.21,2.11,3.18,0,4.38a8.39,8.39,0,0,1-7.59,0C27.6,120.47,27.59,118.51,29.68,117.31Z"/><path class="cls-37" d="M66.19,137.14h0V123.35c0-10.5-7.17-22.87-16.32-28.15-5-2.89-9.87-3.26-13.71-1s-5.92,6.56-5.92,12.27v13.66a1.54,1.54,0,0,0,.95,1.61,5.22,5.22,0,0,0,4.72,0,1.67,1.67,0,0,0,1-1.3h0v-14c0-3.19.95-5.57,2.6-6.52s4.26-.59,7.08,1c7,4.07,13,14.33,13,22.4V137.1a1.57,1.57,0,0,0,1,1.52,5.22,5.22,0,0,0,4.72,0A1.56,1.56,0,0,0,66.19,137.14Z"/><path class="cls-38" d="M14.57,181.17c5.32-3,12.68-2.57,20.8,2.12,16.25,9.38,29.42,32.1,29.42,50.75,0,9.28-3.26,15.8-8.54,18.85l-5.79,3.54c-5.33,3.09-12.72,2.64-20.89-2.08C13.33,245,.16,222.25.16,203.61c0-9.32,3.29-15.86,8.62-18.9Z"/><path class="cls-3" d="M9.32,253.92c-2.2-1.27-2.21-3.33,0-4.59a8.79,8.79,0,0,1,8,0l39.88,23c2.2,1.27,2.21,3.33,0,4.59a8.79,8.79,0,0,1-8,0Z"/><path class="cls-36" d="M26.93,219.88,25.15,227c2.19,1.89,9,8.3,10,4.26C36.16,227.09,29.13,221.78,26.93,219.88Z"/><path class="cls-36" d="M29.36,210.12l-1.61,6.49c1.83,1.58,7.46,7,8.37,3.29C37.07,216.07,31.18,211.7,29.36,210.12Z"/><path class="cls-36" d="M36.64,192.25c-15.81-13.65-31.82-11.85-35.76,4s5.68,39.79,21.48,53.44,31.82,11.86,35.76-4S52.45,205.9,36.64,192.25Zm5.88,31.42c-.43,3.05-2,3.73-4.13,3.07,2.9,3.41,4.38,6.93,3,10.73-1.75,4.72-5.9,2.81-11.42-1.58l-1.34,5.39-3.24-2.8,1.32-5.32c-.84-.72-1.7-1.47-2.58-2.26l-1.33,5.34-3.23-2.79,1.34-5.4-2.31-2-4.21-3.64L16,219.07s2.39,2.11,2.35,2c.92.79,1.32.34,1.48,0l2.12-8.52.34.29c-.13-.13-.25-.24-.34-.32l1.51-6.08a3.71,3.71,0,0,0-1.51-3c.05,0-2.35-2-2.35-2l.86-3.47,4.47,3.86v0c.67.58,1.36,1.16,2.07,1.75l1.33-5.34L31.53,201l-1.3,5.23c.87.73,1.74,1.46,2.59,2.2l1.29-5.2,3.24,2.8L36,211.37C40.11,215.35,43.1,219.5,42.52,223.66Z"/></g></g></g></svg>