<?xml version="1.0" encoding="UTF-8"?>
<svg width="179px" height="274px" viewBox="0 0 179 274" version="1.1" xmlns="http://www.w3.org/2000/svg" xmlns:xlink="http://www.w3.org/1999/xlink">
    <!-- Generator: Sketch 49.3 (51167) - http://www.bohemiancoding.com/sketch -->
    <title>Page 1</title>
    <desc>Created with Sketch.</desc>
    <defs>
        <linearGradient x1="39.5687849%" y1="0%" x2="50%" y2="100%" id="linearGradient-1">
            <stop stop-color="#00E2C1" offset="0%"></stop>
            <stop stop-color="#000000" offset="100%"></stop>
        </linearGradient>
        <polygon id="path-2" points="0.639114541 0.594476865 142.253446 0.594476865 142.253446 82.4540541 0.639114541 82.4540541"></polygon>
        <polygon id="path-4" points="0 0.0109298655 163.471736 0.0109298655 163.471736 210.222965 0 210.222965"></polygon>
    </defs>
    <g id="Page-1" stroke="none" stroke-width="1" fill="none" fill-rule="evenodd">
        <g id="market-site" transform="translate(-151.000000, -3418.000000)">
            <g id="Page-1" transform="translate(151.000000, 3418.000000)">
                <path d="M39.904115,5.33103269 L23.8649632,15.1695415 C9.12041333,23.6067218 0,41.7848095 0,67.7004818 C0,119.531114 36.4802338,182.689924 81.4804241,208.768028 C104.0955,221.872978 124.559295,223.120424 139.320879,214.539335 L155.360031,204.700827 C169.972565,196.206653 179,178.083421 179,152.299547 C179,100.468914 142.519766,37.3101046 97.5195759,11.2327131 C84.3670172,3.61054038 71.9448013,-0.000712419176 60.9463636,0 C53.1290692,0 46.0300518,1.82521793 39.904115,5.33103269" id="Fill-1" fill="url(#linearGradient-1)"></path>
                <g id="Group-14" transform="translate(0.000000, 11.000000)">
                    <g id="Group-6" transform="translate(20.588745, 180.545946)">
                        <mask id="mask-3" fill="white">
                            <use xlink:href="#path-2"></use>
                        </mask>
                        <g id="Clip-5"></g>
                        <path d="M5.23536277,15.9427046 C-0.866005195,12.4156614 -0.896533333,6.71638027 5.16578701,3.21137216 C11.2288173,-0.293635946 21.0894061,-0.275154865 27.190774,3.25117757 L137.657198,67.1061559 C143.758566,70.6324884 143.789094,76.3324803 137.726774,79.8374884 C131.663744,83.3417857 121.803155,83.3240154 115.702497,79.797683 L5.23536277,15.9427046 Z" id="Fill-4" fill="#000000" mask="url(#mask-3)"></path>
                    </g>
                    <path d="M74.6058719,102.090985 L69.6809022,121.927582 C75.7609714,127.176209 94.513058,144.933685 97.284729,133.739836 C100.181352,122.069744 80.6852312,107.348852 74.6058719,102.090985" id="Fill-7" fill="#FFFFFF"></path>
                    <path d="M81.3241212,75.0184043 L76.8592035,93.0104476 C81.9219048,97.3869097 97.530303,112.322466 100.059169,102.145077 C102.693108,91.5262746 86.3875325,79.3948665 81.3241212,75.0184043" id="Fill-9" fill="#FFFFFF"></path>
                    <g id="Group-13">
                        <mask id="mask-5" fill="white">
                            <use xlink:href="#path-4"></use>
                        </mask>
                        <g id="Clip-12"></g>
                        <path d="M117.777345,112.571961 C116.599527,121.038429 112.185726,122.91568 106.325034,121.081077 C114.372393,130.545523 118.467423,140.293583 114.566921,150.834196 C109.725726,163.928753 98.2251377,158.621839 82.9312502,146.456312 L79.2188866,161.399688 L70.2507134,153.647585 L73.9133801,138.904658 C71.5889818,136.898039 69.2134667,134.820339 66.7655359,132.641704 L63.0908,147.457134 L54.1318563,139.710718 L57.8428,124.734645 C55.7484277,122.90715 53.6206874,121.022791 51.4489299,119.142696 L39.7779515,109.053448 L44.23009,99.8313881 C44.23009,99.8313881 50.8390771,105.670699 50.7496225,105.469539 C53.2884277,107.659548 54.415129,106.408521 54.8595619,105.397748 L60.7245143,81.7732395 C61.0546442,82.0547205 61.3734147,82.3333584 61.6723065,82.5906719 C61.3151983,82.2203395 60.9907481,81.9267746 60.7401333,81.7085557 L64.9246182,64.8431476 C65.0339515,62.7164016 64.3772416,59.5753286 60.745103,56.4335449 C60.8856745,56.4065341 54.2305403,50.8074773 54.2305403,50.8074773 L56.6174147,41.1809665 L68.9855706,51.87938 L68.9763411,51.9270043 C70.8357177,53.5320151 72.751181,55.1448449 74.7028519,56.7839746 L78.3790078,41.9863151 L87.3429212,49.7362854 L83.7413108,64.2446449 C86.1473541,66.2661908 88.5690165,68.3033746 90.9267827,70.3412692 L94.5035446,55.9267368 L103.472428,63.6788395 L99.7984017,78.483607 C111.122921,89.5111259 119.404566,101.015599 117.777345,112.571961 M101.499458,25.436507 C57.7150078,-12.4163011 13.3611723,-7.43280649 2.44842771,36.5763341 C-8.47496623,80.5705476 18.1768087,146.937531 61.9555792,184.786785 C105.752809,222.649545 150.107354,217.669604 161.025068,173.668994 C171.943493,129.66625 145.294558,63.2957124 101.499458,25.436507" id="Fill-11" fill="#FFFFFF" mask="url(#mask-5)"></path>
                    </g>
                </g>
            </g>
        </g>
    </g>
</svg>