<?xml version="1.0" encoding="UTF-8"?>
<svg width="165px" height="215px" viewBox="0 0 165 215" version="1.1" xmlns="http://www.w3.org/2000/svg" xmlns:xlink="http://www.w3.org/1999/xlink">
    <!-- Generator: Sketch 49.3 (51167) - http://www.bohemiancoding.com/sketch -->
    <title>Page 1</title>
    <desc>Created with Sketch.</desc>
    <defs></defs>
    <g id="Page-1" stroke="none" stroke-width="1" fill="none" fill-rule="evenodd">
        <g id="market-site" transform="translate(-640.000000, -4529.000000)">
            <g id="Group-5" transform="translate(73.000000, 4473.000000)">
                <g id="Page-1" transform="translate(567.804726, 55.968033)">
                    <polygon id="Fill-1" fill-opacity="0.200000018" fill="#000000" points="163.301619 167.780087 81.6509601 214.920974 0.509766455 168.074311 82.1604251 120.933424"></polygon>
                    <polygon id="Fill-4" fill="#212830" points="0 145.724594 81.6512615 192.865481 81.6512615 93.98767 0 46.8467835"></polygon>
                    <polygon id="Fill-5" fill="#374049" points="82.1605457 -0.000180875147 0.509284121 47.1407056 81.6510807 93.9873686 163.301739 46.847085"></polygon>
                    <polygon id="Fill-6" fill="#000000" points="81.6510204 93.9874289 81.6510204 192.865842 163.301679 145.724353 163.301679 46.8471453"></polygon>
                    <path d="M40.6950992,132.993456 C33.9689554,129.110669 28.5143639,119.705162 28.5143639,111.983602 C28.5143639,104.266262 33.9689554,101.155812 40.6950992,105.039805 C47.4236547,108.923797 52.8758345,118.331113 52.8758345,126.048453 C52.8758345,133.770013 47.4236547,136.878051 40.6950992,132.993456 M40.7318772,99.4694531 C22.2928618,88.8237449 11.462058,100.883294 11.462058,100.883294 C11.462058,100.883294 23.2406476,128.507149 40.7318772,138.606011 C59.5700237,149.482034 69.9281404,134.638817 69.9281404,134.638817 C69.9281404,134.638817 59.4747628,110.291213 40.7318772,99.4694531 M48.003661,123.235844 C48.003661,127.868057 44.7316296,129.733483 40.6950992,127.403208 C36.6585689,125.071727 33.3865375,119.429026 33.3865375,114.796813 C33.3865375,114.24032 33.4353737,113.726635 33.5258113,113.253345 C37.116183,116.83829 40.6565125,114.904132 39.3843573,110.007842 C39.8082081,110.168821 40.2471318,110.371401 40.6950992,110.630053 C44.7316296,112.960327 48.003661,118.607249 48.003661,123.235844" id="Fill-7" fill="#FFFFFF"></path>
                </g>
            </g>
        </g>
    </g>
</svg>