<?xml version="1.0" encoding="UTF-8"?>
<svg width="125px" height="219px" viewBox="0 0 125 219" version="1.1" xmlns="http://www.w3.org/2000/svg" xmlns:xlink="http://www.w3.org/1999/xlink">
    <!-- Generator: Sketch 49.3 (51167) - http://www.bohemiancoding.com/sketch -->
    <title>Page 1</title>
    <desc>Created with Sketch.</desc>
    <defs>
        <linearGradient x1="0%" y1="55.8788717%" x2="100%" y2="55.8788717%" id="linearGradient-1">
            <stop stop-color="#111111" offset="0%"></stop>
            <stop stop-color="#303030" offset="100%"></stop>
        </linearGradient>
        <polygon id="path-2" points="0 0.392581254 109.455084 0.392581254 109.455084 171.034647 0 171.034647"></polygon>
    </defs>
    <g id="Page-1" stroke="none" stroke-width="1" fill="none" fill-rule="evenodd">
        <g id="market-site" transform="translate(-1098.000000, -4526.000000)">
            <g id="Group-5" transform="translate(73.000000, 4473.000000)">
                <g id="Page-1" transform="translate(1025.478805, 53.259903)">
                    <path d="M8.70064636,165.279511 C3.80337689,162.451598 3.77830068,157.882029 8.64536472,155.071784 C13.5118589,152.261539 21.4279619,152.276357 26.3258012,155.1037 L115.002112,206.301338 C119.899382,209.12868 119.924458,213.698819 115.057394,216.509064 C110.1909,219.31874 102.274797,219.304492 97.3775274,216.477149 L8.70064636,165.279511 Z" id="Fill-1" fill-opacity="0.2" fill="#000000"></path>
                    <path d="M25.4363937,0 C23.4855787,0.00170974147 21.7142866,0.455931058 20.1846379,1.32789921 L5.96813755,10.5992573 C2.28079512,12.7022393 0,17.2313444 0,23.688468 L0,102.301811 C0,115.216628 9.12375039,130.953088 20.3784086,137.451246 L89.0763907,177.114398 C94.7037197,180.363477 99.7987493,180.687188 103.486662,178.585346 L117.702592,169.313418 C121.390504,167.210436 123.6713,162.681901 123.6713,156.224207 L123.6713,77.6108644 C123.6713,64.6966171 114.548119,48.9601567 103.292891,42.4614294 L34.5943389,2.79827687 C31.3087858,0.901603667 28.2038953,0.00170974147 25.4552009,0 L25.4363937,0 Z" id="Fill-4" fill="url(#linearGradient-1)"></path>
                    <g id="Group-9" transform="translate(0.000000, 8.878687)">
                        <mask id="mask-3" fill="white">
                            <use xlink:href="#path-2"></use>
                        </mask>
                        <g id="Clip-8"></g>
                        <path d="M67.9020974,123.010769 C66.1222566,124.025216 63.4106066,124.016097 60.1045365,122.982844 L60.1045365,133.971352 L49.4266311,127.806024 L49.4266311,116.915541 C46.1217009,114.228967 43.4943982,111.058537 41.7151272,107.989551 C38.7487258,102.872864 37.7319995,97.4233485 37.7319995,90.323932 L49.7657299,97.2723213 C49.7657299,100.092255 49.9355642,102.232281 51.0372076,104.327285 C51.7154051,105.593633 52.9019656,107.057172 54.7661537,108.133739 C56.6303419,109.209736 57.8169024,109.311751 58.580017,108.585111 C59.4274789,107.906913 59.7665776,106.255303 59.7665776,103.43423 C59.7665776,96.8220894 58.8341986,95.1169073 54.5119722,90.5792534 L46.8842456,82.5776633 C40.7827482,76.1370672 38.2403626,70.973648 38.2403626,60.1794802 C38.2403626,53.7611107 40.0196336,49.4394542 43.6642325,47.9457101 C45.3585863,47.271502 47.2239142,47.1808857 49.4266311,47.675001 L49.4266311,38.3392427 L60.1045365,44.5040005 L60.1045365,53.6448483 C62.8173263,55.8914486 64.935696,58.4771476 66.6311896,61.205895 C69.9361199,66.6143772 71.2919449,72.9409905 71.2919449,79.9423818 L59.2576446,72.9939925 C59.2576446,70.56331 59.2576446,68.3269682 58.2403484,66.1829524 C57.5627209,64.7228332 56.5459946,63.454205 54.7661537,62.4266504 C53.07123,61.4481084 51.9695866,61.5905868 51.2913892,62.2682143 C50.5288445,62.9948545 50.274093,64.307366 50.274093,66.6405932 C50.274093,71.0175314 50.9528604,72.6725611 54.4264851,76.3319777 L61.9698645,84.1876699 C69.5970212,92.1898299 71.800308,97.3515394 71.800308,109.896482 C71.800308,116.898444 71.0377633,121.319835 67.9020974,123.010769 M89.0766756,42.8546699 L20.3781236,3.19151741 C9.12346543,-3.30664 -0.000284956911,1.89496346 -0.000284956911,14.8097806 L-0.000284956911,93.4231234 C-0.000284956911,106.337941 9.12346543,122.074401 20.3781236,128.573128 L89.0766756,168.235711 C100.331334,174.733868 109.455084,169.532265 109.455084,156.617448 L109.455084,78.003535 C109.455084,65.0892878 100.331334,49.3522574 89.0766756,42.8546699" id="Fill-7" fill="#FFFFFF" mask="url(#mask-3)"></path>
                    </g>
                </g>
            </g>
        </g>
    </g>
</svg>