<?xml version="1.0" encoding="UTF-8"?>
<svg width="139px" height="211px" viewBox="0 0 139 211" version="1.1" xmlns="http://www.w3.org/2000/svg" xmlns:xlink="http://www.w3.org/1999/xlink">
    <!-- Generator: Sketch 49.3 (51167) - http://www.bohemiancoding.com/sketch -->
    <title>Page 1</title>
    <desc>Created with Sketch.</desc>
    <defs>
        <linearGradient x1="0%" y1="55.8788717%" x2="100%" y2="55.8788717%" id="linearGradient-1">
            <stop stop-color="#111111" offset="0%"></stop>
            <stop stop-color="#303030" offset="100%"></stop>
        </linearGradient>
    </defs>
    <g id="Page-1" stroke="none" stroke-width="1" fill="none" fill-rule="evenodd">
        <g id="market-site" transform="translate(-215.000000, -4531.000000)">
            <g id="Group-5" transform="translate(73.000000, 4473.000000)">
                <g id="Page-1" transform="translate(142.628214, 58.676164)">
                    <path d="M30.9857244,4.08502776 L18.6498468,11.6240139 C7.30861307,18.0891995 0.293698374,32.0185819 0.293698374,51.8770684 C0.293698374,91.5934956 28.3522654,139.990402 62.964455,159.973356 C80.358168,170.015329 96.0977805,170.971213 107.452116,164.395754 L119.788539,156.856768 C131.027688,150.34791 137.971089,136.460562 137.971089,116.703069 C137.971089,76.9866417 109.912522,28.5897352 75.3008785,8.60732763 C65.1846618,2.76666052 55.6301842,-0.000545907759 47.1702517,0 C41.1576237,0 35.6974543,1.39861568 30.9857244,4.08502776" id="Fill-1" fill="url(#linearGradient-1)"></path>
                    <g id="Group-13" transform="translate(0.000000, 7.596306)">
                        <path d="M19.8134491,151.450589 C15.1224638,148.741795 15.0984438,144.364706 19.7604961,141.672835 C24.4225484,138.980964 32.0046612,138.995158 36.6956466,141.703406 L121.637256,190.744484 C126.328787,193.452732 126.352261,197.830366 121.690209,200.522237 C117.028703,203.213563 109.446044,203.199915 104.755059,200.491667 L19.8134491,151.450589 Z" id="Fill-4" fill-opacity="0.200000003" fill="#000000"></path>
                        <path d="M59.3989676,44.3588268 L57.1432768,43.0557449 L57.1432768,50.7792479 L59.3989676,52.0812379 C61.4297445,53.2538478 61.5422015,51.20451 61.5422015,49.4357689 C61.5422015,47.6670278 61.4297445,45.5303448 59.3989676,44.3588268" id="Fill-7" fill="#FFFFFF"></path>
                        <path d="M73.4795119,89.987435 C71.9455111,89.1019726 70.7958293,89.6113045 70.7958293,92.0307677 L70.7958293,120.624324 C70.7958293,123.044333 71.9455111,124.881313 73.4795119,125.766229 C75.0129668,126.651692 76.1631944,126.142906 76.1631944,123.723443 L76.1631944,95.1293401 C76.1631944,92.7098769 75.0129668,90.8728973 73.4795119,89.987435" id="Fill-9" fill="#FFFFFF"></path>
                        <path d="M82.4438086,81.0044682 C81.0905033,81.6901283 79.4735245,81.4903261 77.2555012,80.2096265 C74.2475495,78.472548 72.6682384,76.1802813 71.42739,73.7815626 C69.2841562,69.6102814 69.4348267,64.1746779 69.4348267,60.0328757 C69.4348267,55.8910736 69.2841562,50.195072 71.42739,48.4989366 C72.6682384,47.5326799 74.2475495,47.0637451 77.2555012,48.8002777 C79.4735245,50.0809773 81.0905033,51.7476337 82.4438086,53.9962277 C83.8347816,56.3097848 84.6994994,59.2249322 84.8125024,62.2236036 L79.4735245,59.1408625 C79.4358568,58.2564919 79.3610675,57.350285 79.0597264,56.5297856 C78.7589312,55.6224869 78.2326761,54.8871492 77.2555012,54.3226806 C76.2777805,53.758212 75.789193,53.9934982 75.4878519,54.5104728 C74.8485939,55.5646207 74.7738046,59.3614092 74.7738046,63.0719442 C74.7738046,66.7824793 74.8485939,70.6660671 75.4878519,72.4582822 C75.789193,73.3224542 76.2777805,74.122755 77.2555012,74.6866777 C78.2326761,75.2511463 78.7965988,75.1021135 79.097394,74.542558 C79.3981892,74.069256 79.4735245,73.2493026 79.5106462,72.4080587 L84.85017,75.4902539 C84.7371671,78.3595451 83.8347816,80.2980635 82.4438086,81.0044682 Z M84.7251571,128.300279 C84.7251571,132.846053 83.6382548,134.857723 81.5943761,135.877478 C79.5494056,136.96984 76.5463671,136.335495 73.4794573,134.56457 C70.4125475,132.794191 67.408963,129.96093 65.3645384,126.507518 C63.3201139,123.126711 62.2337574,119.860545 62.2337574,115.315317 L62.2337574,87.4532765 C62.2337574,82.9075026 63.3201139,80.8952866 65.3645384,79.8766228 C67.408963,78.7842613 70.4125475,79.4186062 73.4794573,81.188985 C76.5463671,82.9599098 79.5494056,85.793171 81.5943761,89.2465835 C83.6382548,92.6262985 84.7251571,95.8924646 84.7251571,100.43933 L84.7251571,128.300279 Z M58.910271,57.3213519 L57.1431676,56.3015962 L57.1431676,68.2526089 L51.8041897,65.1698677 L51.8041897,34.4510922 L59.4365261,38.8576597 C65.2646373,42.2226351 66.8810702,46.6504929 66.8810702,52.5179095 C66.8810702,55.7971774 66.4301504,58.4704877 63.8359967,58.8280573 L67.7457881,74.3738726 L62.1813503,71.1617513 L58.910271,57.3213519 Z M58.9375664,116.784355 L58.9375664,125.58275 L36.9576823,112.892578 L36.9576823,104.53473 L48.6504806,87.7497045 C49.6090946,86.396945 50.3755491,83.7602106 50.3755491,80.3138949 C50.3755491,77.8944317 49.2897386,76.0214222 47.7557378,75.1359598 C46.2222829,74.2504974 45.0087299,74.7227076 45.0087299,77.1421708 L45.0087299,80.2947881 L36.4467127,75.3521393 L36.4467127,72.5652801 C36.4467127,68.0195062 37.5325232,66.0067443 39.5774936,64.9880805 C41.6219182,63.895719 44.688828,64.5671856 47.7557378,66.3375644 C50.8226476,68.1079433 53.4424589,70.4269595 55.5513006,73.844342 C57.5318539,77.040086 58.9375664,81.0787116 58.9375664,85.6239396 C58.9375664,89.2897102 57.9789524,93.0624788 56.4454975,95.1827845 L46.1584117,109.405865 L58.9375664,116.784355 Z M36.7305847,25.7482308 L49.0631869,32.8685057 L49.0631869,38.3909085 L42.0695626,34.3533748 L42.0695626,41.300051 L48.0854661,44.7731161 L48.0854661,50.295519 L42.0695626,46.8224539 L42.0695626,54.0273445 L49.0631869,58.0648783 L49.0631869,63.5878271 L36.7305847,56.4675522 L36.7305847,25.7482308 Z M62.6415505,8.8785892 C28.0746713,-11.1081857 -0.0013647694,4.63688591 0.000272953879,44.5411054 C0.0013647694,85.5234926 29.3471822,133.650721 62.4603092,152.321312 C95.5144781,172.013842 125.134887,158.178356 125.202034,116.934479 C125.266997,76.9418226 97.1478341,28.8309719 62.6415505,8.8785892 Z" id="Fill-11" fill="#FFFFFF"></path>
                    </g>
                </g>
            </g>
        </g>
    </g>
</svg>