<svg xmlns="http://www.w3.org/2000/svg" xmlns:xlink="http://www.w3.org/1999/xlink" viewBox="0 0 252.74 384.92"><defs><style>.cls-1{fill:url(#linear-gradient);}.cls-2{opacity:0.1;}.cls-3{fill:#fff;}</style><linearGradient id="linear-gradient" x1="0.54" y1="154.4" x2="252.74" y2="154.4" gradientUnits="userSpaceOnUse"><stop offset="0" stop-color="#83858a"/><stop offset="1"/></linearGradient></defs><title>Asset 4</title><g id="Layer_2" data-name="Layer 2"><g id="Layer_1-2" data-name="Layer 1"><path class="cls-1" d="M56.76,7.48c20.77-11.84,49.47-10,81.18,8.28,63.4,36.61,114.8,125.26,114.8,198,0,36.19-12.72,61.63-33.31,73.55l-22.6,13.81c-20.8,12-49.63,10.29-81.49-8.1C51.94,256.44.54,167.78.54,95c0-36.38,12.85-61.89,33.62-73.74Z"/><path class="cls-2" d="M36.29,291.34c-8.59-5-8.64-13-.1-17.91s22.43-4.91,31,.06l155.6,89.83c8.59,5,8.64,13,.1,17.91s-22.43,4.91-31-.06Z"/><path class="cls-3" d="M114.41,292.94C53.76,258.74,0,170.58,0,95.51,0,22.41,51.43-6.43,114.75,30.18s114.72,124.68,114.6,197.94C229.22,303.67,175,329,114.41,292.94ZM167.7,157.33V127.78L61.75,66.61V96.39l38.67,22.33v18.83c-9.5-4.21-18.73-8.53-27.9-12.28-8-3.26-15.9-6-23-5.45-6.08.44-6.3,5.58-.07,12.55a145.75,145.75,0,0,0,17.77,17.07c10.94,8.66,22,16.36,33.59,24.84v61.63l28.32,16.35V190.09c7.31,3.38,14.31,7.11,21.13,9.64a252.1,252.1,0,0,0,26,8c3.56.9,8.06,1.55,8-3.8-.08-5-4.28-9.45-7.84-12.69-7.81-7.11-15.69-14.14-23.68-20.39-7.68-6-15.54-11-23.44-16.5V135.14ZM129,169.69c0,9.41,0,9.44-8.12,4.81-6.61-3.77-13.22-7.62-20.16-11.63V140.74c-1.3-.75-2.28-1.43-3.24-1.85-9.86-4.32-19.76-8.94-29.54-12.72a40.4,40.4,0,0,0-13.07-2.48c-4.24-.18-4.16,3.2,0,8.26a73.39,73.39,0,0,0,7.63,8,243.71,243.71,0,0,0,41.29,29.8c15.46,9,31,17,46.36,24.47,7.37,3.55,14.61,4.92,21.82,6.83,2.43.64,5.93,1.21,5.29-2.62-.42-2.51-3.26-6.56-5.47-8.82-13.58-13.85-27.94-22.9-42.77-32.68C129,161.59,129,165.64,129,169.69Z"/></g></g></svg>