<?xml version="1.0" encoding="UTF-8"?>
<svg width="180px" height="275px" viewBox="0 0 180 275" version="1.1" xmlns="http://www.w3.org/2000/svg" xmlns:xlink="http://www.w3.org/1999/xlink">
    <!-- Generator: Sketch 49.3 (51167) - http://www.bohemiancoding.com/sketch -->
    <title>Page 1</title>
    <desc>Created with Sketch.</desc>
    <defs>
        <linearGradient x1="0%" y1="55.8788717%" x2="100%" y2="55.8788717%" id="linearGradient-1">
            <stop stop-color="#181E26" offset="0%"></stop>
            <stop stop-color="#303030" offset="100%"></stop>
        </linearGradient>
    </defs>
    <g id="Page-1" stroke="none" stroke-width="1" fill="none" fill-rule="evenodd">
        <g id="market-site" transform="translate(-630.000000, -3417.000000)">
            <g id="Page-1" transform="translate(630.000000, 3417.000000)">
                <path d="M40.127043,5.35526466 L23.9982871,15.238494 C9.17136536,23.7140251 0,41.9747404 0,68.0082113 C0,120.074437 36.684034,183.520332 81.9363357,209.716973 C104.677039,222.881492 125.254443,224.134608 140.099921,215.514514 L156.227964,205.631285 C170.922846,197.098501 180,178.892891 180,152.991817 C180,100.925591 143.315966,37.479696 98.064378,11.2837709 C84.839055,3.62695193 72.3474413,-0.000715657445 61.286846,0 C53.4258797,0 46.2872029,1.83351437 40.127043,5.35526466" id="Fill-1" fill="url(#linearGradient-1)"></path>
                <g id="Group-14" transform="translate(0.000000, 11.000000)">
                    <path d="M25.9810714,197.235756 C19.8432143,193.695302 19.8117857,187.97435 25.9117857,184.456015 C32.0117857,180.93768 41.9325,180.956231 48.0710714,184.495972 L159.211071,248.593745 C165.349643,252.133485 165.380357,257.85515 159.280357,261.373485 C153.181071,264.891107 143.259643,264.873269 137.1225,261.333529 L25.9810714,197.235756 Z" id="Fill-4" fill-opacity="0.2" fill="#000000"></path>
                    <path d="M102.118786,25.5332951 C58.0673571,-12.46344 13.4430714,-7.46099676 2.46307143,36.7154789 C-8.52621429,80.8769708 18.2873571,147.496301 62.3337857,185.489468 C106.398071,223.496192 151.023071,218.497317 162.007357,174.329403 C172.992357,130.159349 146.180929,63.5364519 102.118786,25.5332951" id="Fill-11" fill="#FFFFFF"></path>
                </g>
                <polygon id="Fill-15" fill="url(#linearGradient-1)" points="77.5 50.0007178 43 96.2367804 43 96.2374982 53.5684893 109.64325 77.5 140 112 136.482031 77.5 50.0007178 77.5 50"></polygon>
                <polygon id="Fill-18" fill="url(#linearGradient-1)" points="77.48899 179.998573 77.4897003 180 112 144.004693 77.4897003 147.47626 43 104"></polygon>
            </g>
        </g>
    </g>
</svg>