<svg xmlns="http://www.w3.org/2000/svg" xmlns:xlink="http://www.w3.org/1999/xlink" viewBox="0 0 217 383.58"><defs><style>.cls-1{opacity:0.1;}.cls-2{fill:url(#linear-gradient);}.cls-3{fill:#fff;}</style><linearGradient id="linear-gradient" y1="157.84" x2="217" y2="157.84" gradientUnits="userSpaceOnUse"><stop offset="0" stop-color="#83858a"/><stop offset="1"/></linearGradient></defs><title>Asset 5</title><g id="Layer_2" data-name="Layer 2"><g id="Layer_1-2" data-name="Layer 1"><path class="cls-1" d="M15.27,290c-8.59-5-8.64-13-.1-17.91s22.43-4.91,31,.06L201.79,362c8.59,5,8.64,13,.1,17.91s-22.43,4.91-31-.06Z"/><path class="cls-2" d="M206.53,297.09c6.47-3.69,10.47-11.64,10.47-23V136.18c0-22.66-16-50.27-35.76-61.67L60.7,4.91C50.83-.79,41.89-1.36,35.42,2.33L10.47,18.6C4,22.29,0,30.24,0,41.57V179.5c0,22.66,16,50.27,35.76,61.67L156.3,310.77c9.87,5.7,18.81,6.27,25.28,2.58Z"/><path class="cls-3" d="M156.3,90.77,35.76,21.18C16,9.78,0,18.9,0,41.57V179.5c0,22.66,16,50.27,35.76,61.67L156.3,310.77c19.75,11.4,35.76,2.27,35.76-20.39V152.45C192.06,129.79,176,102.18,156.3,90.77ZM119.14,231.42c-3.12,1.78-7.88,1.76-13.68,0v19.28L86.73,239.83V220.72A58.28,58.28,0,0,1,73.2,205.06c-5.2-9-7-18.54-7-31l21.12,12.19c0,4.95.3,8.7,2.23,12.38a17.1,17.1,0,0,0,6.54,6.68c3.27,1.89,5.35,2.07,6.69.79s2.08-4.09,2.08-9c0-11.6-1.64-14.59-9.22-22.56l-13.38-14c-10.71-11.3-15.17-20.36-15.17-39.3,0-11.26,3.12-18.84,9.52-21.47a16.68,16.68,0,0,1,10.11-.48V82.85l18.74,10.82v16A54.09,54.09,0,0,1,116.91,123c5.8,9.49,8.18,20.59,8.18,32.88L104,143.66c0-4.27,0-8.19-1.78-12a14.19,14.19,0,0,0-6.1-6.59c-3-1.72-4.91-1.47-6.1-.28s-1.78,3.58-1.78,7.67c0,7.68,1.19,10.58,7.29,17l13.23,13.78c13.38,14,17.25,23.1,17.25,45.11C126,220.7,124.65,228.45,119.14,231.42Z"/></g></g></svg>