<?xml version="1.0" encoding="UTF-8"?>
<svg width="26px" height="25px" viewBox="0 0 26 25" version="1.1" xmlns="http://www.w3.org/2000/svg" xmlns:xlink="http://www.w3.org/1999/xlink">
    <!-- Generator: Sketch 49.3 (51167) - http://www.bohemiancoding.com/sketch -->
    <title>Fill 1</title>
    <desc>Created with Sketch.</desc>
    <defs></defs>
    <g id="Page-1" stroke="none" stroke-width="1" fill="none" fill-rule="evenodd">
        <g id="market-site" transform="translate(-1136.000000, -6690.000000)" fill="#181E26">
            <path d="M1149,6690 C1141.82183,6690 1136,6695.73837 1136,6702.816 C1136,6708.47854 1139.7245,6713.28241 1144.89092,6714.97732 C1145.53983,6715.09587 1145.75,6714.69858 1145.75,6714.36109 L1145.75,6711.97517 C1142.13383,6712.75054 1141.38092,6710.46289 1141.38092,6710.46289 C1140.78942,6708.98157 1139.93683,6708.58748 1139.93683,6708.58748 C1138.75708,6707.79182 1140.02675,6707.80891 1140.02675,6707.80891 C1141.33217,6707.89862 1142.019,6709.13002 1142.019,6709.13002 C1143.17817,6711.08873 1145.05992,6710.52269 1145.802,6710.19482 C1145.91792,6709.36712 1146.25483,6708.80108 1146.6275,6708.48175 C1143.74042,6708.15601 1140.70492,6707.05703 1140.70492,6702.14744 C1140.70492,6700.74729 1141.213,6699.60453 1142.04392,6698.70741 C1141.90958,6698.3838 1141.46433,6697.07977 1142.17067,6695.31544 C1142.17067,6695.31544 1143.26267,6694.97154 1145.74675,6696.62908 C1146.7835,6696.34499 1147.895,6696.20295 1149,6696.19761 C1150.105,6696.20295 1151.21758,6696.34499 1152.2565,6696.62908 C1154.73842,6694.97154 1155.82825,6695.31544 1155.82825,6695.31544 C1156.53567,6697.08084 1156.09042,6698.38487 1155.95608,6698.70741 C1156.79025,6699.60453 1157.294,6700.74836 1157.294,6702.14744 C1157.294,6707.06985 1154.25308,6708.15387 1151.35842,6708.47107 C1151.82425,6708.86836 1152.25,6709.648 1152.25,6710.84416 L1152.25,6714.36109 C1152.25,6714.70178 1152.458,6715.10228 1153.11775,6714.97626 C1158.27983,6713.2792 1162,6708.47641 1162,6702.816 C1162,6695.73837 1156.17925,6690 1149,6690" id="Fill-1"></path>
        </g>
    </g>
</svg>