<?xml version="1.0" encoding="UTF-8"?>
<svg width="242px" height="30px" viewBox="0 0 242 30" version="1.1" xmlns="http://www.w3.org/2000/svg" xmlns:xlink="http://www.w3.org/1999/xlink">
    <!-- Generator: Sketch 49.3 (51167) - http://www.bohemiancoding.com/sketch -->
    <title>Page 1</title>
    <desc>Created with Sketch.</desc>
    <defs>
        <polygon id="path-1" points="0.0242904814 0.151189184 9.59637402 0.151189184 9.59637402 15.6404558 0.0242904814 15.6404558"></polygon>
    </defs>
    <g id="Page-1" stroke="none" stroke-width="1" fill="none" fill-rule="evenodd">
        <g id="market-site" transform="translate(-130.000000, -6923.000000)">
            <g id="Page-1" transform="translate(130.000000, 6923.000000)">
                <path d="M34.6441629,6.59012741 C33.598474,7.63581629 31.8959618,7.63581629 30.8502729,6.59012741 C29.8040394,5.5438939 29.8040394,3.84192631 30.8502729,2.7956928 C31.3731173,2.27284836 32.0598953,2.01142614 32.7472179,2.01142614 C33.4339958,2.01142614 34.1213184,2.27284836 34.6441629,2.7956928 C35.6898518,3.84192631 35.6898518,5.54443853 34.6441629,6.59012741 Z M20.6183161,20.6159742 C20.1112659,21.1230244 19.4381037,21.4018747 18.7213711,21.4018747 C18.0046385,21.4018747 17.3309317,21.1230244 16.8238815,20.6159742 C15.7781926,19.5697407 15.7781926,17.8677731 16.8238815,16.8220842 C17.3309317,16.315034 18.0046385,16.035639 18.7213711,16.035639 C19.4381037,16.035639 20.1112659,16.315034 20.6183161,16.8220842 C21.1248216,17.3285898 21.4042166,18.0022966 21.4042166,18.7190292 C21.4042166,19.4352172 21.1248216,20.108924 20.6183161,20.6159742 Z M36.0672801,1.37257559 C34.2362353,-0.457379961 31.2576559,-0.45792459 29.4271557,1.37257559 C27.9506648,2.8490665 27.6669127,5.07115538 28.5715425,6.8363 L20.8650333,14.5422646 C20.2098439,14.2051389 19.4800402,14.0232326 18.7213711,14.0232326 C17.4670891,14.0232326 16.2879659,14.5117653 15.4007643,15.398967 C13.5708087,17.2294672 13.5708087,20.2080466 15.4007643,22.0390914 C16.2879659,22.9257484 17.4670891,23.4142812 18.7213711,23.4142812 C19.9756531,23.4142812 21.1542316,22.9257484 22.0408887,22.0390914 C22.9280903,21.1518897 23.4166231,19.9727666 23.4166231,18.7190292 C23.4166231,17.9598155 23.2352615,17.2305564 22.8975911,16.5748224 L30.6041003,8.86885777 C31.2745394,9.21197443 32.010334,9.38625591 32.7472179,9.38625591 C33.9492155,9.38625591 35.1517577,8.9282224 36.0672801,8.01324463 C37.8977803,6.18219982 37.8977803,3.20362039 36.0672801,1.37257559 Z M2.79857934,6.59012741 C1.75180119,5.5438939 1.75180119,3.84192631 2.79857934,2.7956928 C3.32142378,2.27284836 4.00820174,2.01142614 4.6949797,2.01142614 C5.38230229,2.01142614 6.06908025,2.27284836 6.59246932,2.7956928 C7.63870283,3.84192631 7.63870283,5.5438939 6.59246932,6.59012741 C5.5462358,7.63581629 3.84481285,7.63636092 2.79857934,6.59012741 Z M8.87119968,6.8363 C9.77528486,5.07115538 9.49153282,2.8490665 8.01558653,1.37257559 C6.18454173,-0.457379961 3.20650693,-0.45792459 1.37546212,1.37257559 C-0.455582683,3.20362039 -0.455582683,6.18219982 1.37546212,8.01324463 C2.29098453,8.9282224 3.49298211,9.38625591 4.6949797,9.38625591 C5.43186358,9.38625591 6.16765821,9.21197443 6.83864191,8.86885777 L13.4123215,15.4425374 C13.6617619,15.0378776 13.9553172,14.653369 14.3055141,14.3031722 C14.6524432,13.9562431 15.0369517,13.6610539 15.44379,13.4088903 L8.87119968,6.8363 Z M4.6949797,27.211439 C3.21576563,27.211439 2.01267879,26.0078075 2.01267879,24.5285934 C2.01267879,23.0493794 3.21576563,21.8457479 4.6949797,21.8457479 C6.17473839,21.8457479 7.37836987,23.0493794 7.37836987,24.5285934 C7.37836987,26.0078075 6.17473839,27.211439 4.6949797,27.211439 Z M6.13225728,20.060452 L6.13225728,10.7609011 C5.6600634,10.8720055 5.17806618,10.9346379 4.6949797,10.9346379 C4.21243785,10.9346379 3.73044063,10.8720055 3.25770211,10.7609011 L3.25770211,20.060452 C1.37056046,20.6693479 0.000272314813,22.4410281 0.000272314813,24.5285934 C0.000272314813,27.117218 2.10635508,29.2238454 4.6949797,29.2238454 C7.28414894,29.2238454 9.39077634,27.117218 9.39077634,24.5285934 C9.39077634,22.4410281 8.0204882,20.6693479 6.13225728,20.060452 Z M32.7472179,27.211439 C31.2680038,27.211439 30.0643723,26.0078075 30.0643723,24.5285934 C30.0643723,23.0493794 31.2680038,21.8457479 32.7472179,21.8457479 C34.226432,21.8457479 35.4300634,23.0493794 35.4300634,24.5285934 C35.4300634,26.0078075 34.226432,27.211439 32.7472179,27.211439 Z M34.1844955,20.060452 L34.1844955,10.7609011 C33.711757,10.8720055 33.2297597,10.9346379 32.7472179,10.9346379 C32.2635868,10.9346379 31.7821342,10.8720055 31.3093957,10.7609011 L31.3093957,20.060452 C29.422254,20.6693479 28.0519659,22.4410281 28.0519659,24.5285934 C28.0519659,27.117218 30.1580486,29.2238454 32.7472179,29.2238454 C35.3363871,29.2238454 37.4424699,27.117218 37.4424699,24.5285934 C37.4424699,22.4410281 36.0721818,20.6693479 34.1844955,20.060452 Z" id="Fill-1" fill="#FFFFFF"></path>
                <polygon id="Fill-3" fill="#FFFFFF" points="60.9506997 22.5346499 60.9506997 13.5063246 57.9922716 19.3801551 55.9471873 19.3801551 52.966974 13.5063246 52.966974 22.5346499 49.9431903 22.5346499 49.9431903 7.04538332 52.9234037 7.04538332 56.9694571 15.4206977 60.9942701 7.04538332 63.975028 7.04538332 63.975028 22.5346499"></polygon>
                <path d="M72.7860461,11.6136277 L70.8281026,17.2483658 L74.6786341,17.2483658 L72.7860461,11.6136277 Z M76.3969406,22.534541 L75.4835967,19.7939647 L69.9795697,19.7939647 L69.043896,22.534541 L65.8894012,22.534541 L71.5241393,7.04527439 L73.8954567,7.04527439 L79.5514354,22.534541 L76.3969406,22.534541 Z" id="Fill-5" fill="#FFFFFF"></path>
                <path d="M87.3402381,9.74304278 L84.4901913,9.74304278 L84.4901913,13.8326667 L87.3402381,13.8326667 C88.6675005,13.8326667 89.537274,12.9846783 89.537274,11.788127 C89.537274,10.5915757 88.6675005,9.74304278 87.3402381,9.74304278 Z M89.6892257,22.5347588 L86.6659866,16.3564803 L84.4901913,16.3564803 L84.4901913,22.5347588 L81.4664076,22.5347588 L81.4664076,7.04549224 L87.5357602,7.04549224 C90.690255,7.04549224 92.5610577,9.19895779 92.5610577,11.788127 C92.5610577,13.9633778 91.23434,15.3124253 89.7333407,15.8559657 L93.1922835,22.5347588 L89.6892257,22.5347588 Z" id="Fill-7" fill="#FFFFFF"></path>
                <polygon id="Fill-9" fill="#FFFFFF" points="104.700852 22.5346499 100.71961 15.4860533 98.7180957 17.8791559 98.7180957 22.5346499 95.694312 22.5346499 95.694312 7.04538332 98.7180957 7.04538332 98.7180957 13.7889874 104.178552 7.04538332 107.855347 7.04538332 102.721123 13.2018766 108.22515 22.5346499"></polygon>
                <polygon id="Fill-11" fill="#FFFFFF" points="110.161799 22.5346499 110.161799 7.04538332 120.36489 7.04538332 120.36489 9.74293386 113.185583 9.74293386 113.185583 13.3761581 119.298506 13.3761581 119.298506 16.0737086 113.185583 16.0737086 113.185583 19.8370994 120.36489 19.8370994 120.36489 22.5346499"></polygon>
                <polygon id="Fill-13" fill="#FFFFFF" points="129.241373 9.74304278 129.241373 22.5347588 126.217045 22.5347588 126.217045 9.74304278 122.170991 9.74304278 122.170991 7.04549224 133.287426 7.04549224 133.287426 9.74304278"></polygon>
                <path d="M141.793888,8.52454292 L137.83443,8.52454292 L137.83443,14.6810362 L141.793888,14.6810362 C143.730591,14.6810362 145.079094,13.6369812 145.079094,11.591897 C145.079094,9.54735736 143.730591,8.52454292 141.793888,8.52454292 M141.946384,16.1607949 L137.83443,16.1607949 L137.83443,22.5345954 L136.180935,22.5345954 L136.180935,7.04532885 L141.946384,7.04532885 C144.774646,7.04532885 146.732044,8.80775032 146.732044,11.591897 C146.732044,14.3765883 144.774646,16.1607949 141.946384,16.1607949" id="Fill-15" fill="#00FFE2"></path>
                <path d="M155.673992,8.52454292 L151.540253,8.52454292 L151.540253,14.2023068 L155.673992,14.2023068 C157.479439,14.2023068 158.763131,13.2671777 158.763131,11.3745898 C158.763131,9.48145717 157.479439,8.52454292 155.673992,8.52454292 Z M158.784916,22.5345954 L155.260618,15.6602803 L151.540253,15.6602803 L151.540253,22.5345954 L149.887302,22.5345954 L149.887302,7.04532885 L155.825943,7.04532885 C158.523494,7.04532885 160.416626,8.67703921 160.416626,11.3528046 C160.416626,13.6157407 159.045794,15.0944101 157.044824,15.5083286 L160.721074,22.5345954 L158.784916,22.5345954 Z" id="Fill-17" fill="#00FFE2"></path>
                <path d="M171.663991,9.50373252 C170.989739,8.80769586 170.01104,8.39432197 168.988225,8.39432197 C167.965955,8.39432197 166.986711,8.80769586 166.31246,9.50373252 C165.333216,10.5042171 165.224835,11.5482721 165.224835,14.7899077 C165.224835,18.0315432 165.333216,19.0755982 166.31246,20.0766275 C166.986711,20.7726641 167.965955,21.186038 168.988225,21.186038 C170.01104,21.186038 170.989739,20.7726641 171.663991,20.0766275 C172.643235,19.0755982 172.751616,18.0315432 172.751616,14.7899077 C172.751616,11.5482721 172.643235,10.5042171 171.663991,9.50373252 M172.947683,21.0553269 C171.903083,22.0993819 170.532795,22.6657967 168.988225,22.6657967 C167.443656,22.6657967 166.072823,22.0993819 165.028768,21.0553269 C163.571339,19.597898 163.571339,18.0751136 163.571339,14.7899077 C163.571339,11.5052464 163.571339,9.98246197 165.028768,8.52448846 C166.072823,7.48043346 167.443656,6.91510791 168.988225,6.91510791 C170.532795,6.91510791 171.903083,7.48043346 172.947683,8.52448846 C174.405112,9.98246197 174.405112,11.5052464 174.405112,14.7899077 C174.405112,18.0751136 174.405112,19.597898 172.947683,21.0553269" id="Fill-19" fill="#00FFE2"></path>
                <polygon id="Fill-21" fill="#00FFE2" points="182.411385 8.52454292 182.411385 22.5345954 180.758434 22.5345954 180.758434 8.52454292 176.276677 8.52454292 176.276677 7.04532885 186.893142 7.04532885 186.893142 8.52454292"></polygon>
                <path d="M196.857359,9.50373252 C196.183107,8.80769586 195.203863,8.39432197 194.181594,8.39432197 C193.158779,8.39432197 192.18008,8.80769586 191.505828,9.50373252 C190.526584,10.5042171 190.418203,11.5482721 190.418203,14.7899077 C190.418203,18.0315432 190.526584,19.0755982 191.505828,20.0766275 C192.18008,20.7726641 193.158779,21.186038 194.181594,21.186038 C195.203863,21.186038 196.183107,20.7726641 196.857359,20.0766275 C197.836058,19.0755982 197.944984,18.0315432 197.944984,14.7899077 C197.944984,11.5482721 197.836058,10.5042171 196.857359,9.50373252 M198.140506,21.0553269 C197.096451,22.0993819 195.726163,22.6657967 194.181594,22.6657967 C192.637024,22.6657967 191.266191,22.0993819 190.221592,21.0553269 C188.764707,19.597898 188.764707,18.0751136 188.764707,14.7899077 C188.764707,11.5052464 188.764707,9.98246197 190.221592,8.52448846 C191.266191,7.48043346 192.637024,6.91510791 194.181594,6.91510791 C195.726163,6.91510791 197.096451,7.48043346 198.140506,8.52448846 C199.597935,9.98246197 199.597935,11.5052464 199.597935,14.7899077 C199.597935,18.0751136 199.597935,19.597898 198.140506,21.0553269" id="Fill-23" fill="#00FFE2"></path>
                <path d="M208.322248,22.6655244 C206.799464,22.6655244 205.406846,22.0996542 204.362791,21.0550546 C202.905907,19.5981703 202.905907,18.0748413 202.905907,14.79018 C202.905907,11.5049741 202.905907,9.98218965 204.362791,8.52476077 C205.406846,7.48070578 206.799464,6.91483559 208.322248,6.91483559 C211.10694,6.91483559 213.173264,8.61190151 213.695564,11.5267593 L211.999043,11.5267593 C211.585669,9.63417132 210.258951,8.39404966 208.322248,8.39404966 C207.299978,8.39404966 206.320734,8.78563836 205.646483,9.48167502 C204.667783,10.4827043 204.558858,11.5485445 204.558858,14.79018 C204.558858,18.0312709 204.667783,19.0976557 205.646483,20.0981403 C206.320734,20.794177 207.299978,21.1863103 208.322248,21.1863103 C210.258951,21.1863103 211.628695,19.9461887 212.042613,18.0536007 L213.695564,18.0536007 C213.19505,20.9684585 211.085154,22.6655244 208.322248,22.6655244" id="Fill-25" fill="#00FFE2"></path>
                <path d="M224.856332,9.50373252 C224.182081,8.80769586 223.203381,8.39432197 222.180567,8.39432197 C221.158297,8.39432197 220.179053,8.80769586 219.504802,9.50373252 C218.525558,10.5042171 218.417176,11.5482721 218.417176,14.7899077 C218.417176,18.0315432 218.525558,19.0755982 219.504802,20.0766275 C220.179053,20.7726641 221.158297,21.186038 222.180567,21.186038 C223.203381,21.186038 224.182081,20.7726641 224.856332,20.0766275 C225.835576,19.0755982 225.944502,18.0315432 225.944502,14.7899077 C225.944502,11.5482721 225.835576,10.5042171 224.856332,9.50373252 M226.140024,21.0553269 C225.095425,22.0993819 223.725681,22.6657967 222.180567,22.6657967 C220.635997,22.6657967 219.265165,22.0993819 218.22111,21.0553269 C216.764225,19.597898 216.764225,18.0751136 216.764225,14.7899077 C216.764225,11.5052464 216.764225,9.98246197 218.22111,8.52448846 C219.265165,7.48043346 220.635997,6.91510791 222.180567,6.91510791 C223.725681,6.91510791 225.095425,7.48043346 226.140024,8.52448846 C227.597453,9.98246197 227.597453,11.5052464 227.597453,14.7899077 C227.597453,18.0751136 227.597453,19.597898 226.140024,21.0553269" id="Fill-27" fill="#00FFE2"></path>
                <g id="Group-31" transform="translate(231.467591, 6.894194)">
                    <mask id="mask-2" fill="white">
                        <use xlink:href="#path-1"></use>
                    </mask>
                    <g id="Clip-30"></g>
                    <polygon id="Fill-29" fill="#00FFE2" mask="url(#mask-2)" points="0.0242904814 15.6404558 0.0242904814 0.151189184 1.67778603 0.151189184 1.67778603 14.1612417 9.5967008 14.1612417 9.5967008 15.6404558"></polygon>
                </g>
            </g>
        </g>
    </g>
</svg>