<?xml version="1.0" encoding="UTF-8"?>
<svg width="23px" height="19px" viewBox="0 0 23 19" version="1.1" xmlns="http://www.w3.org/2000/svg" xmlns:xlink="http://www.w3.org/1999/xlink">
    <!-- Generator: Sketch 49.3 (51167) - http://www.bohemiancoding.com/sketch -->
    <title>Fill 1</title>
    <desc>Created with Sketch.</desc>
    <defs></defs>
    <g id="Page-1" stroke="none" stroke-width="1" fill="none" fill-rule="evenodd">
        <g id="market-site" transform="translate(-1077.000000, -6693.000000)" fill="#181E26">
            <path d="M1100,6693.40175 L1098.16329,6695.23439 C1098.00557,6695.3609 1097.92671,6695.56604 1097.95957,6695.76948 L1097.95957,6709.23223 C1097.92671,6709.43396 1098.00557,6709.64081 1098.16329,6709.76561 L1099.95729,6711.59996 L1099.95729,6712 L1090.938,6712 L1090.938,6711.59996 L1092.79443,6709.72116 C1092.97679,6709.53311 1092.97679,6709.4767 1092.97679,6709.18607 L1092.97679,6698.30475 L1087.81329,6711.95726 L1087.11507,6711.95726 L1081.10221,6698.30475 L1081.10221,6707.456 C1081.05129,6707.83894 1081.1745,6708.2253 1081.43407,6708.50396 L1083.85071,6711.55381 L1083.85071,6711.95726 L1077,6711.95726 L1077,6711.55381 L1079.41664,6708.50396 C1079.67457,6708.2253 1079.78957,6707.83552 1079.72714,6707.456 L1079.72714,6696.87556 C1079.75671,6696.58152 1079.64829,6696.29089 1079.438,6696.0943 L1077.28914,6693.40175 L1077.28914,6693 L1083.9575,6693 L1089.11279,6704.76345 L1093.64379,6693 L1100,6693 L1100,6693.40175 Z" id="Fill-1"></path>
        </g>
    </g>
</svg>