<?xml version="1.0" encoding="UTF-8"?>
<svg width="23px" height="19px" viewBox="0 0 23 19" version="1.1" xmlns="http://www.w3.org/2000/svg" xmlns:xlink="http://www.w3.org/1999/xlink">
    <!-- Generator: Sketch 49.3 (51167) - http://www.bohemiancoding.com/sketch -->
    <title>Fill 1</title>
    <desc>Created with Sketch.</desc>
    <defs></defs>
    <g id="Page-1" stroke="none" stroke-width="1" fill="none" fill-rule="evenodd">
        <g id="market-site" transform="translate(-956.000000, -6693.000000)" fill="#181E26">
            <path d="M963.065951,6703.54631 L964.675879,6708.80827 L965.034006,6705.47618 C965.034006,6705.47618 971.24866,6699.91782 974.795432,6696.75021 C974.897284,6696.65738 974.910427,6696.50104 974.825002,6696.39192 C974.739577,6696.28281 974.58187,6696.25675 974.465232,6696.33167 C970.358271,6698.93089 963.065951,6703.54631 963.065951,6703.54631 M975.372049,6711.12901 C975.293195,6711.49381 975.031993,6711.7951 974.678794,6711.92865 C974.325595,6712.06056 973.926399,6712.00682 973.617555,6711.79022 C971.675784,6710.41895 968.252221,6707.93209 968.252221,6707.93209 C968.252221,6707.93209 966.451729,6709.61768 965.286995,6710.70721 C965.080004,6710.90101 964.785946,6710.97592 964.508315,6710.90426 C964.232328,6710.83261 964.022051,6710.62415 963.930055,6710.35706 C963.205587,6708.2399 961.814149,6704.07397 961.814149,6704.07397 C961.814149,6704.07397 958.837423,6703.13753 956.568738,6702.46493 C956.240181,6702.36721 956.011834,6702.07569 956.000335,6701.7402 C955.990478,6701.40309 956.199112,6701.09854 956.519455,6700.97965 C961.577588,6699.12469 973.952683,6694.52231 977.970934,6693.04681 C978.230494,6692.95235 978.52291,6693.00284 978.734829,6693.18035 C978.945105,6693.35787 979.04203,6693.63473 978.982889,6693.90182 C978.227208,6697.42933 976.204941,6707.24971 975.372049,6711.12901" id="Fill-1"></path>
        </g>
    </g>
</svg>