<?xml version="1.0" encoding="UTF-8"?>
<svg width="23px" height="19px" viewBox="0 0 23 19" version="1.1" xmlns="http://www.w3.org/2000/svg" xmlns:xlink="http://www.w3.org/1999/xlink">
    <!-- Generator: Sketch 49.3 (51167) - http://www.bohemiancoding.com/sketch -->
    <title>Fill 1</title>
    <desc>Created with Sketch.</desc>
    <defs></defs>
    <g id="Page-1" stroke="none" stroke-width="1" fill="none" fill-rule="evenodd">
        <g id="market-site" transform="translate(-1018.000000, -6693.000000)" fill="#181E26">
            <path d="M1038.64562,6697.73372 C1038.94628,6704.47948 1033.996,6712 1025.23073,6712 C1022.56583,6712 1020.08822,6711.2052 1018,6709.84436 C1020.50389,6710.14492 1023.00286,6709.43695 1024.98593,6707.85904 C1022.92235,6707.82063 1021.17916,6706.43308 1020.57454,6704.5279 C1021.31717,6704.6715 1022.045,6704.62976 1022.70876,6704.44608 C1020.43817,6703.9819 1018.87078,6701.90474 1018.92335,6699.68231 C1019.56083,6700.0413 1020.28702,6700.2567 1021.05922,6700.28175 C1018.9595,6698.85412 1018.36474,6696.03392 1019.60026,6693.87828 C1021.92671,6696.7803 1025.40324,6698.68881 1029.32667,6698.88918 C1028.63826,6695.89032 1030.87599,6693 1033.92535,6693 C1035.27916,6693 1036.50646,6693.58274 1037.36903,6694.51446 C1038.44353,6694.30073 1039.45396,6693.89999 1040.36581,6693.35065 C1040.01257,6694.47104 1039.26502,6695.40944 1038.28909,6696.00387 C1039.24366,6695.88698 1040.15551,6695.62984 1041,6695.24747 C1040.3691,6696.21258 1039.56897,6697.05747 1038.64562,6697.73372" id="Fill-1"></path>
        </g>
    </g>
</svg>